<mxfile modified="2019-12-10T07:30:49.219Z" host="www.draw.io" agent="Mozilla/5.0 (Macintosh; Intel Mac OS X 10_14_4) AppleWebKit/537.36 (KHTML, like Gecko) Chrome/78.0.3904.108 Safari/537.36" etag="KV6SwnzhP_kzWbOLhyxd" version="12.3.8" type="github" pages="10">
  <diagram id="ZlDLgHgnr44uqegOqnVZ" name="Page-1">
    <mxGraphModel dx="1666" dy="771" grid="1" gridSize="10" guides="1" tooltips="1" connect="1" arrows="1" fold="1" page="1" pageScale="1" pageWidth="827" pageHeight="1169" math="0" shadow="0">
      <root>
        <mxCell id="0"/>
        <mxCell id="1" parent="0"/>
        <mxCell id="fPYwdc-0suvlqZ_W97kd-4" value="&lt;div style=&quot;text-align: justify&quot;&gt;inheritedWidget&lt;/div&gt;" style="rounded=0;whiteSpace=wrap;html=1;fillColor=#fff2cc;strokeColor=#d6b656;align=left;verticalAlign=top;" parent="1" vertex="1">
          <mxGeometry x="165" y="175" width="450" height="130" as="geometry"/>
        </mxCell>
        <mxCell id="fPYwdc-0suvlqZ_W97kd-1" value="Bloc" style="rounded=0;whiteSpace=wrap;html=1;" parent="1" vertex="1">
          <mxGeometry x="260" y="190" width="120" height="60" as="geometry"/>
        </mxCell>
        <mxCell id="fPYwdc-0suvlqZ_W97kd-2" value="validator" style="rounded=0;whiteSpace=wrap;html=1;" parent="1" vertex="1">
          <mxGeometry x="260" y="230" width="120" height="60" as="geometry"/>
        </mxCell>
        <mxCell id="fPYwdc-0suvlqZ_W97kd-3" value="Widget(StreamBuilder)" style="rounded=0;whiteSpace=wrap;html=1;" parent="1" vertex="1">
          <mxGeometry x="240" y="400" width="150" height="60" as="geometry"/>
        </mxCell>
        <mxCell id="fPYwdc-0suvlqZ_W97kd-5" value="LoginScreen" style="rounded=0;whiteSpace=wrap;html=1;" parent="1" vertex="1">
          <mxGeometry x="460" y="210" width="120" height="60" as="geometry"/>
        </mxCell>
      </root>
    </mxGraphModel>
  </diagram>
  <diagram id="WoYyl-nJbBrKuKhW0U5Q" name="in-progress">
    <mxGraphModel dx="1282" dy="593" grid="1" gridSize="10" guides="1" tooltips="1" connect="1" arrows="1" fold="1" page="1" pageScale="1" pageWidth="827" pageHeight="1169" math="0" shadow="0">
      <root>
        <mxCell id="whGM9-oKvvd0ZnH0LCUZ-0"/>
        <mxCell id="whGM9-oKvvd0ZnH0LCUZ-1" parent="whGM9-oKvvd0ZnH0LCUZ-0"/>
        <mxCell id="whGM9-oKvvd0ZnH0LCUZ-3" value="" style="rounded=0;whiteSpace=wrap;html=1;" parent="whGM9-oKvvd0ZnH0LCUZ-1" vertex="1">
          <mxGeometry x="200" y="160" width="510" height="160" as="geometry"/>
        </mxCell>
        <mxCell id="whGM9-oKvvd0ZnH0LCUZ-4" value="" style="rounded=0;whiteSpace=wrap;html=1;" parent="whGM9-oKvvd0ZnH0LCUZ-1" vertex="1">
          <mxGeometry x="50" y="350" width="660" height="170" as="geometry"/>
        </mxCell>
        <mxCell id="whGM9-oKvvd0ZnH0LCUZ-7" value="開発環境" style="text;html=1;resizable=0;points=[];autosize=1;align=left;verticalAlign=top;spacingTop=-4;" parent="whGM9-oKvvd0ZnH0LCUZ-1" vertex="1">
          <mxGeometry x="200" y="140" width="60" height="20" as="geometry"/>
        </mxCell>
        <mxCell id="whGM9-oKvvd0ZnH0LCUZ-8" value="本番環境" style="text;html=1;resizable=0;points=[];autosize=1;align=left;verticalAlign=top;spacingTop=-4;" parent="whGM9-oKvvd0ZnH0LCUZ-1" vertex="1">
          <mxGeometry x="50" y="330" width="60" height="20" as="geometry"/>
        </mxCell>
        <mxCell id="whGM9-oKvvd0ZnH0LCUZ-9" value="" style="shape=flexArrow;endArrow=classic;html=1;fillColor=#e1d5e7;strokeColor=#9673a6;" parent="whGM9-oKvvd0ZnH0LCUZ-1" edge="1">
          <mxGeometry width="50" height="50" relative="1" as="geometry">
            <mxPoint x="20" y="430" as="sourcePoint"/>
            <mxPoint x="730" y="430" as="targetPoint"/>
          </mxGeometry>
        </mxCell>
        <mxCell id="whGM9-oKvvd0ZnH0LCUZ-11" value="" style="shape=flexArrow;endArrow=classic;html=1;fillColor=#e1d5e7;strokeColor=#9673a6;" parent="whGM9-oKvvd0ZnH0LCUZ-1" edge="1">
          <mxGeometry width="50" height="50" relative="1" as="geometry">
            <mxPoint x="180" y="240" as="sourcePoint"/>
            <mxPoint x="730" y="240" as="targetPoint"/>
          </mxGeometry>
        </mxCell>
        <mxCell id="whGM9-oKvvd0ZnH0LCUZ-12" value="CSV出力&lt;br&gt;スクリプト&lt;br&gt;(niu)&lt;br&gt;" style="rounded=1;whiteSpace=wrap;html=1;fillColor=#d5e8d4;strokeColor=#82b366;" parent="whGM9-oKvvd0ZnH0LCUZ-1" vertex="1">
          <mxGeometry x="230" y="170" width="80" height="60" as="geometry"/>
        </mxCell>
        <mxCell id="whGM9-oKvvd0ZnH0LCUZ-13" value="SFTP&lt;br&gt;環境構築&lt;br&gt;(開発支援G)&lt;br&gt;" style="rounded=1;whiteSpace=wrap;html=1;fillColor=#d5e8d4;strokeColor=#82b366;" parent="whGM9-oKvvd0ZnH0LCUZ-1" vertex="1">
          <mxGeometry x="230" y="250" width="80" height="60" as="geometry"/>
        </mxCell>
        <mxCell id="whGM9-oKvvd0ZnH0LCUZ-16" value="ラフテル穴あけ&lt;br&gt;(RTC)&lt;br&gt;" style="rounded=1;whiteSpace=wrap;html=1;fillColor=#d5e8d4;strokeColor=#82b366;" parent="whGM9-oKvvd0ZnH0LCUZ-1" vertex="1">
          <mxGeometry x="350" y="170" width="90" height="60" as="geometry"/>
        </mxCell>
        <mxCell id="whGM9-oKvvd0ZnH0LCUZ-17" value="SFTP穴あけ&lt;br&gt;(開発支援G)&lt;br&gt;" style="rounded=1;whiteSpace=wrap;html=1;fillColor=#d5e8d4;strokeColor=#82b366;" parent="whGM9-oKvvd0ZnH0LCUZ-1" vertex="1">
          <mxGeometry x="350" y="250" width="90" height="60" as="geometry"/>
        </mxCell>
        <mxCell id="whGM9-oKvvd0ZnH0LCUZ-18" value="転送テスト&lt;br&gt;(niu)&lt;br&gt;" style="rounded=1;whiteSpace=wrap;html=1;fillColor=#d5e8d4;strokeColor=#82b366;" parent="whGM9-oKvvd0ZnH0LCUZ-1" vertex="1">
          <mxGeometry x="470" y="200" width="90" height="60" as="geometry"/>
        </mxCell>
        <mxCell id="whGM9-oKvvd0ZnH0LCUZ-20" value="実証完了" style="rounded=1;whiteSpace=wrap;html=1;" parent="whGM9-oKvvd0ZnH0LCUZ-1" vertex="1">
          <mxGeometry x="580" y="200" width="90" height="60" as="geometry"/>
        </mxCell>
        <mxCell id="whGM9-oKvvd0ZnH0LCUZ-23" value="CSV出力&lt;br&gt;スクリプト&lt;br&gt;cron登録&lt;br&gt;" style="rounded=1;whiteSpace=wrap;html=1;" parent="whGM9-oKvvd0ZnH0LCUZ-1" vertex="1">
          <mxGeometry x="330" y="390" width="80" height="60" as="geometry"/>
        </mxCell>
        <mxCell id="whGM9-oKvvd0ZnH0LCUZ-24" value="&lt;span&gt;SFTP&lt;/span&gt;&lt;br&gt;&lt;span&gt;環境構築&lt;/span&gt;&lt;br&gt;&lt;span&gt;(開発支援G)&lt;/span&gt;" style="rounded=1;whiteSpace=wrap;html=1;" parent="whGM9-oKvvd0ZnH0LCUZ-1" vertex="1">
          <mxGeometry x="230" y="440" width="80" height="60" as="geometry"/>
        </mxCell>
        <mxCell id="whGM9-oKvvd0ZnH0LCUZ-25" value="ラフテル穴あけのために&lt;br&gt;WEBサレ&lt;br&gt;(reoy)&lt;br&gt;" style="rounded=1;whiteSpace=wrap;html=1;fillColor=#d5e8d4;strokeColor=#82b366;" parent="whGM9-oKvvd0ZnH0LCUZ-1" vertex="1">
          <mxGeometry x="54" y="390" width="80" height="60" as="geometry"/>
        </mxCell>
        <mxCell id="whGM9-oKvvd0ZnH0LCUZ-26" value="スクリプト&lt;br&gt;テスト" style="rounded=1;whiteSpace=wrap;html=1;" parent="whGM9-oKvvd0ZnH0LCUZ-1" vertex="1">
          <mxGeometry x="233" y="360" width="77" height="60" as="geometry"/>
        </mxCell>
        <mxCell id="whGM9-oKvvd0ZnH0LCUZ-28" value="ラフテル穴あけ" style="rounded=1;whiteSpace=wrap;html=1;" parent="whGM9-oKvvd0ZnH0LCUZ-1" vertex="1">
          <mxGeometry x="426" y="360" width="90" height="60" as="geometry"/>
        </mxCell>
        <mxCell id="whGM9-oKvvd0ZnH0LCUZ-29" value="SFTP穴あけ" style="rounded=1;whiteSpace=wrap;html=1;" parent="whGM9-oKvvd0ZnH0LCUZ-1" vertex="1">
          <mxGeometry x="426" y="440" width="90" height="60" as="geometry"/>
        </mxCell>
        <mxCell id="whGM9-oKvvd0ZnH0LCUZ-30" value="転送テスト" style="rounded=1;whiteSpace=wrap;html=1;" parent="whGM9-oKvvd0ZnH0LCUZ-1" vertex="1">
          <mxGeometry x="527.5" y="390" width="71" height="60" as="geometry"/>
        </mxCell>
        <mxCell id="whGM9-oKvvd0ZnH0LCUZ-31" value="本番運用" style="rounded=1;whiteSpace=wrap;html=1;" parent="whGM9-oKvvd0ZnH0LCUZ-1" vertex="1">
          <mxGeometry x="610" y="390" width="90" height="60" as="geometry"/>
        </mxCell>
        <mxCell id="whGM9-oKvvd0ZnH0LCUZ-34" value="SFTP用Rcloud申請" style="rounded=1;whiteSpace=wrap;html=1;" parent="whGM9-oKvvd0ZnH0LCUZ-1" vertex="1">
          <mxGeometry x="140" y="390" width="80" height="60" as="geometry"/>
        </mxCell>
        <mxCell id="whGM9-oKvvd0ZnH0LCUZ-37" value="" style="edgeStyle=segmentEdgeStyle;endArrow=classic;html=1;exitX=0.5;exitY=1;exitDx=0;exitDy=0;fillColor=#f8cecc;strokeColor=#b85450;" parent="whGM9-oKvvd0ZnH0LCUZ-1" source="whGM9-oKvvd0ZnH0LCUZ-20" target="whGM9-oKvvd0ZnH0LCUZ-34" edge="1">
          <mxGeometry width="50" height="50" relative="1" as="geometry">
            <mxPoint x="20" y="590" as="sourcePoint"/>
            <mxPoint x="70" y="540" as="targetPoint"/>
            <Array as="points">
              <mxPoint x="625" y="330"/>
              <mxPoint x="180" y="330"/>
            </Array>
          </mxGeometry>
        </mxCell>
      </root>
    </mxGraphModel>
  </diagram>
  <diagram id="giqvaWyIgpTlrhGd1x-X" name="dataflow">
    <mxGraphModel dx="1282" dy="593" grid="1" gridSize="10" guides="1" tooltips="1" connect="1" arrows="1" fold="1" page="1" pageScale="1" pageWidth="827" pageHeight="1169" math="0" shadow="0">
      <root>
        <mxCell id="JN9vlLJ-MtzgwLALD2hu-0"/>
        <mxCell id="JN9vlLJ-MtzgwLALD2hu-1" parent="JN9vlLJ-MtzgwLALD2hu-0"/>
        <mxCell id="8-GmOCleJoWvkjhxUPIe-53" value="" style="rounded=0;whiteSpace=wrap;html=1;" parent="JN9vlLJ-MtzgwLALD2hu-1" vertex="1">
          <mxGeometry x="55" y="634" width="755" height="270" as="geometry"/>
        </mxCell>
        <mxCell id="8-GmOCleJoWvkjhxUPIe-31" value="Rcloud" style="rounded=0;whiteSpace=wrap;html=1;align=center;fillColor=#dae8fc;strokeColor=#6c8ebf;verticalAlign=top;" parent="JN9vlLJ-MtzgwLALD2hu-1" vertex="1">
          <mxGeometry x="63" y="644" width="737" height="250" as="geometry"/>
        </mxCell>
        <mxCell id="8-GmOCleJoWvkjhxUPIe-3" value="Raftel" style="rounded=0;whiteSpace=wrap;html=1;align=center;verticalAlign=top;fillColor=#fff2cc;strokeColor=#d6b656;" parent="JN9vlLJ-MtzgwLALD2hu-1" vertex="1">
          <mxGeometry x="510" y="307" width="310" height="203" as="geometry"/>
        </mxCell>
        <mxCell id="8-GmOCleJoWvkjhxUPIe-24" style="edgeStyle=orthogonalEdgeStyle;rounded=0;orthogonalLoop=1;jettySize=auto;html=1;exitX=0.75;exitY=0;exitDx=0;exitDy=0;entryX=0.5;entryY=1;entryDx=0;entryDy=0;" parent="JN9vlLJ-MtzgwLALD2hu-1" source="8-GmOCleJoWvkjhxUPIe-22" target="8-GmOCleJoWvkjhxUPIe-21" edge="1">
          <mxGeometry relative="1" as="geometry"/>
        </mxCell>
        <mxCell id="8-GmOCleJoWvkjhxUPIe-22" value="&lt;div style=&quot;text-align: center&quot;&gt;&lt;span&gt;batch server&lt;/span&gt;&lt;/div&gt;" style="rounded=0;whiteSpace=wrap;html=1;verticalAlign=top;" parent="JN9vlLJ-MtzgwLALD2hu-1" vertex="1">
          <mxGeometry x="600" y="391" width="195" height="110" as="geometry"/>
        </mxCell>
        <mxCell id="8-GmOCleJoWvkjhxUPIe-0" value="" style="rounded=0;whiteSpace=wrap;html=1;fillColor=#ffe6cc;strokeColor=#d79b00;" parent="JN9vlLJ-MtzgwLALD2hu-1" vertex="1">
          <mxGeometry x="55" y="308" width="325" height="202" as="geometry"/>
        </mxCell>
        <mxCell id="8-GmOCleJoWvkjhxUPIe-1" value="" style="rounded=0;whiteSpace=wrap;html=1;fillColor=#dae8fc;strokeColor=#6c8ebf;" parent="JN9vlLJ-MtzgwLALD2hu-1" vertex="1">
          <mxGeometry x="70" y="330" width="300" height="170" as="geometry"/>
        </mxCell>
        <mxCell id="8-GmOCleJoWvkjhxUPIe-2" value="" style="outlineConnect=0;dashed=0;verticalLabelPosition=bottom;verticalAlign=top;align=center;html=1;shape=mxgraph.aws3.cloud_2;fillColor=#F58534;gradientColor=none;labelBorderColor=#000000;" parent="JN9vlLJ-MtzgwLALD2hu-1" vertex="1">
          <mxGeometry x="70" y="307" width="75" height="75" as="geometry"/>
        </mxCell>
        <mxCell id="8-GmOCleJoWvkjhxUPIe-5" value="" style="outlineConnect=0;fontColor=#232F3E;gradientColor=#4AB29A;gradientDirection=north;fillColor=#116D5B;strokeColor=#ffffff;dashed=0;verticalLabelPosition=bottom;verticalAlign=top;align=center;html=1;fontSize=12;fontStyle=0;aspect=fixed;shape=mxgraph.aws4.resourceIcon;resIcon=mxgraph.aws4.transfer_for_sftp;" parent="JN9vlLJ-MtzgwLALD2hu-1" vertex="1">
          <mxGeometry x="237" y="382" width="78" height="78" as="geometry"/>
        </mxCell>
        <mxCell id="8-GmOCleJoWvkjhxUPIe-6" value="" style="shape=image;html=1;verticalAlign=top;verticalLabelPosition=bottom;labelBackgroundColor=#ffffff;imageAspect=0;aspect=fixed;image=https://cdn2.iconfinder.com/data/icons/whcompare-blue-green-web-hosting-1/455/sftp-128.png" parent="JN9vlLJ-MtzgwLALD2hu-1" vertex="1">
          <mxGeometry x="520" y="420" width="65" height="65" as="geometry"/>
        </mxCell>
        <mxCell id="8-GmOCleJoWvkjhxUPIe-7" value="" style="endArrow=classic;html=1;exitX=0;exitY=0.5;exitDx=0;exitDy=0;" parent="JN9vlLJ-MtzgwLALD2hu-1" source="8-GmOCleJoWvkjhxUPIe-39" target="8-GmOCleJoWvkjhxUPIe-5" edge="1">
          <mxGeometry width="50" height="50" relative="1" as="geometry">
            <mxPoint x="80" y="570" as="sourcePoint"/>
            <mxPoint x="130" y="520" as="targetPoint"/>
          </mxGeometry>
        </mxCell>
        <mxCell id="8-GmOCleJoWvkjhxUPIe-9" value="" style="dashed=0;outlineConnect=0;html=1;align=center;labelPosition=center;verticalLabelPosition=bottom;verticalAlign=top;shape=mxgraph.weblogos.aws_s3" parent="JN9vlLJ-MtzgwLALD2hu-1" vertex="1">
          <mxGeometry x="87" y="391" width="61.6" height="57.6" as="geometry"/>
        </mxCell>
        <mxCell id="8-GmOCleJoWvkjhxUPIe-10" value="" style="endArrow=classic;html=1;" parent="JN9vlLJ-MtzgwLALD2hu-1" source="8-GmOCleJoWvkjhxUPIe-5" target="8-GmOCleJoWvkjhxUPIe-9" edge="1">
          <mxGeometry width="50" height="50" relative="1" as="geometry">
            <mxPoint x="450" y="560" as="sourcePoint"/>
            <mxPoint x="140" y="413" as="targetPoint"/>
          </mxGeometry>
        </mxCell>
        <mxCell id="8-GmOCleJoWvkjhxUPIe-12" value="Rcloud&lt;br&gt;" style="text;html=1;strokeColor=none;fillColor=none;align=center;verticalAlign=middle;whiteSpace=wrap;rounded=0;" parent="JN9vlLJ-MtzgwLALD2hu-1" vertex="1">
          <mxGeometry x="180" y="337.5" width="40" height="20" as="geometry"/>
        </mxCell>
        <mxCell id="8-GmOCleJoWvkjhxUPIe-13" value="" style="endArrow=classic;html=1;" parent="JN9vlLJ-MtzgwLALD2hu-1" source="8-GmOCleJoWvkjhxUPIe-9" target="_bcro-cEM-mXuyXGzMW_-1" edge="1">
          <mxGeometry width="50" height="50" relative="1" as="geometry">
            <mxPoint x="80" y="750" as="sourcePoint"/>
            <mxPoint x="130" y="700" as="targetPoint"/>
          </mxGeometry>
        </mxCell>
        <mxCell id="8-GmOCleJoWvkjhxUPIe-21" value="oracle DB" style="rounded=0;whiteSpace=wrap;html=1;" parent="JN9vlLJ-MtzgwLALD2hu-1" vertex="1">
          <mxGeometry x="700" y="315" width="90" height="40" as="geometry"/>
        </mxCell>
        <mxCell id="8-GmOCleJoWvkjhxUPIe-25" value="" style="rounded=0;whiteSpace=wrap;html=1;align=center;" parent="JN9vlLJ-MtzgwLALD2hu-1" vertex="1">
          <mxGeometry x="610" y="422" width="120" height="60" as="geometry"/>
        </mxCell>
        <mxCell id="8-GmOCleJoWvkjhxUPIe-26" value="" style="pointerEvents=1;shadow=0;dashed=0;html=1;strokeColor=none;labelPosition=center;verticalLabelPosition=bottom;verticalAlign=top;align=center;shape=mxgraph.mscae.deprecated.batch;fillColor=#00188D;" parent="JN9vlLJ-MtzgwLALD2hu-1" vertex="1">
          <mxGeometry x="615" y="427" width="60" height="55" as="geometry"/>
        </mxCell>
        <mxCell id="8-GmOCleJoWvkjhxUPIe-27" value="csv" style="text;html=1;strokeColor=none;fillColor=none;align=center;verticalAlign=middle;whiteSpace=wrap;rounded=0;" parent="JN9vlLJ-MtzgwLALD2hu-1" vertex="1">
          <mxGeometry x="680" y="454.5" width="40" height="20" as="geometry"/>
        </mxCell>
        <mxCell id="8-GmOCleJoWvkjhxUPIe-30" value="shell script" style="text;html=1;resizable=0;points=[];autosize=1;align=left;verticalAlign=top;spacingTop=-4;" parent="JN9vlLJ-MtzgwLALD2hu-1" vertex="1">
          <mxGeometry x="660" y="422" width="70" height="20" as="geometry"/>
        </mxCell>
        <mxCell id="8-GmOCleJoWvkjhxUPIe-36" value="" style="shape=image;verticalLabelPosition=bottom;labelBackgroundColor=#ffffff;verticalAlign=top;aspect=fixed;imageAspect=0;image=data:image/jpeg,/9j/4QAYRXhpZgAASUkqAAgAAAAAAAAAAAAAAP/sABFEdWNreQABAAQAAABkAAD/4QNvaHR0cDovL25zLmFkb2JlLmNvbS94YXAvMS4wLwA8P3hwYWNrZXQgYmVnaW49Iu+7vyIgaWQ9Ilc1TTBNcENlaGlIenJlU3pOVGN6a2M5ZCI/PiA8eDp4bXBtZXRhIHhtbG5zOng9ImFkb2JlOm5zOm1ldGEvIiB4OnhtcHRrPSJBZG9iZSBYTVAgQ29yZSA1LjMtYzAxMSA2Ni4xNDU2NjEsIDIwMTIvMDIvMDYtMTQ6NTY6MjcgICAgICAgICI+IDxyZGY6UkRGIHhtbG5zOnJkZj0iaHR0cDovL3d3dy53My5vcmcvMTk5OS8wMi8yMi1yZGYtc3ludGF4LW5zIyI+IDxyZGY6RGVzY3JpcHRpb24gcmRmOmFib3V0PSIiIHhtbG5zOnhtcE1NPSJodHRwOi8vbnMuYWRvYmUuY29tL3hhcC8xLjAvbW0vIiB4bWxuczpzdFJlZj0iaHR0cDovL25zLmFkb2JlLmNvbS94YXAvMS4wL3NUeXBlL1Jlc291cmNlUmVmIyIgeG1sbnM6eG1wPSJodHRwOi8vbnMuYWRvYmUuY29tL3hhcC8xLjAvIiB4bXBNTTpPcmlnaW5hbERvY3VtZW50SUQ9InhtcC5kaWQ6QzM2QkE2REQ0OTdGRTMxMTgzQjBCMDhEQ0Q2QjA2QzYiIHhtcE1NOkRvY3VtZW50SUQ9InhtcC5kaWQ6RjMzMENBRDk4OUFEMTFFNUEzRkZFRkE5RjJBMjkyMzYiIHhtcE1NOkluc3RhbmNlSUQ9InhtcC5paWQ6RjMzMENBRDg4OUFEMTFFNUEzRkZFRkE5RjJBMjkyMzYiIHhtcDpDcmVhdG9yVG9vbD0iQWRvYmUgUGhvdG9zaG9wIENTNiAoV2luZG93cykiPiA8eG1wTU06RGVyaXZlZEZyb20gc3RSZWY6aW5zdGFuY2VJRD0ieG1wLmlpZDpGMTgyQUU1ODREN0ZFMzExOUMxQjk2MjQyRjRCNDYzNSIgc3RSZWY6ZG9jdW1lbnRJRD0ieG1wLmRpZDpDMzZCQTZERDQ5N0ZFMzExODNCMEIwOERDRDZCMDZDNiIvPiA8L3JkZjpEZXNjcmlwdGlvbj4gPC9yZGY6UkRGPiA8L3g6eG1wbWV0YT4gPD94cGFja2V0IGVuZD0iciI/Pv/uAA5BZG9iZQBkwAAAAAH/2wCEAAEBAQEBAQEBAQEBAQEBAQEBAQEBAQEBAQEBAQEBAQEBAQEBAQEBAQEBAQECAgICAgICAgICAgMDAwMDAwMDAwMBAQEBAQEBAgEBAgICAQICAwMDAwMDAwMDAwMDAwMDAwMDAwMDAwMDAwMDAwMDAwMDAwMDAwMDAwMDAwMDAwMDA//AABEIASwCJgMBEQACEQEDEQH/xADgAAEAAQQDAQEAAAAAAAAAAAAACQMHCAoCBQYEAQEBAAEEAwEBAAAAAAAAAAAAAAgBAgcJAwQGBQoQAAAGAQMCAwMDCg0RBgcAAAABAgMEBQYRBwgSEyEUCTFBIlEVFmFxgbHRMiPUlhfwkaFCklPTJJVWdlcYweFSYnK11Ta21jdHl7c4eBmC0kNUpCW0xGXFJ3c5EQACAQMCBAEHBgkKBQMFAAAAAQIRAwQFBiExEgdBUWEiE5MVCHHRMhRUFkJi0iPTlFUXGIGRUpIzQ1PURVbwoXKCJLHhCcJzNERG/9oADAMBAAIRAxEAPwDf4AAAAAAAAAAAAAAAAAAAAAAAAAAAAAAAAAAAAAAAAAAAAAAAAAAAAAAAAAAAAAAAAAAAAAAAAAAAAAAAAAAAAAAAAAAAAAAAAAAAAAAAAAAAAAAAAAAAAAAAAAAAAAAAAAAAAAAAAAAAAAAAAAAAAAAAAAAAAAAAAAAAAAAAAAAAAAAAAAAAAAAAAAAAAAAAAAAAAAAAAAAAAAAAAAAAAAAAAAAAAAAAAAAAAAAAAAAAAAAAAAAAAAAAAAAAAAAAAAAAAAAAAAAAAAAAAAAAAAAAAAAAAAAAAAAAAAAAAAAAAAAAAAAAAAAAAAAAAAAAAAAAAAAAAAAAAAAAAAAAAAAAAAAAAAAAAAAAAAAAAAAAAAAAAAAAAAAAAAAAAAAAAAAAAAAAAAAAAAAAAAAAAAAAAAAAAAAAAAAAAAAAAAAAAAAAAAAAAAAAAAAAAAAAAAAAAAAAAAAAAAAAAAAAAAAAAAAAAAAAAAAAAAAAAAAAAAAAAAAAAAAAAAAAAAAAAAAAAAAAAAAAAAAAAAAAAAAAAAAAAAAAAAAAAAAAAAAAAAAAAAAAAAAAAAAAAAAAAAAAAAAAAAAAAAAAAAAAAAAAAAAAAAAAAAAAAAAAAAAAAAHh9xtx8L2mw64zzP72Lj2MUbBPTZ8o1KUpa1EiPDhx2yW/Nny3TJDTLaVLWo/AtCMy+3t3bms7r1izoOgWJ5Gp35UjCP8AO5Sb4RjFcZSbSSPnarq2n6JgXNS1O5G1h21Vyf8AySS4tt8ElxZDfnPrKw49tJj7d7OuTqVl5SI1pll+cWdPZLToeXU1cZxuuUfjqjzUj+69wmLofwcX7mJG5uHWFbzZRq4WLXVGL8nrJyTn8vRD5DAuo9/LUb7hpWA5Y6fCVydHJeXpin0/J1SPCn6zmbF/qXxX+H7f/uD7i+DTRX/rWV7K385879/2fWnu+z/Xl8xw/wCs/m/8y2K/lBb/ALmLv4MtF/bWV7G385b+/wD1D9n2faS+Ypf9aLOP5lcU/KC3/cxf/Bhov7ayvY2/nLX8QOev9Ps/15fMUz9aXNyLX8yuK/lBb/uYuXwXaK/9byvY2/nD+IHUF/p1n2kvmKf/AFqc4/mUxT8oLf8A7gu/gt0X9t5XsrfzlP4gtQ/Z1n2kvmOJ+tXnBf6k8U/KC3/cw/gt0T9t5XsbfzlP4g9QrT3dZ9pL5jgfrW5wX+pLFPyht/3MV/gs0X9t5XsbfzlX8Qeev9Os+0l8x+H612cEWv5ksU/KK3/chVfBXoj/ANbyvY2/nLf4hM/9nWfaS+Y4l62Ob6lrsjiumpa6ZFbkenv0M2j0MVfwVaL4a3lV/wDs2/nH8Qmofs6z7SXzGY3Gb1V9pd7smrsDzzH5O02W3MlmDRS5tq1b4ncz3jbbZgqtji179LOmPudLCH21srMtDfSo0pVh3uZ8K+7NkaZc17QsiOraTZi5XYxg7d+3FVbl6vqmrkYpVk4yUl4QaTa93tDvToe4syGmalaeDnXGowbkpW5yfJdVIuLb4JNNP+lWicqgiyZoAAAAAAAAAAAAAAAAAAAAAAAAAAAAAAAAAAAAAAAAAAAAAAAAAAAAAAAAAAAAAAAAAAAAAAAAAAAAAAAAAAAAAAAAAAAAADWm9Unk6rdTdVGzmK2KnMF2lmSY1sqO6ryt7uEaVR7iQskqJuQxjLRnXsdSdUSPNqSpSHEmNk/wudsltbar3jqttLXNWgnbqvStYnO2l4p3nS7Kj4w9Umk4siR3l3h751r3BhTrpuDJqVHwnf5SfnVtegvJLrpVNEVZqM/b+kJUJGF2ykoxekWrylIz0IzF5YfKY5Tj5soL+9MckeZWRQHIWFNXsP8AR7xTxLVzKRi5CRwX7Psi6PMtKQvBx6lIMloUpC0KJSVJM0qSpJkaVJUWhkojLwMVomqPimWJtSquZttenByj/pH7FQoGR2Bytztr0wcVzQ33FLmXEImFljOWuKcUtx5d1AiqakuKUalz4r6zJKVoI9S/xG9r/wB3G+p39Ot9G2NU6r+NRUjblVeusKlEvVTknBJUVqdtVbUicPajeP3r23G3ly6tYw6W7teclT83d8/XFNSfNzjJ8E0SECPxlAAAAAAAAAAAAAAAAAAAAAAAAAAAAAAAAAAAAAAAAAAAAAAAAAAAAAAAAAAAAAAAAAAAAAAAAAAAAAAAAAAAAAAAAAAAwu528lWeNWxlxc1UxprcPMSkYrt5G6mzfZtZUc/nDJOyszNUbF4DhyOo0LbOWqO0stHdRmbsX21n3K3zZwsqDe3sOl/LfGjtxfo2a/0r8l0Uqn0K5KPGB4DuRu6O0duXMizJLVL9bdheKk1xuU8luPpcmuroi/pGpA7IekOuyH3VvPvuLeeddUpbjrrqjW444tRmpa1rUZmZnqZmNtcLcLcFbtpRhFJJLgklwSS8EiDspdcnKTbk3Vvysp9YuoU4HEz1FxRupRWr3F9n7gvivEtk/AoqPw0F6LUfO4fsIcsUUbqykLi0pK9goi1FMxchLmU1n7C+yL4lpTFwKavZ9kXIsXMyr4YckLDjBvtjGfG5IcxKwWWM7h1jBdZ2GHWshjzzzTPh3J1JIaanxiI0mt6MTZqJDi9cVd5u3GP3O2Lk6ClFavbXrsSb4dGRBPpTfhG4nK1PnSM+qlYo9vsDdl3Z+5LOptv6jL83fivwrUmqunlg0px5VcaVo2bldXaV13WV1zUTY1lU28GJZ1djCeRIhz6+fHblQpsR9s1NvxpUZ1K0LSZkpKiMhpxysbIwsm5h5cJW8u1OUJwkmpRnFuMoyT4pxaaafFNUJ7Wb1rIsxyLElOxOKlGSdVKLVU0/FNOqZ9w4DkAAAAAAAAAAAAAAAAAAAAAAAAAAAAAAAAAAAAAAAAAAAAAAAAAAAAAAAAAAAAAAAAAAAAAAAAAAAAAAAAAAAAAAApPvsRWHpMl5qPGjtOPyJD7iGmWGGUG468864aUNtNNpNSlGZERFqYuhCdyat205XJNJJKrbfBJJcW2+SKSlGEXObSilVt8kl4s1EudXJt/ktvrdXtXLec28xA3sU28iGbiGnKeHIV53ITYWlvol5PPSqSZqQlxMbsMr17JDbd2K7aQ7bbGs4WVBLcOZS/ly4VVyS9GzXj6NmFIcG4ufrJqnWQc7k7ulu3cdzIsyb0qxW3YXg4p8blPLcl6XKvT0xf0TDcnEmMz9LMfVQ60/LqKdLFUcDcM/Z4C5R8pRy8hTM9BfQt5lJStPExekVbpwPnM9T1HIWHE/kFGUfkKJn4iqC4I4C4tKSj1P63gL1yKHAxUo+RTV7ReiiOBiofI2S/SJ5SHnWBWHHXL7E3cq23iLtMFflOqW/bYC9ISiRVJW51G4/iNlJShtPVr5GS0hCSRGUY1vfFx2u9xa9b7iaRbppWpT6MlRXC3lJcJ0XJZEItt0/tYTlJ9VxIll2M3l7y0yW1c6dc3Ej1WW3xlZb4x+W1J0XH6EopKkGTOiGhn4AAAAAAAAAAAAAAAAAAAAAAAAAAAAAAAAAAAAAAAAAAAAAAAAAAAAAAAAAAAAAAAAAAAAAAAAAAAAAAAAAAAAAACJT1X+UydptqmNk8Vseznm78GQ3dLjO6SqPbhLi4ls8vpWlxl3K5CF17RmlSVxkTPYpKDEqvhZ7ZPdW6nvLVLddD0iadtNcLmXTqtrlRqwqXZcU1N2eabMMd5d3e5tF9w4cqalnRalTnCxyk/M7jrBeWPXyaRrNtOEZe3Uv0faGy1ERJVPrSotNBejifHijl1EK0Yoy/vGbZC05CbwYzt7CKQxUOuncZhasEXVTYjWOsqt5iVKStCJUnutxIvUlSTlyWiUXT1GWOu6u/sPtrsrL3NkdMsyMfV41t/3uRNP1cfPFUdy5Rp+rhOnGh6vZW17+7dw2NIt1VhvruyX4FqNOt/K6qMfx5RrwNlpnjFxvYZaYRsJs+pDLTbSFPbdYpJeUltBISbsiRVuyH3TJPxLWpS1H4qMzMzGqmfdfuhcuSuS3FrilJtumdkxXF14RV1JLyJJJLgkkTXhsvZ8IKC0rTaJJccay3w8rcG2/K3xficz4y8cT/1B7Nf7M8N/q0xi396vc/8A3Hrv6/lfpSv3N2f+ydM/VbH6M4q4zccCL/QHs19T/wDGeG/4GD96vdD/AHHrv6/lfpR9zdn/ALJ0z9Vsfoyn/Rn44/zBbM/7MsN/wOH71e5/+49d/X8r9KPuZs/9k6Z+q2P0Z+f0ZuOH8wOzH+zLDf8AAwfvV7of7j139fyv0o+5uz/2Tpn6rY/Rj+jNxw/mB2Y/2ZYZ/gYP3rd0P9x67+v5X6Up9zNnfsnTP1Wx+jMU+ZvCDBdxNh8qa2O23wvCN2MXaPLMOXhmKY3j0jKpVQy8udhNgqHXR25jeSVy3WoZOKQlqzKM4pxLROkv4u4e6HeW9pN1aLunX7OpRXVBrOyH1NcXBqVxr0lwXL0qcaVMj9qdF7SaLvbEub323oefta9L1V+N3DsNW4zaSvxagmnalSUudbfXFRcmqaqzGW3shpLrdj4HqSkqhQUrbWXgptxJwyUhaD8DI/EhGm78THxDWZu3c3huBST+2XfyjbXifCZ8LmdjxycbY+25WpKv/wCHa/m5cweTZCZ6/OP/AKOB+KDj/id+IP8A3juD9cvflHc/hA+GP/Y22/1K18xwVk2Q+BfOP/o4H4oKfxPfEIv/AOx3B+uXvyi5fB/8MT57G23+pWvmLmbMb+bj7H7o4VupiVv0XWG3kS1bjqZjsxrSClRs2tHPVGYZeVW3lY69EkJSpJqZeURGR+I6mb8RfezV7H1HX9y6vqGkynB3MfIyLl2zcUJKaU4SbT4xTT5ppNNNJnDl/B98Ojw79rR9p6Np2p3LFyFvJxsaFq/YlODirlucUmpRrXxT5STTaN6/ZvdfE98trsI3ZwiV5rGs4oYl1BJS21yILzhKZsaef2lKbRZ0lmy9EkoIzJD7KyIzItRnLStSxtY06zqeG6496CkvKvLF+eLrF+dM1Ibx2pq2x90Z209bh0ang35W5c6SS4wuRrRuFyDjcg3zhJMuYPoHmQAAAAAAAAAAAAAAAAAAAAAAAAAAAAAAAAAAAAAAAAAAAAAAAAAAAAAAAAAAAAAAAAAAAAAAAAAAAAAAAAAAA8buHnuMbXYPlW4mZ2LdVi2G0c+/upzhp1bhwGVOqajtqUnzE2W4SWY7RH1vPuIQnVSiIfV0PRdR3FrGNoWk23c1HLvRt24+WUnSrfhFfSlJ8IxTk+CZ09QzsbTMK7qGZLoxbMHOT8yVeHlb5Jc22kuLNJvkBvrknIveHNN28mUtuTk1opVVWG73maDHYZFFoKGKokNpNqsrG20KWSUm871uqLrWoz3GdvtnadsHaWHtfTqO3j2/TnSju3ZelduvnxnNtpVfTGkVwiiCW6tbyty61f1nK4Suy9GPhCC4Qgv+mNOPi6vm2Wxju+BaH9b+qX2B7hUPLSqjs0OnoXj7PtfbHIkn8pwOVGVu4fyfq/1hf0or1M2VvT146nsps8zlORQDj7hbotQb+6Q+2pEqlx0m1u4zjqkOpS5HfRGkqly0GSFlJk9pwj8ugxqv+Jfuct+b2lo+l3OrbWkSnZttOsbt+qV+9VcJLqirdt1acIdcaesZM/tDs97a28s/MjTV85RnOvOFvnbt8eTo+ua4Pql0v6CM/RG8yycTURfX+QAUjMzPUwB+AAAAAADVY9V7i+9sRvknebEK1Te2O+s+dZ2LMdt84eO7oJ6pmU1i1k2uPEaypCzt4SVOEpx5U9pptLMRIjt3N2xHC1D3nYjTEyW3Vco3eck/NP6S48X1USUTaD8JHdu5ru2/unqVzq1jSoRik2q3cT6Nqa41crP9jNpUUVZcm5XGRpMKbkNJeaUSkKL2+OpH70qL3KL3jD04OEumSdSdNi7aybau2XWD/wCKPzg2zM9fu/cHHw852VEdo/0a/cDh5yvSTy+ixyyPD8ytuLeaWfbx3PpMnIdsX5b2jNZm7EYlXOONLcSRNMZVWRSeZSaySU6J0ISbss9c0dpNz/VcuW28uX5i+3K034XEvSh8k0qr8ZUXGRAj41+0XvfRbXdTRLVdR0+MbOaorjPGcvzd505uxOXTJ0b9Vc6pNRsmzeJDGsIAAAAAAAAAAAAAAAAAAAAAAAAAAAAAAAAAAAAAAAAAAAAAAAAAAAAAAAAAAAAAAAAAAAAAAAAAAAAAAAAAAAI+ebtlSbk4rdbCzzU/RX1W43l64ymykMvSWuuobiuONuttT6h3tz21KSsm5KWFadTZkIQ/EN8U+5+z/cnQMHtnleq3DoedY1HLkm+ibjxt4F7pacrN+zKTyrf4du7bSkn1Gbe33azSt4baz7u57XXp2fYnj2k0qxT+lfhVOk4TS9VL8GUZOnI1Acgxq+21zjKds8tJCMixC0cr33UJNEe1gqS3Jqb2Ak1rWmBd1chmU0lRmttDpIXosjIv0qdje7+1u+va3Ru6W0J9WjaxhRvKDac7N1VhfxrlOHrca/G5Yu04ddtuLcWm9XXcXY+q9v8AdebtbVY0ycS849VOE4P0rdyP4tyDjOPj0yVaOqX3RnvZ9X7YzBB+HiY6nE7ppwjIj1/qDmjU604sz59P/joW+u8ca5yCCUnbrbRcHI8mJ9onIlxam8teNYu4lWqXW7KZFW/JQaVIXCiutq6TdQZx/wDiO7n/ALvNjzwtNudO5tVU7FijpK3CiV++vI4RkoQdU1duQkqqMjJ3abZ33p3Er+ZCukYXTcu1XCcq/m7X/c03JcnCMk/pI2aDWX1/0fVGqMmwcTWZ+zw+2AOAAoPyosUiOTJjxyP2G+820R+7wNxSSMAUPnOt1Sn5wg9SvBJebj6q/uS7mpgD7SMjIjIyMjLUjLxIyP2GR+8jAH6AAAsJyb2Cxrkzspm20GSmxFPIK/zGN3rsfzDuK5jW9UrGckjpSaH9K+xSSZLbS21yoLr8c1kh5Q+RrukWNc0u7pt6i64+jKlema4xl/I+dGqxbVeJ7bt3vfUO3m78PdWn9UvUXKXbadFdsy4XbT5r0o/RbTULihOlYo0ocgxvJ9tMvyXBcuq3qjJ8RvbPG8mpn1oWuHa08t2FNbS8ytxh9BPNGbTzalNPNmS0KUhRGcSdU0+9i5FzDyV0ZNqTi/M06P5V/wAnzRuy2fuTD1fS8bXdIuK9pWXZhdg1WkoTSknR8YySfFNJxdYtVTR9zS2n20uNn1JV9fUj96VFr4GQ8/KE4PplzMmWrtu/bVy26xf/ABxKvQXyfqmLfSOQ7agu7bFrymybHrCVUX2PWkC7pbWC8tiZW2tXKam186K8gyU1IiymELQovYpJDlsXr+NehkWJON63JSjJcGpJ1TT8qZ09Q0/C1XAvaXqNuF7T8m1O1ctyVYztzi4zjJeKlFtNeRm8Nwx5K1HKzYHD90ohxo+RmyePbgU8f4U0mc07TCLqOhnqcNmDYpdanwyNSjKHLaJR9ZKIpi7S3Da3LolrUo0WRTpuxX4NyNOpfI+Eo/iyXjU0V96u2WZ2m7g5m1L3VLTa+uxLkv73FuNu22+FZQpK1cdEvWW5tLpaMqh6UxOAAAAAAAAAAAAAAAAAAAAAAAAAAAAAAAAAAAAAAAAAAAAAAAAAAAAAAAAAAAAAAAAAAAAAAAAAAAAAAAAeK3CzOFgOJ2mSS+hbkZrs10VStPPWkglIhRS8SUaVOF1uaeKWkKUXsGPO6ncPTO12xc7eOpdMnj26WbbdHeyJ+jZtLx9KfGbVXG3Gc6NRZ6Hau3sndGuWNHx6pXJVnKlei2uM5v5FwVeDk4rxInLOym3FjOtbF9cmfYyn5syQv752RIcU66s/cWq1H4F4EXgND2ua5qe49Zytf1m672q5l+d67N85TuScpOi4JVfBJJJUSSSJ14WFjadh2sDDioYtmEYQivCMVRL/AN/HmyMf1ENjXcjxWu3zxaKs8l28jeRy1uMhxT9lgbkhx/zykNod63MRnyVyFHohCYEmU44oyZbSNxH/AMQ3xT/cHuFf+HjduT0bU3Ne9dpkpypHH1aMFGVhNtKMdQswUIqrrlWbFu3HqyJtw5+MDtStybah3B0m11atpkOjJUVxuYjbanw4t4825N+FqdyUnS3FEWNLbpmsoMzInOkjUn3GenipB+0yP9MjH6bLVxTVVzNVGTYdqTXge+ooNje2dbS1EORZW1xPh1dXXQ21PSp9lYSG4kGHFZQRrdkS5LqEISXipSiIcmTl42Bi3c7MnG1h2bcp3JydIwhBOUpSfgoxTbfgkdS3ZvZN+GPYg537klGMVxcpSdEkvFttJG2pxX2GruOuzeN4E0mO9kLqPn7OLNjpWmzy6zZYOzNt8kIN6DWNtNwoqulJqjRkKMutSzPT33f7iZPc3fGVuGTktMi/U4sHw6MeDfRVVdJ3G3ducXSc2k6JUnXsTatnaG3bOlqjzH6d6S/CuyS6uPjGKShH8WKfNsyMGLz2IAHe0eNSr4ilPOuwKgz/AAbrXSU2xIj0UqMpaVJiwj0Mid0Nbntb6S6XDAuXW4/S1JEdfWxWHP10k2+9MdP+yemvm5LeV9VazMAdo600+hTTzTbzai0U26hLiFF8ikLI0mQA8VaYLWPpW9TkikmeKiTGR/7Y+r29MmuSaGUks/atntO6+JmovAwLdOsyYsh6HNZONMj9Pea6utBpX1dt9hzRJPRX+k+hehH4GRklSVJIDiAAA19fWU4sEw/T8ssNriJt86nDN5GYzZESXC7VXg2cSCbj6mbie3RzHnHdCNNYhtGqnVDC/dLbtYx3DjR8kL1P5oTf/KDdf6CS5k+Pg77p9E7va/V7nB9d/Bcn8s8iwqv5b8IpfaHJ/RRAzDlLjL6k/E2rTrRr4KL5S+RRe4xgu7bVxUfM2LYeTPGl1R423zXl/wDc9Q06h5BONnqk/wBMj95GXuMh8+UXF0fM9PbuQuwU4OsWclH4afKLTkSJPfSs5Zlxx39jYllVkUTaveV2uxbJnJTyGoOP5ITzjeIZY4t00tsMRZstcOYtS0NohzFvL6jYQRZF7bbn9wa2sXJlTTctqE68oz/An5qN9MvDpk2/ooi38WHaL95Xb6WsaTa692aKp37Cim5XrNE8jHSXFuUYq5bSTbuW4wjT1kmbhIlSaagAAAAAAAAAAAAAAAAAAAAAAAAAAAAAAAAAAAAAAAAAAAAAAAAAAAAAAAAAAAAAAAAAAAAAAAAAAAAAAACOPkfuN9Lcs+jtbI66LFXHo3U2rVqbcn8E+V4ESVojGnsNn8RfCtST0WNRXxi93nvjfH3K0e71bZ0OcoS6W+m9m/RvTfhJWf7C3VOklelFuNwlz2f2j7j0P3zmRpqWdFSVVxhZ5wj5nP6cvM4JqsTHMlF7xDmpl/pKEyHEsYkqBPjR50GdGfhzYcpluRFlxJLSmZMWSw6lbT8d9lZoWhRGlSTMjLQx3tN1LP0fUcfV9JvXMbVMW/C9Zu25OFy1dtSU7dyE40cZwnFSjJNOMkmuKOvk41jLx7mJlwjcxbsJQnCSTjKEk4yjJPg4yTaafBp0Ncff7Z6bx+3fvMKbS/8ARecf0iwGe6pS/M4vYPvExBdfW68t6dQSW3IL5rMnHeyl80pS8jX9nPwRfExgfFD2I0zfU52o7zxUsLV7MaL1WoWIR9ZcjFU6bOVCUMqylWMYXvVdTnanTSt357XX+2G/MnRIRk9EvfnsSbq+rHm30xb8Z2pJ2pt0bcOuiU4krvpN8dV5jks/kTlleZ0ODyX6LAmZLSuzaZm7GT85XzKV/C9GxiulE20rpNPnpRKQonIitK/Fh3P91aJb7daTcpqOfFXMtxfGGMn6Fp05O/NVkqp+rg0043UcHZjZv1vUp7ozo1xcZuNhNfSutelPzq3F0Xh1yqqOBsFDXkSgAA7GprPnixjwFkfl1dT80yPQ/Js9PdQRlof74cWho9DJSUuGovFIAvalKUJShCUoQhJJQhJElKUpLRKUpLQkpSRaERewAcgAAAAeQzGpRMrzsW0kUyrSt4ll7XIXgc1hXvUlLae6kvb1tkReCj1AtcAAA8tnGF41uNh2UYDmNa3cYrmVFZ45kFa4tbXm6q2iOw5aGn2jS/Ekobd6mX2zS6w6lLiFJWlJl18vFsZuNcw8mPVj3YOMl5U1R/J5muKfFH09G1jUNv6tja5pNx2tSxL0Ltqa40nCSlGqfBqqpKLqpKsWmm0aT3InYrJuN+82bbP5P3pDuM2JrortcZUZjKMSsC83jWSRE6rZNNlWuI77bbjqYsxD0dSzcZXpEjcWjX9A1W7p1+r6JejKlOqD4xkvlXOlaOqrVG7XtdvzTe5Oy8LdWnuMXet0u261dm9D0btp+PoyT6W0nKDhcSSmi0cZ9UdWpeKD++T8pfL/AHRe4ednFT4eJk7GvzsSquMHzR3SXEupJaT1I/1PqH8hkOnJNOj5no7c4zgpQdUzlqafiIzIy8SMj0MjL2GRl7D1FC+leD5G4p6WfLT+kpx/iY7lNn5vdXZ5uuxPLVSHVrm3tF2HG8Ry5xTpqXIesIENcWY4a1uLnRHHV9JPoI5V9t9z/eDQ1j5Mq6niJQnXnKNPQn56pdMub6otv6SNMnxW9of3Y9w56lpVro2lrLnkY9F6Nq7VPIx1TkoTkp21RJWrkYRr6uTJNhkMi8AAAAAAAAAAAAAAAAAAAAAAAAAAAAAAAAAAAAAAAAAAAAAAAAAAAAAAAAAAAAAAAAAAAAAAAAAAAAB47cO1l0eC5fbwVKbm1+O20iI6n75mSiG72X0/VYcMl/8AZHgu6Wt522u2uv6/pjcdSw9Iy7tqS/BuQsTcJ/8AZKkv5D7+1cGxqW5cDAyVXGvZdqM15Yua6l/Kqr+UiGUo1GalGalKM1KMz1MzM9TMzPxMzMaApSlOTnNtzbq2+bb5tk+klFUXBI/BaVAqDGHlLxxZ5G4fR01fPraLNcfyCFLxjI7RLnkoMSzlRIOSwLFceNKmHVzaxJPmhpJKVLhxzM+hKiPYD/8AHR8VGX8NHfG3a1WVy5273LGGDqFlSSUbtX9Ry11SjCMrF+btznN9McXIyHRyUKR++IztRZ7obFmsVRjuLTW7+POjbcaL19l0TbVyC6opKru27aqk2TC7TbZYvs3tvh22GGx+xjuG0kWogrUhpEie6jqesLid2SS0uzu7J56ZJWkiJch9ZkREeg2t7r3Lqe8dxZe5dXl1Z+Zec5c6RXKFuNePRbgowgvCMUiKmj6Vi6JplnSsJUx7MFFeVvnKT/GlJuUvO2XEHnj6QAHv8GZQarF8yI3ElHZSfvShZurcL6y1IT+xAFwQAAAAABxWhLiFNrSS0LSpC0qLVKkqIyUkyPwMjIwBYRxHbWtvXXoWpGvy9JmnX3e3QAcAAAENnrJbIYjkmytHvwqZW02d7ZW9Vjba3yZal5pieWW7UNeMNqJvzMyfj9tK+dIaTX248U7E+k1PdScV91NGxsrR46u3GOZjyUePOcJunR53FvrXkXX5SYvwcb71bSN9XNkKNy9omp253GlVxsXrMHJXn4RjchH1M3Ssp+oVaRo9aX2+H6Yjq+HA2n241VfErsPKZVqXik/vk/L9UvkMhxzgprzndsXZWZcOMXzR25OJcSSkHqn7R+8j+QyHTkmnRn27cozj1x5Mks9JHOL7EecW2NTUyXm6zP63NMPyeG34osKgsQucliIdToehQr/HYckle0iZMtdDMe/7YZl/F3jjWrTfq78blua8seiU1/NKMX/IRm+L/QdP1jsTqmZmRTytOu42RYk+cLn1i3YlT/qtXrkKfjLxSNyMSvNLgAAAAAAAAAAAAAAAAAAAAAAAAAAAAAAAAAAAAAAAAAAAAAAAAAAAAAAAAAAAAAAAAAAAAAAAAAAAAHXW9XEvKmzpbBCnINvXzKyYhCuhaos6O5GfJCy1NCzadPQ/cfiPma1pGDuDRsvQdUh6zTc3Gu2Lsa06rV6Erc1XwrGTVfA7WDmX9OzbOoYr6cmxdjcg+dJQkpRdPHikRE5hi9jheS2+MWhayqqWpkniT0NzIqyJ2FPZT1L0ZmxHEOknUzR1dKviSZFoO7lbE1btnvbP2ZrFZX8O81C5SivWZelZvRVWqXLbjJqrcJdUJPqi0T227rmJuTRrGtYXC1ehVxrVwmuE4PlxhJONaKqSkuDR5seHqj7QAHFSSURpPxIy0MVTo6oJ0MxNlczPIKA6Se8SrfHktxzNai7kusMuiHJIjWpa1MkntOKMi8SI/eN03wud3f3p9u7djVLvXu3SOjGy6tuV2PS/q+S23Jt3rcXG5Jusr9q9LpjGUKwz7q7QW19xO/iR6dIzeq5apwUJV/O2lRJJQk1KKSorc4Rq2mXpElTGIAHt8JkpRKmRVHochptxBfKpg16kX1el0z+wALkgAAAAAD55chMSLIkrPRLDS3D195pSZkX11H4ACxBmajNRnqZmZmZ+8z8TP7JgD8AAAasHqtcpVb171p2gxSwN/bjZObMgTFMOK8pkG5akriZBYqJDxtSGMXZNVXGNbaHGpHnjSpTbyDEdO5m5PeWpe68aVcPGbTpylc5SfPio/RXkfV4M2lfCJ2ne1trveurWunXNWhGVuq9K1ifStR5VTvP89OjacPUppSgyLIiGKyaKVOCBnoX1Ra2ckYnNl5TKtS8Un98n5frfIZDjnBSXnOzauytSquXiifb0SeMc3KNw73lPkEVxnGtu2rXDtvTcSbZ22c31ScLJbNkydJSoWNYnauRVkptTT8i1LoWS4jqRmHtFtu5dzZ7kyVSzZUrdrzzkqTkvNGDcfO5eWLIKfHB3Xx8PQMftTpU1LPz3bycyn93j259Vi0+HCV29BXedYxsqq6bsWbOYkIawgAAAAAAAAAAAAAAAAAAAAAAAAAAAAAAAAAAAAAAAAAAAAAAAAAAAAAAAAAAAAAAAAAAAAAAAAAAAAAAxW5P7c/P2PNZzWMdVtjDBt2xNp/CS8cNa3XHVaJM1KpZDinvE0pSw4+o9TJJCFPxn9ofvhs6PcLRrXVuHQ7cvXKK9K7gVcrleFW8WTd+PFKNqWQ+MnFGbOzG7vdOrvbmZKmBmyXq68oZFKL5PWpKD4Nuatrgqkfg1KkrwK1YArVlDvsWySViOQV9/FJS0xnO1PjpPTzda8aSlsHqhfj0l1J0LUlpIZm7D91cntJ3FxNyNyeiXf/HzbceLni3GutpeM7MlC/bScXKdtQclCcq+T3vtezu7bt7SpUWYvzliT4dN6KfTV/0Zpu3J0dIzckupIkDgTotnCiWMF5MiHNjtSozyD1S4y8gltqL5NUq8S9pGN6GJl4ufi2s7CuQvYV63G5buQalCcJxUoTjJcJRlFqUWuDTTRBa/ZvY16eNkRlDItycZRkqOMoukotPimmmmnyZ9Y7BxH0RJTsKSzKZPRxlZLT8h6e1J/KlReBgC89ZZx7SMh9lRdWhE60Z/G0v3kZe3TX2H7wB2IAAAALcZXeIkf+2xFktpKiVJdSfwrWnxS0k/elJ+Jn7zAHhgAAGBXqI8p0cYNg7WZQzm2d0dwil4ftswhxg5cGfJjaW+XlHeS91xsRrnu+lSmnGVTnIrLhEl7UeP3tuJbe0aVy1KmferC15U6cZ/9idf+pxT5mcOwPa653Q37Zwcq25bcwnG/lujo4J+hZqqUd+S6OakrauTjxhQ1BG0qIjNa1uOuKNx11xRrcccWZqW44tRmpa1qMzMzPUzPURTuTdyblJ1bZujxMe3jWI2bSShFJJLhRLwKvsLUcTO5FFMz1FDkSLmbN7T5dvnujg+0eCRCmZVnl/Eo60nCdOLCbcJcizubE2EOvN1FBUx350xxCVqbiR3FEkzLQ/oaTpmTrOpWdMxFW/emoryJc3J+aKTk/MjzG9t3aTsLamdu7W5dOn4NhzaVOqcuVu1CtE53bjjbgqpdUlVpcTfN2O2exHYDabBNnsGjmxjeC0UeojPONtNy7WaanJdzkFkTCUMqtsiuZMidLUhKUHIkL6SSnQimFpWm42j6dZ03EVMezBRXlfi5Pzybcn52zRTvLderb53Rm7s1ufVqWdflclzpFPhC3CtWoWoKNuCfFQikXWH0DzIAAAAAAAAAAAAAAAAAAAAAAAAAAAAAAAAAAAAAAAAAAAAAAAAAAAAAAAAAAAAAAAAAAAAAAAAAAAAAAU3Wmn2nGHm0PMvNradadQlxt1pxJocbcQojStC0GZGRkZGRiy7at3rcrN6MZ2ZxcZRaTUk1Rpp8GmuDT4NF0JztzVyDcZxaaa4NNcmn4NEU+7+3zu3GaT6dpDnzLMI7PHn19ayXVyHFkmIp1almuRWPJUwvqUa1JQlwyInEjRx8RXaa92i7jZGk4sJLbGZXJwZOrXqZyfVZ6m3WePOtp1k5uCt3JU9aicPb7dcN3bdt5txr3la/N31w/tIpenRUpG4qTVFRNygq9DLXDA/Ue4Ar1IDwPwMVqgZJ7DZkf74wiwdM1NE5PoVLNRmcfU1TYJKUpRF2Fn3G0kRF0qV8g2p/BP3f+8e3Lva/W7vVrGlW3cxHJtyuYTklK3V1q8W5NKK6q+ouW4QgoWJMi93t2gsHOhuzBhTFypKF9KlI3kvRnReF2KfU6f2kXKTcriMmhO0wKAB9USbJguk9FdU0sv7Ez0UXyKL2KIwB7OLmy0pIpcTuKItDWyokGr6pkr4S+wAPqVnEXT4YL5n7upxsi+p7NTAHnbLKLCelTSDKMwrwUhrUlKLx++XqavEvdr7QB5oAAB88uVGgxZM2Y+1FiQ2HpUqS+4hpiPHYbU68+864aUNtNNoNSlGZERFqYpKUYRc5NKKVW3ySXiX27c7s42rScrkmkklVtvgkkuLbfBI01+cXJuZyp3+yDMYUp9W3eLd7Edr4Czkts/RuBJcN/Ilw3ya7Njlk7qluKU028mMcdhzqOOkxFTe+45bg1md6239St+hbX4qf0qeWb4vhWlE+RuY+HbtVDtjsSziZcIrcOXS/ly4N+slFdNrqVawsRpBek4ufrLkaesZiJ4EQ8USES/nOBnqKHIlQ/SIUL0qfKbQHon8RfobhNtyqzerNvJdw4srG9rY81laXqrAY8tKbvJm2nVF2pOY28ImY6zaS4muhdxpxTE9RHIPtTtr6nhS3Dlxpk5C6bSf4NpPjL5ZtcPxYpp0kawPjP7te/twWu2Oi3a6Vpk1cy3F8LmW4+jbbXNY8JPqVaetuSjJKVpE9ozAQYAAAAAAAAAAAAAAAAAAAAAAAAAAAAAAAAAAAAAAAAAAAAAAAAAAAAAAAAAAAAAAAAAAAAAAAAAAAAAAAAAAspvttz+cHCnygME7kmP921ojSlJvSTS2Xn6hKjLq6bSO2RIT1JScltk1H0pMR7+JXtFDu325vYmBbUt2ad1ZODKi6pTjH85j1f4OTBdCVYx9dGzOTpAyJ2z3c9p7ihPJk1pGTS3f50im/Qu08tuTq3Rvoc0lWRF6NIMoyhJwmmpp0afBprmmTX58VyAtAAFeHNl1c6FbV7nan1kluZEc0JRJdaPXpUSiURocSZpUWnikzHrtiby1ft/u7A3joclHUsDIVyKdemcaONy1OnHovWpTtTo0+icqNOjPm6xpOHr2lZGjZ6riZFtxl5U+DjJeHVCSjONeHVFcGSB4lkkPLcfrr2EZEiYyXfZ6kqXFlt/BKiu9JmROMOkZfW0P3jfhs3dmj762tg7v0GfXpWfjxuwrRyi3VTtT6W0rlm4pWrqTajchJVdKkC9c0fM2/q2Ro2eqZWPccXzpJc4zjVJ9M4tTi2k3GSdD0Y9MfKAAAAAAAAAAIcvV35T/AJttsInHvEbEm843ir31ZYqO42cii2vS6uJYoeSTxOsOZtLbXXtdTa23YTM4tULS2Z4v7m7kWm6b7nx5f+Xkx9KnONrk/wCu6x+RS8xL34R+1Mt37ve9dVtt6FpFxO1VPpuZlFKFOFGseLV2XFNXJWHxTkjWfQlLSCSXsItCEb5Sq6s2v2ratxUY+B+GeotOdKh+kQoXpU+Uy04UcYrfllyDw7aqKUqNjXcVku411FNKHKHb+kfjKvZLLqkuEzY2jkhitgr6HEonTmVLSbSXDL0m0dv3Ny63awFVYq9O7LyW48/5ZOkY+d15JmI++Hc7F7T9vsvcjcXq816jDtvj15NxPoqvGFtKV25xVYQcU+qSrvSUNFT4vR02NY7Ww6XH8eqq+jo6euYRGr6qnqYjMCsrYMZsibjw4MKOhppCSIkoSRF7BLu1at2LUbNmKjahFRilwSSVEkvIlwRo+zMzK1DLu5+dcndzb9yVy5OTblOc5OU5yb4uUpNtt826najkOsAAAAAAAAAAAAAAAAAAAAAAAAAAAAAAAAAAAAAAAAAAAAAAAAAAAAAAAAAAAAAAAAAAAAAAAAAAAAAAAAAAAEb3JDbk8Qy48irmDRQZc6/MIkJV2oF7r3bOGZkRpbRMNXmmSMy6jW6lKSS0NQ3xk9oPuPvhb40a047Z125Kc+lPps530r0HwolkL/yLdXVz9fGMVC2iXfZ7d613Qvc2ZKuqYEVFV5zscrcvK3D+zlw4JW225TZjmIaGYAAAAvLspmR0GQHjs1001WROJKKa1LNuJcJT0tdJESkoRPQRIUZ9JdaUif3wR93/AHNrd3tTrl2mmajJ3sGUnwt5Sj+csptcI5NuPVFOSSvWlCEXcyGzBXezaHvDTYbqwYVzMRKF9JcZWW/Rn53ak+NFXom3JqNtGZA2jEWQAAAAAAAA8RuVuHi+0+BZbuRmlgisxfDKOffXEtRdbnloLCnSjxWCPuS58xwksx2EauPvLShBGpREfUzs3H07DuZ2U+nHtQcpPzLwXlb5JeL4H2Nv6Fqe59bxdvaNbd3U8y/G1bj5ZSdKt8oxiqynJ8IxTk6JM0nN8N5Mo5A7tZtvBl6lItMvtXJMOt7/AJiPj1BHSmLQY7CcJphC41PVMtMm4TbZvukt5ZdxxZnEPcGs5Guand1DIfpXJVSrVRjyjFeaKovPz5s3i9r9g6Z262dhbY01J28e0lOdKO7dl6V27JVfG5NuVKvpVIJ9MUWq9o+IZGOREKF6VPlKpESS1P65mfsIhY3XgivBKr5G5J6UvEdXGrj5GyrLKtULdrepusy7LGpbLrU/HcbQw65hWGPNPoadiya+vnOTZzS20PNWE91hw1pjNGUp+3e2fu/oiu5EaallUncrziqehD/tTq1/Sk14I03fFF3a/eZ3BnhaZd69qaQ54+NR1jdnVevyFSqauTioW2m07VuElRzkSiD35GkAAAAAAAAAAAAAAAAAAAAAAAAAAAAAAAAAAAAAAAAAAAAAAAAAAAAAAAAAAAAAAAAAAAAAAAAAAAAAAAAAAAAA8PuLhMLcHEbbGZZoadlNd6smLR1nX20YjcgTS0+PoQ78DpJNKnGFrRqRKMY87qdvNL7pbFz9map0x+s2q2brVXYyIelZvLk/Qml1pNOdtzttpTZ6Pam4sna2vWNZxqtW5UuQTp6y3LhOD8OK4xbT6ZqMqViiJWxgTKiwnVVkwuJYVsuRBmxnNDUxKiurYfaNSTNCuhxBkSkmaVF4kZkZGNCmvaJqe2taytva1adnVsLInZuwf4Ny3Jxkqrg1VVjJVUlSSbTTJ34WXj6jh2s/Dkp4l63GcJLxjJVTpzXB8U+K5PifHqXyl+mPknaoxqXyl+mAozgvxIjSs0LSpK23EGZLbcQZKQtCi8UrQoiMj+Uh3NP1DM0rPs6np12dnPx7sLtq5BuM4XLclKE4yXFSjJKUWuKaqiy5Zt37U7F+MZ2LkXGUZKsZRkqSi0+aabTXimdpknI3fOgcQcKPg82rMkttSpNJdLlJUkunomqZyVho3V6a9aUJSo/cR+AnVpPxxdyMqyreRiaL9biuP5nIXV+MkspLj4pJJeCoYbvdjdnKTlG5qCg3yV21w83Gy3/O2eV/pa76/wDkdvv4Dvv86h9b+NPuP9i0T2OT/mjh/chs7/F1H2tr9AP6Wu+v/kdvv4Dvv86w/jS7kfY9E9jk/wCbH7kNnf4uo+0tfoCmfLjfUiMzgbffwHff51C7+NHuR9j0T2OT/my79x2zv8bUfaWv0B86+X++qS8K/b37NFfH9rLRcvjP7j/Y9E9jk/5s5I9i9nP++1H2lr9Ada9zL34b10r9uvD/AOhZB/nb4EORfGb3Gf8A+novscj/ADZzR7D7Nf8Afal7W1/lyLLnvzb3V3mrmti7WRjcHGay0rr3LU4vCtq9y4tIaFv1dHYuS72yZlVtat5uWtro084hlWpKYGWdI7q7139taGRuW1h41m/PrtwsW7kHK2uEZXPWXbjak6yikkunonWXUqSk+H/4fdtbSzfv3bWRczZQnax/XShNQi3S5dgo24NSlR21Ktej1ipSZGCRaFoQ6hMNKiojmRChyJU+UqpTp4n7ftCxupcSh+lRxHLktyEiZRldWUzaXZZ2sy/LUSmUOwMiyM5DrmFYY626rokx7CwguTZzam3mXIEB2O6SfNNGeRO222ffutLMyY107EanKvKU/wACHnVV1S5qio/pIix8V3dr93ewZaHpN3o3VrUZ2bTi6Ss2KJZF9U4p9Mlatuqkp3OuLfq2bkolEafgAAAAAAAAAAAAAAAAAAAAAAAAAAAAAAAAAAAAAAAAAAAAAAAAAAAAAAAAAAAAAAAAAAAAAAAAAAAAAAAAAAAAAAAAwb5VbcdiRG3JqmPwUo41XlCW0+DclKUx6m2Xog9CkNpTEdUpRESkMEkjNajGtv44+0NHZ7waJa4P1eNqKivHhDGyZUXjwxrkm/syiuMmST7H7v6oT2fmy9KPVcxm/J9K7aXHw43YpLk7rbokjDAa3iRgAAAU3mWn2lsvIS604k0LbWWqVJP2kZfo0F0JytyU4NqS5MNV4Mtnb4ycF03GCNcRZ/Aoy1U0Z/8AhuH7/qH7/rj0WLqXro0nwur/AJ+dFqtQfgdGdfp4dJfZIdv6z5y9WInyPQy9nSXh/alp90XrJ8jOSONE6eRG+oRa+BeHs9v1dRyq/JnYjjpcix29mfQtrMEtsmf7S7A0/N9BDcMi89dy0OFDbNHUk1sxyQp94i8ey0rTxMh77t7tm5vDcdrTnX6hD85fkvC1FqqT8JTbVuLVWnLro1Fnqtp7avbi1m1p1uqst9VyS/BtqnU/Hi/oxrwcmkQmzpsuzmy7Ge+5KnT5L8yZJePqdkSpTqnpD7ivDVbrqzUf1TE67du3Ztxs2YxhahFKMUkkklRJJcEkuCS4JEx8fHs4liGLjRUMe3BRjFclGKokvkSofORC47KVPlKqU6eJ+37QsbqXHbUdJb5LdU+N4/XS7i/yG1rqOjqK9pUifa3FvMZr6usgsJ+J+ZPnSG2mkF4rWsiL2jkx7F7KvwxseLnfuSUYxXNybokvlZ0tS1HC0jT7+q6lcjZ0/Gszu3bknSMLduLlOUn4KMU2zef4T8YqjiXx8w/auMUWTk621ZNuRdxdFIvdwLtiMd5Iae7MdT9dVNR2a2AtTaHFQILJuF3DWZzA2roFnbei2tNhR3kuq5JfhXJU6n8i4Rj+Kl4mjXvH3Jze6u/szdeR1RwZS9Vi23/dYtttWo0q6SlV3blG1625OnChlmPRGLgAAAAAAAAAAAAAAAAAAAAAAAAAAAAAAAAAAAAAAAAAAAAAAAAAAAAAAAAAAAAAAAAAAAAAAAAAAAAAAAAAAAAAAAA6q8pa7IqeyorZgpNbbQ34MxnXpUpmQg0GptZfE0+0ZkptZfEhZEotDIh8jcGhaXufRMvbut2le0nNx52bsHw6oXIuMqNcYySdYyVJRklKLTSZ3dO1DK0rPs6lgy6MuxcjOD8kouqqvFPk0+DVU+DIi82xKxwbKLjF7MjU/WSlIZk9HQ3PgukT0CwZLqWkkS4q0rNJKV21mpBn1JMaEu6Xb3VO12+c/Zmq9UpYt2tq61RX8efpWb0ea9ODXUk2oXFO231QZPTbOv4m59Dx9axKKF6HpRrVwuLhOD5fRlVJtLqjSSVJI8qMfH3gAAA4OIQtCkOJJaFF0qSotSUR+4xWLadY8GVXPgeLsazypmtsiUys/hM/agz/AFq/D9I/ePp2b/WqS+kdu2+rh4nnH29CPwL5T8f65DtxmdqMDoJaS8fDT6+h+H6umo7MJnahBELvKrdr85G4L1VUyu7imHOSKqsNpZnHsLIlki3ty0+FxLj7RMsqLVJstEtJ/hFazt7U7Ne0dsxeXHp1nM6bt+vOHD83adUmvVxb6k+KuTuJNxoSf7b7ZWh6MszIjTUctKUq84w/Ah/Kn1S5OrSarExgIhk0yQlT5SqlOnift+0LG6lxyFoJ6PRR4j/TLN7blTm1Wa8a27kysb2tYmMqJm3z2TDJF5kzSHFpTIiYfTzSjx1m24yuxmmttaH68yLNPabbP1jJluTLj+ZtNws18Z09KfyRT6V4dTfjEgN8andr3bpdrtVot2mbmRjeznF8YWE62rDpyd6cfWTVU1bhFNOF42fhn81oAAAAAAAAAAAAAAAAAAAAAAAAAAAAAAAAAAAAAAAAAAAAAAAAAAAAAAAAAAAAAAAAAAAAAAAAAAAAAAAAAAAAAAAAAAAAY38hdoZW4FVEv8cjtu5XQtOMlF6mml3dQtSnlQEvOGhJTIb6lORutaUH3HUH4rSpMS/iq7B5PdvQLGvbXhB750yMlCL6Y/WseTcpY7m6JThOtyw5SUE5XYOnreuOXO1O/rW08+5purSktDymm5cX6m6uCuUVfRlGkblF1cISX0KOOCWy/Xy34Fiw/XT4q+3JgT2XYU2M4XibciJKQ1IYXp7lJIxqA1XR9W0LPuaVrWLkYmp2ZUnavW527kHzpKE0pRdOPFcuJL7GyMfNsRysO5C9izVYzhJThJeWMotpr5GfP3Wv2xv9mn7o+dR+Q5+mXkY7rX7Y3+zT90KPyDpl5GcFPNftrehf26fui5RfkLlGXkZ18h5laVJUttSDLpMjWkyMv0/eY5YxadeJyxjJeDqeGtG246jUh1s2lH4H1lqn+1PQz+wfvH0LLc+a4n0rDlNUp6SMLeW28je2uAO1NXObayzM0SamqNp5JP19d20ouLcjSpK21sR3iZZUWiifeSote2oZ07KbIluPcPvfNtuWkafKM3VOly9ztQ5qqi16yf0lSMYTVLiMj7A29DWtZjcy0vd2PSc60pJ19CHHn1NVkvGKlxTaIYyda/bW/wBmn7omv0y8jJQK9YX4cK/KiqlxovE3W9f7tPh+qLGpPwZd6+x/Th/Ojl3mv21v9mn7op0y8jHr7H9OH86Mo+LXEbeTlxm8DFtscdm/R5E5pnLNyZ0CV9B8Kgktk5ki0t9Gok23bjvEuPVMOnPln96hLROPN+l25tPVtyZcbOJblHGr6d2SfRBePHxlTlFcX8lWsT90+9Oye1Wi3M7Wcm1d1ZwbsYlucXfvS49KUVVwt1Xp3ZLoj55OMXu97N7T4hsXtdhG0eBwzh4tglDFpK0nEslLnOINciyurJUdphl64v7V9+dNdShBOy5Di9C6tBLPTNOxtJwLWm4a6cazBRXn8rfnk6yb8W2zSruzc+rb03Jm7q1yfrNVzr8rs3xoq8IwjVtqFuKjbtxq+mEYx8C5g7x54AAAAAAAAAAAAAAAAAAAAAAAAAAAAAAAAAAAAAAAAAAAAAAAAAAAAAAAAAAAAAAAAAAAAAAAAAAAAAAAAAAAAAAAAAAAAAPgmVdZY9HzhXQJ/QWiPOQ48roI/aSO+2vpI9fcOplafgZ1Fm2LN5R5dcIzp8nUnQ57OTk49fUXJwrz6ZNf+jR8H0Vxf+LdD/A9f+Ljp/d/QPsOH7G3+Sc3vLUftF/+vL5z8+iuL/xboP4HrvxcPu/oH2HD9jb/ACR7y1H7Rf8A68vnH0Uxb+LVB/A9d+LCn3e0D7Dh+xt/klfeepfaL/tJfOcTxLFD9uM48f16Wt/Fg+72gfYcP2Nv8ke9NT+0X/aT+c4nh2In7cVxw/r0dYf/AMqH3d2/9hw/Y2/yS73tqn2nI9pP5z4X9u9v5TiXpOC4dIeSnoS6/jFI64lBGaiQlxyCpRJJSjPTXTUx2bGlaXjRcMbGx7cG6tRtwim/LRJHJDXNbtrpt5mVFea7cX/1HD82+3f8QsL/ACWo/wARHN9Sw/8ACtf1Y/MX/eDXvtuX7a5+UPzb7d/xCwv8lqP8RD6lh/4Vr+rH5h94Ne+25ftrn5Q/Nvt3/ELC/wAlqP8AEQ+pYf8AhWv6sfmHv/XvtuX7a5+Ueujxo8NhqNEYZixmEE2zHjtIYYZbT7ENNNpS22gvcRERDsRjGK6YpKK8EfLuXJ3Zu5dk5XG6tt1bfnb4srCpYAAAAAAAAAAAAAAAAAAAAAAAAAAAAAAAAAAAAAAAAAAAAAAAAAAAAAAAAAAAAAAAAAAAAAAAAAAAAAAAAAAAAAAAAAAAAAAAAAAAAAAAAAAAAAAAAAAAAAAAAAAAAAAAAAAAAAAAAAAAAAAAAAAAAAAAAAAAAAAAAAAAAAAAAAAAAAAAAAAAAAAAAAAAAAAAAAAAAAAAAAAAAAAAAAAAAAAAAAAAAAAAAAAAAAAAAAAAAAAAAAAAAAAAAAAAAAAAAAAAAAAAAAAAAAAAAAAAAAAAAAAAAAAAAAAAAAFGTJjw478yY+zFiRWXZMqVJdQxHjR2EKdffffdUlplllpJqWtRklKSMzPQARQb2+sfxT2qupmN4iWVb0W0B1xiVYYJHrWMNakMq6XGG8qup0NNoWv3r9dGmxFl968YAspjPrs7ITrFmPluzG52O1zrqW12NPZYzk7kdK1EnvvQZEnHFm02R9SybW4vpI+lKj0IwJcNk9/NpOROHtZzs/mlXmNCbiY03yhvRrWknqR3DrL+lnNxrWlsCR8RNyGkdxGi2zW2pKzAvAAAAAAAAAAAAAA+OwnM1kCdZSevy9fDkzpHbSS3OzEZW+720maSUvobPQtS1MAYe8Xed2x3Ly7yug2mbzVE/DauBcXB5Vj8WmYOJZS3YUfyjke3sjfd7zJ9STJJEXjqYAzOAAAAAAHR5Dk+NYjWuXOWZDR4xTsqJL1rkNtApa1pSiMyS5OspEaKhRkkzIjWXgQA8Piu+myWdWKafCN4tq8xt1mZIq8V3CxLIbFRlrqSYNRbzJKjLQ/Yn3AC6gA6usvKW6S8umt6u2RHUhL6qywiT0sKcJRoS8qK66TalkkzIlaa6GAO0AAAAAAAAAAAHVx7yllz5FVFuKuTaRSWqVWx7CI9PjJaUhDipENt5Uhkm1uJJRqSWhqIj9pAD7332IrD0qU81GjRmnH5Eh9xDLDDDKDceeeecNLbTTTaTUpSjIkkWp+AA8z9PMH/AI54p+UVR+OAD0EKfAs46ZdbNiWEVZmSJMKSzLjrMtDMkvMLcbUZEfuMAfNZ3lLSkyq5t6upTIUtMdVnYRIBPqbJJuJZOU60TqkEstSTrpqXygDtAAAAAAAAHT3GQ0GPNMv395T0bMhzssPXFnCrGn3fD8Ey5NfYQ458RfCkzPxAHaMvMyGmn47rb7DzaHWXmVpdadacSS23GnEGpDja0mRkZGZGR+AAqAAAAAAAAAAAAAAAAAAAAAAAAAAAAAAAAAAAAAAAAAAAAAADXO9XblbnWY7k0vCHZp+wcVOexyLuLFo3VIs8xy3LlQ3cT26QtpaDVWMxJ8WTJa6uiVJltNuEko6iWBmpxI9KHYHZTFKe13gxTH95t2pcRiVfy8rht3eEUE11CXHqXGcVnoVTzokFeiDnT478mQ4g3EFHQvsJAyz3E4P8St0KGTQZNsBthHZfZWyzaYtidRhmRwDNJkhyvyHFYtRbxjaXookd02VGWi0KTqRgeT4ecFtpeGcDMCwWXd5LkeaWTq7PLMmXGO1bxyJMkPY9i8dmC3HgMxapl7WQ8hpDk6UanVkhsmWGAM1gB87kqK081Hdkx25D+vYYcebQ89p7e00pRLc009xGAPoAAAfP5qL5jynmY/m+jueW7zfmO3+2dnq7nR9XTQAfQAAAoNSYz63m2JDDzkdfbkIadbcWw4Zak28lCjNpenuVoYA6PMf8Ucp/k5d/3slADW99Bz/ShyA/kFiP+UM8AbMa1obQpbikoQhJqWtaiShCUlqpSlGZElKSLUzP2ADgy+xJaQ/HeakMuFq28y4h1pZamWqHEGpCi1L3GAKoAwy5z8uqTh3srMztyHFvM4yCYrGtt8YlOLRGtMjdjOSHLC1Jhbcosfx+I2ciWbZoU6rtR0uNrfQ4kCKDZP06N6+cDNdyK5wbwZ1BiZhHTcYjglOuGxkLGOWJJlQJDSLOHNxvb6mmsGh2PXRK111xlwnHTZdMyUBkFnnofcdLKkd/NnuBungmXxmu5U21vZ02V0hTWyJbDtlVIpaOzWXdSR9UWfGNHtIlaEQAyw4Abecvdr9v8rwzlVl9TlrGP5I5T7YTPnJ3I8pexuuOQxIsrTJluk9Ox+zUTTlUxOb+dI7XcTINtHZYbAj89Bf/ABH5Hfyr28/vRlAAn9AAAAAAAAAAAGvzw6//ALG8wP5O7r/5e7agCXzl/wD8JfKL/l13s/3aZMANef0/fTK2n5dbEzN1c1z7cTGriNn2QYmiuxZWNJrFQqitoJrElRW1HYyvNOuWyyXo50aJToRHrqB7jkdw13d9MeDT8mOL+9uWWOKVWQVFVnGP3rTMdSGrGSUesXkkKsdj4/mOK2k5SIbzL0Rh+I+8yto1KV3WAPs9WDduBvxxz4K7wVsP5uYz9GZ3z9Z3DeKqtHazCWLqqS+aUnIbrLhh+OlwyT3EtkrQtdCA2XgAAAARY7Y8yN3Mu9SHdbilaxsPTthhdHcWNO/EpprOUqkQaPE7Fkplsu3dhvNnIunuokxUGaSSWpaGZgScX9s3QUV1evNKfZpamytnWUKJK3m66G9MW0hRkZJU4lkyI9D0MwBrF8P+Kr/qi3+83ILkzupn6fm/KWseparDp1XGehSpkM7pUCC9kdTkdfT4pQQZkdiJBjRUm4alKU4k0mbgGyttxgOPbWYBhm22Jx1RcbwXGabFqVpw0KfOBSQGIDL8txtDaX50ome6+50kbry1LPxUYA9oAAAAAAAAAAAAAAAAAAAAAAAAAAAAAAAAAAAAAAAAAAAAAANVDZRtm+9bK8LNOlwo/IfftyAmaeqTexyj3DXgvSbhHophVZAVH/tkIJPuAG1eAICuT/qZ8yNnt/dz9ssA2LwfJcNw7IjqsfvbLbzdO1nWUHyEKT5iTY0uaV9VLc70haephltGhEWmpGYAxpu/Wl5p40UZWR7I7OY+mYbqYirvA916opRsE2b5Rjn7kME+bJOo6+nXp6i19pADKD1A/Ub3IwjaXYnb/aV1OM7xb67R4Tubml7QMvOzsNps0qYyoVFhrby5siLeXtt5ttt9SnJcKKwg2jN59t9oDHzF/RT5Abj4qncPdLfirxzdW+it3K8bvKu9zWwZnSGykMRcszpV/HkxrdpaiKSqNFskNOEfQ47pqYHe8JOV3IXinyhjcKeUtzaX2PWmRwMHppN9av3svDcjvER/oVZY1kU0zm2OB5b5yK0iO8om4qJLbzaY6m5DLoFzPU25r7zWW9FVwq4w2FzU5NOkY9S5ndYrJODld7lOYNRJNNg9DdNOsuUNbGrrGM9YS2nWXVuPmytxllh8ngLQK9D3fVGLfTJvkDiyt4CZ+d/o+VVkSK87rp75sJ3M+dfnXzpu/CUk6ck9zx6iT8QAvP6YXNneNveC34Xcm7C4tssrHcjqsLu8qkHMy2nybC25b+Q4HkNs6467exjrq2VIhS3nXXm1xlMk4808wTIFqObPKfkDy45QyOFPF65saPGKvIrDCrmTS2kmiczLIaFEg81tcpyCD++4WBYmqFJa8sya25SYy31pkLcjMtAfDd+kXye4442verYjkC1c7rYbBcv5ON4nT3WJWkxuA35ywrscu1XVm1lbzyGlEUGdChs2CNWlJUayaUB0/o65vmOW7i8lfpPlOQ36PzH2U1DFxcWFhHZlPXsbuPR40uQ6zHWZLMvgSnRJ6ewAdb6KWYUe3t7ysz3JpJw8cwrZ6tyu+lJSS1x6fHp1xbWTrbZqQTjiIcRZpTqXUrQveAPF43Wcr/WD3hzN+Rm7m32yuISo7zlZIkWMrCcHrrF+UWPU1djMB+A3mmcTY8Nx6RKkLZNRNLUp6O15aOYFvNwYmdelxvLjT+xHK7EN3TdkvLzTCsfdfhxUHXuxilY/udgsS/yalYbtI7ykRnUz/nOOaFuITGWTTiwNqzYzd3Ht+todvt4MWQ4zS57jkO7ahPOJefqppm5EuKSS8hKG3pdHcxpEN1aSJCnGFGnwMgBB/wCp/Gb3M9QrhJslk374waf+bx+bXvGZxpDe4W8M3HsojkhXwd2xqMPisn8vw6gDYVSlKEpQhKUIQkkoQkiSlKUlolKUloSUpItCIvYAOQAADXU9FbN6DbTY3l9uJlUhcXG8HdxfK7x9tJOPIq6DFsws5pR2jUjvynGIxpabIyNxw0pLxMgB5DbHAOVHq4ZLmW5mebtXWzPHCiyCTQ45iOPnOmVz8lhtmWVJU0LNhTQLywra+WyqxvbFTijkPk3HaNslMRgPq3q4qcn/AEx6uJyC45b85HnW2VBZ1jWe4XfxZMeDEhT5rECM9kWMN2k7H8kx6dMfRFdlsohWFe5JQpnT4pDQGQ/qAcnJu7PpubVb/wC1l9keCyc53Dwwpv0dv7GptaexjV2cVeU405aVT8GVJi12RVLzOp9CZCWUO9BakRASpcWp8+14ycc7S0my7KzstiNop9jYz5L0yfPnzNv8ekS5s2XIW5IlS5UhxTjjjilLWtRqUZmZmAIpeVee5zU+rhxSw+qzTLKzErfGNu3bXFq/IriFjlm7Jy3cpmQ5YUkaY3WTXJDUVpKzcaUa0tpI9SSWgHPn3yV353X5H41wD4pXcnFsktGoCtzM0rZ8mosI67Oo+kj1V8/wUuTqDGcexJaLCzfiazJa3SiIL4FsyQOiY9HjdPbap+nWzPL/ADWu30rWfnRie5Xz8dx+/uG095VZJsoGST7eFCmOl21uykWLbqNSdjmhaiIDH/0s8mz3MPUe3xyHdSA3V7lzNr9xGM+gtxG4HYy+rznbepyEnYTK1x4kly0gurebaMmUOqUTZJR0pICeHl//AMJfKL/l13s/3aZMAIDvTl9SLYDijx+m7X7mVW5U3I5G4eR5U29iWO0dpVlW21XjsOKhUmxymmkFLS7VO9aeyaSSadFHqZEB33LznhdeoZTUnFLiXtPuBZs5ff01jllpkkCsiWMyNSzmptfF8nUWl3W0GMQrVDE2baTpjKWyjJSaEI6lKA+H1T9oW9hOM3A3Z9M1uyfwNnNKaysWCWmNYXZ12Fzb+dEQ6lLrcOZdy5DjKVl1JaUkj8SMAS78/wCi5kZXtfT4rxAcra6yvbZyJn9/HyePjGcVlCvyrMNGJTp6Y0SHHdcfedsJbEtqzZajoRFQ4brnSBGiXpIyGYi52Pc5ZLvJJhhU1JtWBxmHcjSg3fm3z0TL3c6iNnLI2/nA0OPERd04mv4IgLn8Nt2N8+ZPH3khxC3P3IusG342tm02OMbtNJky8qj1jWTuszWrVdRb0kq0vsfs8SkQJE1MxlyVHmtKcU64l5x0CNXbzh3ufk/PvcvjdX8k8qos6xSntZ1jvbHh5Cq/yBmHT4zOdiSYzGbxLhCJLNs20fctHi0jp1Iy0JIEtu73p6b12PHbbTCmOZOcwrXZao3mt8qyhuuy05e58bL7GHkVZXW6EbltSWGscg1bkJo5L89JtyDNCW06oUBFh6ePCrdbk5txnWU4Bygy7Ymvx7NkUE2gx2FkkqNczVUVbYlbvrpc8xNhL6WJaWdFsur6Wy+PTRJAZ7cy+Q3IfP8AfPAvTs4r5XNqMrhUGPVW6u5sObLqLWTO+jMa4sSXkMZU2yxzHqXGyRYWciK4uwkyX/KIM1IU1JA62y9FvOqCjXlu3vLbMkb3RGDsY9zLrrTH6qzum0m6iMm/qsnmZRRpXIPQppqmrT98bPjoQF//AEyOYu6G6dtuRxh5HG+vfPZbzp/PE9DDdzf0dJcN41fwsi8tpFl3+K3T8ZpU1vX5wjykOL6nG3H3wIr+LlnzQ5Jbl78cd9rN58sxfH8jyor/AHD3KvMnyWym4RhmLXWVVbFBjT6rBU6CrKZuRtpXEgOxHpqYKELebityDAEiOR8Pcg4NcKuYl5F32zDcXMcsxWkl12VJYuMNlYxGprJhKm6phvMMkeZsbCZavLfltyG3HG0NIMvgM1AYocPePfJr1AtjqWNupyHznB9gdu5d/i2PQa2TZXOSbn5JLv7PKLy7yeXZ3DJWkWhVkTVfFkTFS222oxR47DSm33XALV53Z8p/So3+e2i2w3Kn7m4zudhRP4JV3kOXKqZUzJpFnjlLYMYjIsbKvrM3xfKYRGk2FqZnsk2l5JtPmy2Bl/fekFvVuBiD+5G4XK7L7vknLrV3xNTkzrHGYGRmycxnGGckcv0W0eK1KIo6Z0VpmPGLRTUQ20JSoDIH0fuTG4m921G4u3W6txaZJmGx9/Q1rORXj70u9mYzlUe6KprrufIU5Js7Oms8XntHIdWp1UdTSFmZo6lAS/AAAAAAAAAAAAAAAAAAAAAAAAAAAAAAAAANYz1UNktwONnKTEuau1sd5mkyLI8ZyGVaMR1vQcX3UxdERvydyy2aU/NGaV9W2+XWokynjmtK6SNBLAmr4mc39leWmIVVhimRVlHuEmE0eVbW29jGYyqjs22knOOuivqYeyLH+7qpiwioW2ppSSeJl7rZQBlNleX4pgtFOyfNckosSxysaU/Y3uR2sGmqYTSEmo1yJ9g/HjNeCT0I1amfgWpgDVk5n7xyvUx5ebU7L7CszrTBsZkS8UxvIHoUlpuYu7nQ5m4W5EiI8hmTAxitqKaOptLyUvrjwDc6SW+llIHbepTjzPHvnxsNn9lTy5e2lDRbGXdFG7ffZlY/tNeQ6u5xthayQy7NYiUSFuNaloma2o9CcIAbQeI5hi2e4vSZrhl9WZJimR1zFtSX1TKblV1hXyUdbb7L6D0Lp8UrQrpW0tKkLJKkmRAauPMHKqPk76p22lFs1Jj5CVNlG0237+Q0a0y4E+0xbInb7K72NMimZSoGLQ5bzT8hBmjorHFoUpskqMD6dyL6v40esq7n+7BHCxCRua3k/wA9z0K8hHxncfCpFJWZITpp+OtxSddH31oJRtKrnUkRqRoANpRV7SJpTyRVxVJx1Nb88nfqsIhUpU5RvOHanam95Eq0of4Xv9ztdv4urp8QBq27O3kLkn6yCtxdqkKl4bH3Hu8tVdQ2lphPYrg2GqoJOSLMkpW1AyyxgtEypZJUtdk0SyJSjIgPn4U5RScY/VE3NxveaVGx567u91tuI2QXq0xIEO8yLKIV/jFy/MlGlMaHlcOubZjSFGSFJs2zUZIUpRAbPm4O4OH7WYVke4eeXkLHsSxSqk3FzbTnkNNMxozZrS0wlSkqlTpjnSzGjt9Tsh9aG20qWpJGBrWej1ax7zejlrdxIaa+LcbQ5FaxoCOnogx7DK25bMNPQRJ6YzbxILTw0SALHenBh17n+0/qA4fjLL8rILvjW8xTwYyVLk2c9iRcTGKmOhJGa5FsqN5ZCfep0i8PaALX8FdsN7eS8/JuN23vIeFsvhdko80y7H3ra0gWOaNeXYqJ51dJRogSc4VVwozKnq6ZYxojTSu6Ra9xQAm2xvgj6eXBWkx3ON/rmpy67sruto6vJt5VtT6WRezXmmyRSbe18Z6lTXxTMn335zFj83MpU87JbbI1EBL3RSaOZS1MvGZFTLx2TXxHqOTROw36V+qcYQqA7UvV6lQXa9cY0mypkzbNGnT4aACEv1kdoc0r07JcwNuIzr13sVfQYuSvsMLkOVUBnIYGSYPkjzbZoUmrpMrYeYkHqZ9diyfwpStRASecXuT22vKra+m3EwC2hqmOQ4jWYYkqW05e4RkS2SOdSXMT4JCG0SEL8rJNCWZrBE62ZkZkQGRTzzMdl2RIdbYYYbW8++8tLTLLLSTW4664s0obbbQkzUozIiItTAGOuz/LPYHfnNtwNvtq9w6jK8m23kobu4sJR+XsYRlHafvcXmK/e+S4/CspHknpkRTjTckk6n23o7jwGvBwAxS8zXgN6i2O44y/JuZWOY5NiRIxKXJmppKPJbyXAjNpJS3pE6HWuMobSRqcUskl4mAJP/Ri3ExHJeIMDBamZDTlm22YZZEyyqS4hNiSMmupmSUV29G6u6qBPgzzitPadCnYLqCPVswBfz1L9xMS2+4X72JymZDakZrjD+B4tWvuNlKuMmyRaIsFmuYWfVIeq2SdsHOkvwbERa/1oAhRz7Cckx/0UdrJFtEktJt9+G82jMPIWS4WN29jnFXVS1pPXtxrR3tyGVeCVoloUX3wA2BuF17WZHxF4z2VRLZmRUbG7Y1LrrDiXUNWePYhVUF1CUtJmXerrmsfjuF4GlxpRGRGWgAhu5J5tQZf60XHivopzE9zAl7bYTfLjOJeajX7MzLMmlQTdQakG/Ci5Ow28kj1aeJbatFoURAffgFxX7KetjuazuQ81WM7rV9nW4TdWiksQXZebY9i9zjJRpbxob1mu071I1ofxTVdgviMAbC777MZl6TJeajx47Tj7777iGmWGWkG468864aUNNNISalKUZEki1MAa6XADOsa3M9WDlJneHPMSsXyPE92plHPjaeWtq9vcTbuIzdRzLTqYuyj+bQZ6KNLxGeh6gCajl//AMJfKL/l13s/3aZMAIyfR12g2mzniXZXWbbX7d5hcI3ezGCm2ynCcayCzTCYpMQcYiJn21ZLlFFZcfWpDfX0JNajItTMATM4vhOGYREdgYXiOMYhBeWlb0PF6CqoIjy0EaULdj1USIy4tKT0IzIzIgBBR68H+LvGH+VW4/8A8DhAA7z1Zt5N2rnefYDhrt3mErbyk3jRjL2U5DFmyKtu3ezrOpeBUtZc2MN1iYnG6Nda9KmRkLSiUUhHcJXbQQAuEXoqcRMcwqQ7k+fbss2NTUvWN1uA7lmMUMSvVBjKlTrgoEjGZNTV1UQmlOml9bymmUn1vqMu4AMYPRRRVN8guVqKK8n5PRoqK9FNklq2tq0yGqTm10VdeWTTi3HG59tEJEh5KlKMnHDIzP2gD32x7rUf1vN+2n1pZcl4xkbUZDh9Kn3TwvAZpIaI9DWo4jC3PD9Ykz9gAnN3I/0d57/IvKf7xzgBDV6Ev+gPeX/9vs/5GY+ALU7U3Nbsl61O8MHcl5qr/OvDyCqwi3tFJYhOzc6hYllWLJizHzJrqnsVL1Oz0q+Kavy5fGfSANhxxxtltx55xDTTSFOOuuKShtttCTUtxxajJKEISRmZmZEREANefhVawd6PVp5L7wbeKTM26qqTM0uX0H46m2J6Vi2I1khiQjVt5GTzaqTZRj8O8yypZezQAd16KraD3S5xOmhJuIyfAG0L0LqShzIt4VOII/aSVqaSZl7+kgBJT6jf/BByN/kH/wDe6gAWw9I5CU8CtnTSkkm5Z7nLWZERGtRbo5g2SlH7zJCCLX5CIAYP+pslK/UO4DoWlKkKyHbBKkqIlJUlW+EMlJUk9SNJkfiQA2BwBAT6KJEW4fOoiLQizLbIiIvAiIrzfDQiIAT7AAAAAAAAAAAAAAAAAAAAAAAAAAAAAAAAAPNZjhuK7g4xdYXm+P1WU4pkUFyuu6G6iNTa2xhu6KNp9h0jLqbcSlba06ONOJStCkrSlRAQS73ehpj9ldysg477tO4VHdkKlRsLz6FNuoNW8bndbbqcyqniu48KKZETSJUKdJIiI1SFmWpgWbqvRA5DZLZxEbn8h8EaqGFJQUyqLOM6s2I+qSUmJAyGJicZCjQnQi8ylJaF7QBM9xK4P7KcPaKZG2+r5l1mV3Gaj5RuNkpx5OT3LCFof+bYpx2WYlHQIkoJaYcVCSWpCFPrfcQlwgPV8qOKG1nLnbv6BblRJUeRXSHbLEcvpzYayPELlxomXJla8+08zIhTW0JbmQ3kqYlNpSZkl1tl1oCEeT6LnKLHl2WKYFydxVG3Fq+6U+JJsNw8UXZRnfwal2WG00e9oZb62dCUlc5SVezq0AEmPCD029seHb0jMpFy9uTu9YwHK13NJ9a3VVuO10oknNrcQo/Mz115zSIm5Ex596U+2noR2GlutLAuHzP4JbV8zscrWsnky8Q3Bxph+PiO41NEYmWFdFkLN52mu6x52K1kWOuSVG8UZTzDrLxqUw813HidAiFL0XOVSmCwZfJrD/zWFJJXzYVpuMpgm+8TvmSwI4Scd8ySi6+jz+nX+v8AeAJgOGXBjarhljNlExR+Xlme5M1GazDcW6isRLK0YiqN1ioqK5lyQzj2OsyDN0oqHX3XXdFPvPG212wMaed3DXjJy03HocfZ3cxHbDlbNqX49RCizqq3tsxpaWA7Yoi5dhLVjDtnSrq5hw4tihbL7cZKkmUlpltpoDCqm9HDep5UVvkTyiqU7K4S29cS4OP2+Z5BIhUNQw5InFXQsuiVWO4maa1pZHJSUxMZOp9pwi6TA8X6IONPXu5PJmVXodj06tsK3GkynUm8UN7J76a5VIfMjT1u+VpX1aal1dtQAkx9P7077nhRlW4mR2m6VZuCjOcfp6RqJAxWVjyq5VXZSJ6pDj0i8tikpeJ/pJJJQaTLXU/YALH8qPR2oNyc+sd2eOefsbO5bbWbt5ZYvPiT/omV++6cmRc41bUTibnD3H5Rm6thuPMYJ1ZmwUdBE2ALL4J6K+6OYZfXX/KfkUWWVFcppL9fidhlWU5DbQWlkv5rbyzOo9eePxlnr1KRCmHpqSUpUZLSBPpg+EYpttiOO4Hg1JCxvEcUq4tNQUlelSYsCviI6W2yU4tx995xRmt151a3n3VKccUpalKMDu7Wqq72ssaS7roNvT28KVW2tVZxWJ1dZV05lcaZAnwpSHY0uHLjuKbcbcSpC0KMjIyMAQo7p+jx8zZtK3J4d765Rx/vZDjzqMcVOyBFdXnIWTjkWgzLHLSHlNRUkaS/esluzM9dCcSgkoIC38/0xeem7LacZ375xP2WCOqQifVVuSblZqzOjoURn5rG7pOGUs2R0l8K5DrppMzPx8SMCUnijwv2V4gYzKqNtauVPyS7aYRle4GRLYmZZkZsH3G4q5DDEeLVUsd4+pqDFbaZIyJbnde1dUBaT0/ODlpwnoNzKW13Ertwz3Atscsmn4GNyMeRWoooVrEWy61Jt7c5RyjsiMjI0EkkaaHr4AYw7xek9ktPujZ7zcKd753HzJbp+XIsMU8ze1WPRnrB4pNhHor7GFu2NdjsyQklqqZEGbFQo9G1NspbYQB5rFvSd3i3YzyjzTnHyXs94K3HHSVDwzH7XJ7KPOj91t52tTkOQtU30ZqJrjCSltVta2/ISZ9L7LhE4AJbt19h9ud4Nl8g2FyWmbhbfXeNwsajV1G3Hrjx2NTeUcxuTjyEsriQJGMzK6M9DT2lMoVHSlSFN9SDAhnxD0vecmzzthhWyfNdvEdprKfJecaiT86x+1jNyz6X7CHidc3ZU0K6da07jsW0irdUkjNwtC0AvHt96RlXtZv7sZvPim78uxLbQ667z9GUUUuwyLczOk32TW13k52ab7ytE1YQ7iJFaj9qUppEIluuvvOOOqAyl5vcBtuuZtLUTZ1tIwPdLEozsXE9w62C3YLTXuvKlKoMjrDkQV3FGUxanmCTIZfhPrW40vpceaeAwOg+mpzvzOva213k5y2UvZfREKyqqLIM+yO7u6JoySdROg3rFFEejvMJJCW5c6fGYPpV2nSQSTAye4oemxV8UOSmZby4jnbM7BLrBbPB8dwSRTSzuqiPOn4hOTPs8netnmbWWtzGXFvdERhK3ZOqEoSkkADP7ebAnt1dn91tr49m3Sv7kbbZ1gTFw9FVNZqXswxe0x5uzdhoejLltwF2JOqaJxs3CR0kpOupAY/cGOK1hw+2Vl7T2WZw86kSc3vcuK7g0r1Cyhu4r6SEmCcF+ytFmtg6g1G53SJXWRdJaeIGZQAjw5/8HLXmrW7VwKvcWv2/Pbm3yazfdn45JyErVOQMUTKGWkx7ipOIqKdOZmZm519wvAtPED7+dvAnE+aFDjkxOSvYDuhgqZiMSzJmD85Q34E5xmTJoMhr25MKTJr1S46XY77TyXoLylrQlxK3GlgYQ1npm81Nxm63AuSXNe4yDZWE9FTZYzjGSZvkFvkdbCdQtuun/SaDTV5OrJsu2/NVbJjLIlk04aSIAZdcLfT+a4fbrb15vUZvAu8U3LNUPFsRjUc6DIw6jj5JY29TWSbiddWblyuBWy2opumhtTimjWfirQAeJ5g+mtP3z3jgcjtj94rTY7ehqLXxra1htWaI1tIqq0qSvu4V1Q2Vbe47ct0KEQX1N+YZlRWm09DZk4p0DLDj3s1u/t/x7m7Tb0buq3czWUjM4be4Etu5lzyq8oKU7Ei2k69sZlteP1Muwf7bri2tIvaYSlKWiMwLbcA+Glnws29zbCLTPYG4DuW5mjKm7GBj8jHm4LaKSuqPJLjSLW2U+s1QTX1ktJaK008NTA/ObPATbXmZU1FhZWsrAt0sViuQ8V3FqoLdg6iuW85KKhyOqVIgnd0jcx1b7CUyI8iI+ta2nSS4826BH3N9Nf1Dcupy2yzrnKUzaR1sq2bGTku5V7ZzqUiJryVjRzYtQ1bxCYLQocq4cj6JItdCLQCVTibxJ2v4gbdLwXbxqXYWFtJZtMzzO4Swd/l1wyypll+Z5dCWYVZXNOLbhQmvwUZC1mZuPOvPOgWU4OcHLXiDlW/WR2W4lfnKN5rbG7OLEg45JolUCaGxzactl91+4tCsDkllqUkaUtdJsGeh9REkDJzkts/J3+2J3L2ch3rGMyc/x/5kZvpMBy0YrF+ehzPMOQGpUJyUnSL09JOoP4tdfAAeW4ecfZnFzj5hOyU/J42YysSk5VIcyGHVu00eaWR5Zd5KhKK56dYuMHFbtiZMzeV1mg1eGuhAWI5ScGbXkTyR49b8wtxq/FomyFlik+VjcrG5NrJyEsbzxjMltR7Nq4gtVxy2mvLkamXuhR9ehl8IAkTAEenBvhBa8QMk39vrLcOvzpG9F3i1tFjQcck0KqBOOz88mrYfdft7QrBUosySklJS10eXM9D6y6QJCwAAAAAAAAAAAAAAAAAAAAAAAAAAAAAAAAAAAAAAAAAAAAAAAAAQj89/TNzvcjdBHJvinfMYxu4cuBcZFjXzyvFXrXI6lDSIGX4bkra2Y1Lk7iY7RSWpDkaPIcR5jvtvG4TwGJ+XbOetjv5jv5o9y5NlAwW0bbrL6RYZPsfjNbMr9UocRk1rt9JPK8hrFoIifYSmamQkj62nDM9QJk+C/Dmg4abRuYYxaM5LnOUWDWQbh5YxHXGjWVs3HKNBqqhl798t4/j8ZS243d0cdddefUls3u02BmqAAAAAAAAAAAAAAAAAAAAAAAAAAAAAAAAAAAAAAAAAAAAAAAAAAAAAAAAAAAAAAAAAAAAAAAAAAAAAAAAAAAAAAAAAAAAAAAAAAAAAAAAAAAAAAAAAAAAAAAAAAAAAAAAAAAAAAAAAAAAAAAAAAAAAAAAAAAAAAAAAAAAAAAAAAAAAAAAAAAAAAAAAAAAAAAAAAAAAAAAAAAAAAAAAAAAAAAAAAAAAAAAAAAAAAAAAAAAAAAAAAAAAAAAAAAAAAAAAAAAAAAAAAAAAAAAAAAAAAAAAAAAAAAAAAAAAAAAAAAAAAAAAAAAAAAAAAAAAAAAAAAAAAAAAAAAAAAAAAAAAAAAAAAAAAAAAAAAAAAAAAAAAAAAAAAAAAAAAAAAAAAAAAAAAAAAAAAAAAAAAAAAAAAAAAAAAAAAAAAAAAAAAAAAAAAAAAAAAAAAAAAAAAAAAAAAAAAAAAAAAAAAAAAAAAAAAAAAAAAAAAAAAAAAAAAAAAAAAAAAAAAAAAAAAAAAAAAAAAAAAAAAAAAAAAAAAAAAAAAAAAAAAAAAAAAAAAAAAAAAAAAAAAAAAAAAAAAAAAAAAAAAAAAAAAAAAAAAAAAAAAAAAAAAAAAAAAAAAAAAAAAAAAAAAAAAAAAAAAAAAAAAAAAAAAAP/2Q==;imageBorder=#000000;" parent="JN9vlLJ-MtzgwLALD2hu-1" vertex="1">
          <mxGeometry x="710" y="634" width="100" height="55" as="geometry"/>
        </mxCell>
        <mxCell id="8-GmOCleJoWvkjhxUPIe-39" value="" style="outlineConnect=0;dashed=0;verticalLabelPosition=bottom;verticalAlign=top;align=center;html=1;shape=mxgraph.aws3.internet_3;fillColor=#D2D3D3;gradientColor=none;" parent="JN9vlLJ-MtzgwLALD2hu-1" vertex="1">
          <mxGeometry x="403" y="395" width="79.5" height="54" as="geometry"/>
        </mxCell>
        <mxCell id="8-GmOCleJoWvkjhxUPIe-40" value="" style="endArrow=classic;html=1;exitX=0.083;exitY=0;exitDx=0;exitDy=0;exitPerimeter=0;" parent="JN9vlLJ-MtzgwLALD2hu-1" source="8-GmOCleJoWvkjhxUPIe-25" target="8-GmOCleJoWvkjhxUPIe-39" edge="1">
          <mxGeometry width="50" height="50" relative="1" as="geometry">
            <mxPoint x="510" y="417" as="sourcePoint"/>
            <mxPoint x="318.5" y="407.3383947939262" as="targetPoint"/>
          </mxGeometry>
        </mxCell>
        <mxCell id="8-GmOCleJoWvkjhxUPIe-41" value="Internet" style="text;html=1;resizable=0;points=[];autosize=1;align=left;verticalAlign=top;spacingTop=-4;" parent="JN9vlLJ-MtzgwLALD2hu-1" vertex="1">
          <mxGeometry x="422" y="447" width="60" height="20" as="geometry"/>
        </mxCell>
        <mxCell id="8-GmOCleJoWvkjhxUPIe-44" value="S3" style="text;html=1;resizable=0;points=[];autosize=1;align=left;verticalAlign=top;spacingTop=-4;" parent="JN9vlLJ-MtzgwLALD2hu-1" vertex="1">
          <mxGeometry x="133" y="447.5" width="30" height="20" as="geometry"/>
        </mxCell>
        <mxCell id="8-GmOCleJoWvkjhxUPIe-45" value="AWS Transfer for SFTP&lt;br&gt;" style="text;html=1;resizable=0;points=[];autosize=1;align=left;verticalAlign=top;spacingTop=-4;" parent="JN9vlLJ-MtzgwLALD2hu-1" vertex="1">
          <mxGeometry x="208" y="463.5" width="140" height="20" as="geometry"/>
        </mxCell>
        <mxCell id="8-GmOCleJoWvkjhxUPIe-52" style="edgeStyle=orthogonalEdgeStyle;rounded=0;orthogonalLoop=1;jettySize=auto;html=1;entryX=0.5;entryY=1;entryDx=0;entryDy=0;" parent="JN9vlLJ-MtzgwLALD2hu-1" source="8-GmOCleJoWvkjhxUPIe-50" target="8-GmOCleJoWvkjhxUPIe-27" edge="1">
          <mxGeometry relative="1" as="geometry"/>
        </mxCell>
        <mxCell id="8-GmOCleJoWvkjhxUPIe-50" value="個人情報はマスキング済み&lt;br&gt;この時点で個人情報はない&lt;br&gt;&lt;br&gt;" style="text;html=1;resizable=0;points=[];autosize=1;align=left;verticalAlign=top;spacingTop=-4;" parent="JN9vlLJ-MtzgwLALD2hu-1" vertex="1">
          <mxGeometry x="620" y="540" width="160" height="40" as="geometry"/>
        </mxCell>
        <mxCell id="8-GmOCleJoWvkjhxUPIe-54" value="" style="verticalLabelPosition=bottom;html=1;verticalAlign=top;align=center;strokeColor=none;fillColor=#3333FF;shape=mxgraph.azure.cloud_services_configuration_file;pointerEvents=1;" parent="JN9vlLJ-MtzgwLALD2hu-1" vertex="1">
          <mxGeometry x="422.5" y="465" width="35" height="35" as="geometry"/>
        </mxCell>
        <mxCell id="8-GmOCleJoWvkjhxUPIe-55" value="" style="verticalLabelPosition=bottom;html=1;verticalAlign=top;align=center;strokeColor=none;fillColor=#3333FF;shape=mxgraph.azure.cloud_services_configuration_file;pointerEvents=1;" parent="JN9vlLJ-MtzgwLALD2hu-1" vertex="1">
          <mxGeometry x="153" y="377.5" width="35" height="35" as="geometry"/>
        </mxCell>
        <mxCell id="_bcro-cEM-mXuyXGzMW_-0" value="BigQuery Data Transfer Service" style="text;html=1;resizable=0;points=[];autosize=1;align=left;verticalAlign=top;spacingTop=-4;" parent="JN9vlLJ-MtzgwLALD2hu-1" vertex="1">
          <mxGeometry x="160" y="557" width="190" height="20" as="geometry"/>
        </mxCell>
        <mxCell id="_bcro-cEM-mXuyXGzMW_-1" value="" style="outlineConnect=0;dashed=0;verticalLabelPosition=bottom;verticalAlign=top;align=center;html=1;shape=mxgraph.aws3.internet_3;fillColor=#D2D3D3;gradientColor=none;" parent="JN9vlLJ-MtzgwLALD2hu-1" vertex="1">
          <mxGeometry x="78" y="543" width="79.5" height="54" as="geometry"/>
        </mxCell>
        <mxCell id="_bcro-cEM-mXuyXGzMW_-2" value="" style="endArrow=classic;html=1;exitX=0.5;exitY=1;exitDx=0;exitDy=0;exitPerimeter=0;entryX=0.66;entryY=0.17;entryDx=0;entryDy=0;entryPerimeter=0;" parent="JN9vlLJ-MtzgwLALD2hu-1" source="_bcro-cEM-mXuyXGzMW_-1" target="8-GmOCleJoWvkjhxUPIe-11" edge="1">
          <mxGeometry width="50" height="50" relative="1" as="geometry">
            <mxPoint x="128.26977363515311" y="458.5999999999999" as="sourcePoint"/>
            <mxPoint x="129.80958721704383" y="553" as="targetPoint"/>
          </mxGeometry>
        </mxCell>
        <mxCell id="_bcro-cEM-mXuyXGzMW_-4" value="" style="group;verticalAlign=top;container=1;" parent="JN9vlLJ-MtzgwLALD2hu-1" vertex="1" connectable="0">
          <mxGeometry x="87" y="669" width="263" height="205" as="geometry"/>
        </mxCell>
        <mxCell id="_bcro-cEM-mXuyXGzMW_-22" value="" style="group" parent="_bcro-cEM-mXuyXGzMW_-4" vertex="1" connectable="0">
          <mxGeometry x="-14" y="-2.5" width="203" height="205" as="geometry"/>
        </mxCell>
        <mxCell id="_bcro-cEM-mXuyXGzMW_-20" value="" style="group" parent="_bcro-cEM-mXuyXGzMW_-22" vertex="1" connectable="0">
          <mxGeometry width="203" height="205" as="geometry"/>
        </mxCell>
        <mxCell id="_bcro-cEM-mXuyXGzMW_-3" value="&lt;div style=&quot;text-align: center&quot;&gt;&lt;span&gt;Datalake&lt;/span&gt;&lt;/div&gt;" style="rounded=0;whiteSpace=wrap;html=1;fillColor=#e1d5e7;strokeColor=#9673a6;verticalAlign=top;" parent="_bcro-cEM-mXuyXGzMW_-20" vertex="1">
          <mxGeometry x="21" y="25" width="182" height="180" as="geometry"/>
        </mxCell>
        <mxCell id="8-GmOCleJoWvkjhxUPIe-11" value="BigQuery" style="html=1;fillColor=#5184F3;strokeColor=none;verticalAlign=top;labelPosition=center;verticalLabelPosition=bottom;align=center;spacingTop=-6;fontSize=11;fontStyle=1;fontColor=#999999;shape=mxgraph.gcp2.hexIcon;prIcon=bigquery" parent="_bcro-cEM-mXuyXGzMW_-20" vertex="1">
          <mxGeometry width="66" height="58.5" as="geometry"/>
        </mxCell>
        <mxCell id="hsulrmWdge8mKOAJlEcT-1" value="&lt;font style=&quot;font-size: 14px&quot;&gt;Raw data&lt;br&gt;(Copy of Original Table)&lt;/font&gt;" style="text;html=1;resizable=0;points=[];autosize=1;align=left;verticalAlign=top;spacingTop=-4;" parent="_bcro-cEM-mXuyXGzMW_-20" vertex="1">
          <mxGeometry x="32" y="100" width="160" height="30" as="geometry"/>
        </mxCell>
        <mxCell id="_bcro-cEM-mXuyXGzMW_-17" value="" style="shadow=0;dashed=0;html=1;strokeColor=none;labelPosition=center;verticalLabelPosition=bottom;verticalAlign=top;align=center;shape=mxgraph.mscae.cloud.storage_files;fillColor=#0079D6;pointerEvents=1;" parent="_bcro-cEM-mXuyXGzMW_-22" vertex="1">
          <mxGeometry x="150" y="8" width="50" height="43" as="geometry"/>
        </mxCell>
        <mxCell id="_bcro-cEM-mXuyXGzMW_-16" value="Cloud&#xa;Dataprep" style="html=1;fillColor=#5184F3;strokeColor=none;verticalAlign=top;labelPosition=center;verticalLabelPosition=bottom;align=center;spacingTop=-6;fontSize=11;fontStyle=1;fontColor=#999999;shape=mxgraph.gcp2.hexIcon;prIcon=cloud_dataprep" parent="_bcro-cEM-mXuyXGzMW_-4" vertex="1">
          <mxGeometry x="168" y="86" width="66" height="58.5" as="geometry"/>
        </mxCell>
        <mxCell id="_bcro-cEM-mXuyXGzMW_-5" value="" style="group;container=1;" parent="JN9vlLJ-MtzgwLALD2hu-1" vertex="1" connectable="0">
          <mxGeometry x="330" y="669" width="271.5" height="205" as="geometry"/>
        </mxCell>
        <mxCell id="_bcro-cEM-mXuyXGzMW_-6" value="DWH" style="rounded=0;whiteSpace=wrap;html=1;fillColor=#e1d5e7;strokeColor=#9673a6;verticalAlign=top;" parent="_bcro-cEM-mXuyXGzMW_-5" vertex="1">
          <mxGeometry x="31" y="25" width="182" height="180" as="geometry"/>
        </mxCell>
        <mxCell id="_bcro-cEM-mXuyXGzMW_-7" value="BigQuery" style="html=1;fillColor=#5184F3;strokeColor=none;verticalAlign=top;labelPosition=center;verticalLabelPosition=bottom;align=center;spacingTop=-6;fontSize=11;fontStyle=1;fontColor=#999999;shape=mxgraph.gcp2.hexIcon;prIcon=bigquery" parent="_bcro-cEM-mXuyXGzMW_-5" vertex="1">
          <mxGeometry width="66" height="58.5" as="geometry"/>
        </mxCell>
        <mxCell id="hsulrmWdge8mKOAJlEcT-2" value="&lt;font style=&quot;font-size: 14px&quot;&gt;Structured data&lt;br&gt;(Transformed tables&lt;br&gt;&amp;nbsp;ready for DM)&lt;/font&gt;" style="text;html=1;resizable=0;points=[];autosize=1;align=left;verticalAlign=top;spacingTop=-4;" parent="_bcro-cEM-mXuyXGzMW_-5" vertex="1">
          <mxGeometry x="57.5" y="87.5" width="140" height="50" as="geometry"/>
        </mxCell>
        <mxCell id="_bcro-cEM-mXuyXGzMW_-8" value="" style="group;container=1;" parent="JN9vlLJ-MtzgwLALD2hu-1" vertex="1" connectable="0">
          <mxGeometry x="569" y="667" width="220" height="208" as="geometry"/>
        </mxCell>
        <mxCell id="_bcro-cEM-mXuyXGzMW_-25" value="" style="group" parent="_bcro-cEM-mXuyXGzMW_-8" vertex="1" connectable="0">
          <mxGeometry width="220" height="208" as="geometry"/>
        </mxCell>
        <mxCell id="_bcro-cEM-mXuyXGzMW_-9" value="DM" style="rounded=0;whiteSpace=wrap;html=1;fillColor=#e1d5e7;strokeColor=#9673a6;container=1;verticalAlign=top;" parent="_bcro-cEM-mXuyXGzMW_-25" vertex="1">
          <mxGeometry x="18.74239350912779" y="27.566265060240962" width="201.25760649087223" height="180.43373493975903" as="geometry"/>
        </mxCell>
        <mxCell id="_bcro-cEM-mXuyXGzMW_-27" value="Cloud&#xa;Dataprep" style="html=1;fillColor=#5184F3;strokeColor=none;verticalAlign=top;labelPosition=center;verticalLabelPosition=bottom;align=center;spacingTop=-6;fontSize=11;fontStyle=1;fontColor=#999999;shape=mxgraph.gcp2.hexIcon;prIcon=cloud_dataprep" parent="_bcro-cEM-mXuyXGzMW_-9" vertex="1">
          <mxGeometry x="-70.06085192697769" y="61.146987951807226" width="58.90466531440162" height="58.64096385542168" as="geometry"/>
        </mxCell>
        <mxCell id="_bcro-cEM-mXuyXGzMW_-28" value="Cloud&#xa;Dataflow" style="html=1;fillColor=#5184F3;strokeColor=none;verticalAlign=top;labelPosition=center;verticalLabelPosition=bottom;align=center;spacingTop=-6;fontSize=11;fontStyle=1;fontColor=#999999;shape=mxgraph.gcp2.hexIcon;prIcon=cloud_dataflow" parent="_bcro-cEM-mXuyXGzMW_-9" vertex="1">
          <mxGeometry x="-26.328600405679513" y="61.146987951807226" width="58.90466531440162" height="58.64096385542168" as="geometry"/>
        </mxCell>
        <mxCell id="hsulrmWdge8mKOAJlEcT-3" value="&lt;font style=&quot;font-size: 14px&quot;&gt;Structured data&lt;br&gt;(Ready for &lt;br&gt;particular analysis)&lt;/font&gt;" style="text;html=1;resizable=0;points=[];autosize=1;align=left;verticalAlign=top;spacingTop=-4;" parent="_bcro-cEM-mXuyXGzMW_-9" vertex="1">
          <mxGeometry x="40.258620689655174" y="62.65060240963855" width="130" height="50" as="geometry"/>
        </mxCell>
        <mxCell id="_bcro-cEM-mXuyXGzMW_-10" value="BigQuery" style="html=1;fillColor=#5184F3;strokeColor=none;verticalAlign=top;labelPosition=center;verticalLabelPosition=bottom;align=center;spacingTop=-6;fontSize=11;fontStyle=1;fontColor=#999999;shape=mxgraph.gcp2.hexIcon;prIcon=bigquery" parent="_bcro-cEM-mXuyXGzMW_-25" vertex="1">
          <mxGeometry width="58.90466531440162" height="58.64096385542168" as="geometry"/>
        </mxCell>
        <mxCell id="_bcro-cEM-mXuyXGzMW_-14" style="edgeStyle=orthogonalEdgeStyle;rounded=0;orthogonalLoop=1;jettySize=auto;html=1;exitX=1;exitY=0.5;exitDx=0;exitDy=0;entryX=0.175;entryY=0.5;entryDx=0;entryDy=0;entryPerimeter=0;" parent="JN9vlLJ-MtzgwLALD2hu-1" source="_bcro-cEM-mXuyXGzMW_-3" target="_bcro-cEM-mXuyXGzMW_-19" edge="1">
          <mxGeometry relative="1" as="geometry"/>
        </mxCell>
        <mxCell id="_bcro-cEM-mXuyXGzMW_-15" style="edgeStyle=orthogonalEdgeStyle;rounded=0;orthogonalLoop=1;jettySize=auto;html=1;exitX=1;exitY=0.5;exitDx=0;exitDy=0;entryX=0;entryY=0.5;entryDx=0;entryDy=0;" parent="JN9vlLJ-MtzgwLALD2hu-1" source="_bcro-cEM-mXuyXGzMW_-6" target="_bcro-cEM-mXuyXGzMW_-9" edge="1">
          <mxGeometry relative="1" as="geometry"/>
        </mxCell>
        <mxCell id="_bcro-cEM-mXuyXGzMW_-19" value="Cloud&#xa;Dataflow" style="html=1;fillColor=#5184F3;strokeColor=none;verticalAlign=top;labelPosition=center;verticalLabelPosition=bottom;align=center;spacingTop=-6;fontSize=11;fontStyle=1;fontColor=#999999;shape=mxgraph.gcp2.hexIcon;prIcon=cloud_dataflow" parent="JN9vlLJ-MtzgwLALD2hu-1" vertex="1">
          <mxGeometry x="326" y="755" width="66" height="58.5" as="geometry"/>
        </mxCell>
      </root>
    </mxGraphModel>
  </diagram>
  <diagram id="-QXfpPK-hvd-TmRhH4Ch" name="WBS">
    <mxGraphModel dx="1282" dy="593" grid="1" gridSize="10" guides="1" tooltips="1" connect="1" arrows="1" fold="1" page="1" pageScale="1" pageWidth="827" pageHeight="1169" math="0" shadow="0">
      <root>
        <mxCell id="W95pBtlJvcOO0t2NNc_Z-0"/>
        <mxCell id="W95pBtlJvcOO0t2NNc_Z-1" parent="W95pBtlJvcOO0t2NNc_Z-0"/>
        <mxCell id="W95pBtlJvcOO0t2NNc_Z-2" value="Raftel&lt;br&gt;&lt;br&gt;" style="rounded=0;whiteSpace=wrap;html=1;align=left;verticalAlign=top;" parent="W95pBtlJvcOO0t2NNc_Z-1" vertex="1">
          <mxGeometry x="20" y="120" width="280" height="430" as="geometry"/>
        </mxCell>
        <mxCell id="W95pBtlJvcOO0t2NNc_Z-3" value="Rcloud(AWS)" style="rounded=0;whiteSpace=wrap;html=1;align=left;verticalAlign=top;" parent="W95pBtlJvcOO0t2NNc_Z-1" vertex="1">
          <mxGeometry x="300" y="120" width="280" height="430" as="geometry"/>
        </mxCell>
        <mxCell id="W95pBtlJvcOO0t2NNc_Z-4" value="RCloud(GCP)" style="rounded=0;whiteSpace=wrap;html=1;align=left;verticalAlign=top;" parent="W95pBtlJvcOO0t2NNc_Z-1" vertex="1">
          <mxGeometry x="580" y="120" width="240" height="430" as="geometry"/>
        </mxCell>
        <mxCell id="W95pBtlJvcOO0t2NNc_Z-5" value="開発環境&lt;br&gt;&lt;br&gt;・スクリプト作成&lt;br&gt;Oracle -&amp;gt; csv(差分取り込み), gzip圧縮, sftp転送&lt;br&gt;・テスト&lt;br&gt;・チューニング&lt;br&gt;・S3への穴あけ依頼&lt;br&gt;&lt;br&gt;" style="rounded=0;whiteSpace=wrap;html=1;fillColor=#dae8fc;align=left;strokeColor=#6c8ebf;" parent="W95pBtlJvcOO0t2NNc_Z-1" vertex="1">
          <mxGeometry x="20" y="150" width="280" height="150" as="geometry"/>
        </mxCell>
        <mxCell id="W95pBtlJvcOO0t2NNc_Z-6" value="本番環境&lt;br&gt;&lt;br&gt;・Webサレ&lt;br&gt;・本番実行可能かの協議。&lt;br&gt;スクリプト実行周期、進路側のデプロイフローに乗せる、スクリプトのレビュー&lt;br&gt;・デプロイフローへの取り込み依頼&lt;br&gt;・S3への穴あけ依頼&lt;br&gt;&lt;br&gt;" style="rounded=0;whiteSpace=wrap;html=1;fillColor=#f8cecc;align=left;strokeColor=#b85450;" parent="W95pBtlJvcOO0t2NNc_Z-1" vertex="1">
          <mxGeometry x="20" y="297" width="280" height="120" as="geometry"/>
        </mxCell>
        <mxCell id="W95pBtlJvcOO0t2NNc_Z-8" value="開発環境&lt;br&gt;&lt;br&gt;・SFTPサーバー環境構築&lt;br&gt;&lt;span&gt;IaC・&lt;/span&gt;監視・アラート通知&lt;br&gt;・テスト&lt;br&gt;" style="rounded=0;whiteSpace=wrap;html=1;fillColor=#dae8fc;align=left;strokeColor=#6c8ebf;" parent="W95pBtlJvcOO0t2NNc_Z-1" vertex="1">
          <mxGeometry x="300" y="150" width="280" height="150" as="geometry"/>
        </mxCell>
        <mxCell id="W95pBtlJvcOO0t2NNc_Z-10" value="本番環境&lt;br&gt;&lt;br&gt;・RCloud環境申請&lt;br&gt;・SFTPサーバー環境構築&lt;br&gt;・運用フロー構築&lt;br&gt;" style="rounded=0;whiteSpace=wrap;html=1;fillColor=#f8cecc;align=left;strokeColor=#b85450;" parent="W95pBtlJvcOO0t2NNc_Z-1" vertex="1">
          <mxGeometry x="300" y="297" width="280" height="120" as="geometry"/>
        </mxCell>
        <mxCell id="W95pBtlJvcOO0t2NNc_Z-11" value="本番環境&lt;br&gt;&lt;br&gt;・RCloud環境申請&lt;br&gt;・環境構築&lt;br&gt;" style="rounded=0;whiteSpace=wrap;html=1;fillColor=#f8cecc;align=left;strokeColor=#b85450;" parent="W95pBtlJvcOO0t2NNc_Z-1" vertex="1">
          <mxGeometry x="580" y="297" width="240" height="120" as="geometry"/>
        </mxCell>
        <mxCell id="W95pBtlJvcOO0t2NNc_Z-12" value="開発環境&lt;br&gt;&lt;br&gt;・BQ環境構築&lt;br&gt;・DWHクエリ作成&lt;br&gt;・DMクエリ作成&lt;br&gt;Cloud Dataprep, BQ 名寄せ、テーブル結合・分割&lt;br&gt;・テスト&lt;br&gt;" style="rounded=0;whiteSpace=wrap;html=1;fillColor=#dae8fc;align=left;strokeColor=#6c8ebf;" parent="W95pBtlJvcOO0t2NNc_Z-1" vertex="1">
          <mxGeometry x="580" y="150" width="240" height="150" as="geometry"/>
        </mxCell>
        <mxCell id="W95pBtlJvcOO0t2NNc_Z-13" value="その他作業&lt;br&gt;&lt;br&gt;・DWH設計&lt;br&gt;・DM設計(スマッケ・CRM)&lt;br&gt;" style="rounded=0;whiteSpace=wrap;html=1;fillColor=#d5e8d4;align=left;strokeColor=#82b366;" parent="W95pBtlJvcOO0t2NNc_Z-1" vertex="1">
          <mxGeometry x="580" y="417" width="240" height="120" as="geometry"/>
        </mxCell>
        <mxCell id="W95pBtlJvcOO0t2NNc_Z-14" value="その他作業&lt;br&gt;&lt;br&gt;・BQ環境構築&lt;br&gt;・DWH作成スクリプト作成&lt;br&gt;・テスト&lt;br&gt;" style="rounded=0;whiteSpace=wrap;html=1;fillColor=#d5e8d4;align=left;strokeColor=#82b366;" parent="W95pBtlJvcOO0t2NNc_Z-1" vertex="1">
          <mxGeometry x="300" y="417" width="280" height="120" as="geometry"/>
        </mxCell>
        <mxCell id="W95pBtlJvcOO0t2NNc_Z-15" value="その他作業&lt;br&gt;・BQ環境構築&lt;br&gt;・DWH作成スクリプト作成&lt;br&gt;・テスト&lt;br&gt;" style="rounded=0;whiteSpace=wrap;html=1;fillColor=#d5e8d4;align=left;strokeColor=#82b366;" parent="W95pBtlJvcOO0t2NNc_Z-1" vertex="1">
          <mxGeometry x="20" y="417" width="280" height="120" as="geometry"/>
        </mxCell>
        <mxCell id="W95pBtlJvcOO0t2NNc_Z-16" value="&lt;span&gt;S3-&amp;gt;BQデータ転送環境構築&lt;/span&gt;" style="text;html=1;resizable=0;points=[];autosize=1;align=left;verticalAlign=top;spacingTop=-4;" parent="W95pBtlJvcOO0t2NNc_Z-1" vertex="1">
          <mxGeometry x="495" y="277" width="170" height="20" as="geometry"/>
        </mxCell>
      </root>
    </mxGraphModel>
  </diagram>
  <diagram id="buECsr_MWKpPL2_Dljjj" name="Page-5">
    <mxGraphModel dx="2109" dy="593" grid="1" gridSize="10" guides="1" tooltips="1" connect="1" arrows="1" fold="1" page="1" pageScale="1" pageWidth="827" pageHeight="1169" math="0" shadow="0">
      <root>
        <mxCell id="2vDhTpK1nkInd5D4ulHT-0"/>
        <mxCell id="2vDhTpK1nkInd5D4ulHT-1" parent="2vDhTpK1nkInd5D4ulHT-0"/>
        <mxCell id="2vDhTpK1nkInd5D4ulHT-8" value="" style="rounded=0;whiteSpace=wrap;html=1;" parent="2vDhTpK1nkInd5D4ulHT-1" vertex="1">
          <mxGeometry x="70" y="240" width="690" height="350" as="geometry"/>
        </mxCell>
        <mxCell id="2vDhTpK1nkInd5D4ulHT-2" value="" style="dashed=0;outlineConnect=0;html=1;align=center;labelPosition=center;verticalLabelPosition=bottom;verticalAlign=top;shape=mxgraph.weblogos.aws_s3" parent="2vDhTpK1nkInd5D4ulHT-1" vertex="1">
          <mxGeometry x="139" y="81" width="81" height="69" as="geometry"/>
        </mxCell>
        <mxCell id="2vDhTpK1nkInd5D4ulHT-3" value="BigQuery" style="html=1;fillColor=#5184F3;strokeColor=none;verticalAlign=top;labelPosition=center;verticalLabelPosition=bottom;align=center;spacingTop=-6;fontSize=11;fontStyle=1;fontColor=#999999;shape=mxgraph.gcp2.hexIcon;prIcon=bigquery" parent="2vDhTpK1nkInd5D4ulHT-1" vertex="1">
          <mxGeometry x="360" y="195" width="110" height="90" as="geometry"/>
        </mxCell>
        <mxCell id="2vDhTpK1nkInd5D4ulHT-4" value="Temp Tables" style="swimlane;fontStyle=0;childLayout=stackLayout;horizontal=1;startSize=26;fillColor=#e0e0e0;horizontalStack=0;resizeParent=1;resizeParentMax=0;resizeLast=0;collapsible=1;marginBottom=0;swimlaneFillColor=#ffffff;align=center;fontSize=14;" parent="2vDhTpK1nkInd5D4ulHT-1" vertex="1">
          <mxGeometry x="100" y="356" width="160" height="104" as="geometry"/>
        </mxCell>
        <mxCell id="2vDhTpK1nkInd5D4ulHT-5" value="Row 1" style="text;strokeColor=none;fillColor=none;spacingLeft=4;spacingRight=4;overflow=hidden;rotatable=0;points=[[0,0.5],[1,0.5]];portConstraint=eastwest;fontSize=12;" parent="2vDhTpK1nkInd5D4ulHT-4" vertex="1">
          <mxGeometry y="26" width="160" height="26" as="geometry"/>
        </mxCell>
        <mxCell id="2vDhTpK1nkInd5D4ulHT-6" value="Row 2" style="text;strokeColor=none;fillColor=none;spacingLeft=4;spacingRight=4;overflow=hidden;rotatable=0;points=[[0,0.5],[1,0.5]];portConstraint=eastwest;fontSize=12;" parent="2vDhTpK1nkInd5D4ulHT-4" vertex="1">
          <mxGeometry y="52" width="160" height="26" as="geometry"/>
        </mxCell>
        <mxCell id="2vDhTpK1nkInd5D4ulHT-7" value="Row 3" style="text;strokeColor=none;fillColor=none;spacingLeft=4;spacingRight=4;overflow=hidden;rotatable=0;points=[[0,0.5],[1,0.5]];portConstraint=eastwest;fontSize=12;" parent="2vDhTpK1nkInd5D4ulHT-4" vertex="1">
          <mxGeometry y="78" width="160" height="26" as="geometry"/>
        </mxCell>
        <mxCell id="2vDhTpK1nkInd5D4ulHT-10" value="Data lake" style="swimlane;fontStyle=0;childLayout=stackLayout;horizontal=1;startSize=26;fillColor=#e0e0e0;horizontalStack=0;resizeParent=1;resizeParentMax=0;resizeLast=0;collapsible=1;marginBottom=0;swimlaneFillColor=#ffffff;align=center;fontSize=14;" parent="2vDhTpK1nkInd5D4ulHT-1" vertex="1">
          <mxGeometry x="333" y="317" width="160" height="104" as="geometry"/>
        </mxCell>
        <mxCell id="2vDhTpK1nkInd5D4ulHT-11" value="Row 1" style="text;strokeColor=none;fillColor=none;spacingLeft=4;spacingRight=4;overflow=hidden;rotatable=0;points=[[0,0.5],[1,0.5]];portConstraint=eastwest;fontSize=12;" parent="2vDhTpK1nkInd5D4ulHT-10" vertex="1">
          <mxGeometry y="26" width="160" height="26" as="geometry"/>
        </mxCell>
        <mxCell id="2vDhTpK1nkInd5D4ulHT-12" value="Row 2" style="text;strokeColor=none;fillColor=none;spacingLeft=4;spacingRight=4;overflow=hidden;rotatable=0;points=[[0,0.5],[1,0.5]];portConstraint=eastwest;fontSize=12;" parent="2vDhTpK1nkInd5D4ulHT-10" vertex="1">
          <mxGeometry y="52" width="160" height="26" as="geometry"/>
        </mxCell>
        <mxCell id="2vDhTpK1nkInd5D4ulHT-13" value="Row 3" style="text;strokeColor=none;fillColor=none;spacingLeft=4;spacingRight=4;overflow=hidden;rotatable=0;points=[[0,0.5],[1,0.5]];portConstraint=eastwest;fontSize=12;" parent="2vDhTpK1nkInd5D4ulHT-10" vertex="1">
          <mxGeometry y="78" width="160" height="26" as="geometry"/>
        </mxCell>
        <mxCell id="2vDhTpK1nkInd5D4ulHT-14" value="DWH" style="swimlane;fontStyle=0;childLayout=stackLayout;horizontal=1;startSize=26;fillColor=#e0e0e0;horizontalStack=0;resizeParent=1;resizeParentMax=0;resizeLast=0;collapsible=1;marginBottom=0;swimlaneFillColor=#ffffff;align=center;fontSize=14;" parent="2vDhTpK1nkInd5D4ulHT-1" vertex="1">
          <mxGeometry x="590" y="356" width="160" height="104" as="geometry"/>
        </mxCell>
        <mxCell id="2vDhTpK1nkInd5D4ulHT-15" value="Row 1" style="text;strokeColor=none;fillColor=none;spacingLeft=4;spacingRight=4;overflow=hidden;rotatable=0;points=[[0,0.5],[1,0.5]];portConstraint=eastwest;fontSize=12;" parent="2vDhTpK1nkInd5D4ulHT-14" vertex="1">
          <mxGeometry y="26" width="160" height="26" as="geometry"/>
        </mxCell>
        <mxCell id="2vDhTpK1nkInd5D4ulHT-16" value="Row 2" style="text;strokeColor=none;fillColor=none;spacingLeft=4;spacingRight=4;overflow=hidden;rotatable=0;points=[[0,0.5],[1,0.5]];portConstraint=eastwest;fontSize=12;" parent="2vDhTpK1nkInd5D4ulHT-14" vertex="1">
          <mxGeometry y="52" width="160" height="26" as="geometry"/>
        </mxCell>
        <mxCell id="2vDhTpK1nkInd5D4ulHT-17" value="Row 3" style="text;strokeColor=none;fillColor=none;spacingLeft=4;spacingRight=4;overflow=hidden;rotatable=0;points=[[0,0.5],[1,0.5]];portConstraint=eastwest;fontSize=12;" parent="2vDhTpK1nkInd5D4ulHT-14" vertex="1">
          <mxGeometry y="78" width="160" height="26" as="geometry"/>
        </mxCell>
        <mxCell id="2vDhTpK1nkInd5D4ulHT-18" value="Data lake backup" style="swimlane;fontStyle=0;childLayout=stackLayout;horizontal=1;startSize=26;fillColor=#e0e0e0;horizontalStack=0;resizeParent=1;resizeParentMax=0;resizeLast=0;collapsible=1;marginBottom=0;swimlaneFillColor=#ffffff;align=center;fontSize=14;" parent="2vDhTpK1nkInd5D4ulHT-1" vertex="1">
          <mxGeometry x="335" y="460" width="160" height="104" as="geometry"/>
        </mxCell>
        <mxCell id="2vDhTpK1nkInd5D4ulHT-19" value="Row 1" style="text;strokeColor=none;fillColor=none;spacingLeft=4;spacingRight=4;overflow=hidden;rotatable=0;points=[[0,0.5],[1,0.5]];portConstraint=eastwest;fontSize=12;" parent="2vDhTpK1nkInd5D4ulHT-18" vertex="1">
          <mxGeometry y="26" width="160" height="26" as="geometry"/>
        </mxCell>
        <mxCell id="2vDhTpK1nkInd5D4ulHT-20" value="Row 2" style="text;strokeColor=none;fillColor=none;spacingLeft=4;spacingRight=4;overflow=hidden;rotatable=0;points=[[0,0.5],[1,0.5]];portConstraint=eastwest;fontSize=12;" parent="2vDhTpK1nkInd5D4ulHT-18" vertex="1">
          <mxGeometry y="52" width="160" height="26" as="geometry"/>
        </mxCell>
        <mxCell id="2vDhTpK1nkInd5D4ulHT-21" value="Row 3" style="text;strokeColor=none;fillColor=none;spacingLeft=4;spacingRight=4;overflow=hidden;rotatable=0;points=[[0,0.5],[1,0.5]];portConstraint=eastwest;fontSize=12;" parent="2vDhTpK1nkInd5D4ulHT-18" vertex="1">
          <mxGeometry y="78" width="160" height="26" as="geometry"/>
        </mxCell>
        <mxCell id="2vDhTpK1nkInd5D4ulHT-23" style="edgeStyle=orthogonalEdgeStyle;rounded=0;orthogonalLoop=1;jettySize=auto;html=1;exitX=1;exitY=0.5;exitDx=0;exitDy=0;entryX=0.5;entryY=0;entryDx=0;entryDy=0;" parent="2vDhTpK1nkInd5D4ulHT-1" source="2vDhTpK1nkInd5D4ulHT-13" target="2vDhTpK1nkInd5D4ulHT-18" edge="1">
          <mxGeometry relative="1" as="geometry"/>
        </mxCell>
        <mxCell id="2vDhTpK1nkInd5D4ulHT-24" value="" style="endArrow=classic;html=1;" parent="2vDhTpK1nkInd5D4ulHT-1" source="2vDhTpK1nkInd5D4ulHT-2" target="2vDhTpK1nkInd5D4ulHT-4" edge="1">
          <mxGeometry width="50" height="50" relative="1" as="geometry">
            <mxPoint x="70" y="660" as="sourcePoint"/>
            <mxPoint x="120" y="610" as="targetPoint"/>
          </mxGeometry>
        </mxCell>
        <mxCell id="2vDhTpK1nkInd5D4ulHT-25" value="&lt;font style=&quot;font-size: 18px&quot;&gt;1. backup&lt;br&gt;&lt;a href=&quot;https://cloud.google.com/bigquery/table-decorators?hl=ja&quot;&gt;https://cloud.google.com/bigquery/table-decorators?hl=ja&lt;/a&gt;&lt;br&gt;これがあるので、バックアップは要らない？&lt;br&gt;&lt;/font&gt;" style="text;html=1;resizable=0;points=[];autosize=1;align=left;verticalAlign=top;spacingTop=-4;" parent="2vDhTpK1nkInd5D4ulHT-1" vertex="1">
          <mxGeometry x="480" y="443.5" width="470" height="50" as="geometry"/>
        </mxCell>
        <mxCell id="2vDhTpK1nkInd5D4ulHT-26" value="&lt;font style=&quot;font-size: 18px&quot;&gt;2. transfer&lt;/font&gt;" style="text;html=1;resizable=0;points=[];autosize=1;align=left;verticalAlign=top;spacingTop=-4;" parent="2vDhTpK1nkInd5D4ulHT-1" vertex="1">
          <mxGeometry x="104" y="200" width="100" height="20" as="geometry"/>
        </mxCell>
        <mxCell id="2vDhTpK1nkInd5D4ulHT-27" style="edgeStyle=orthogonalEdgeStyle;rounded=0;orthogonalLoop=1;jettySize=auto;html=1;exitX=1;exitY=0.5;exitDx=0;exitDy=0;entryX=0;entryY=0.5;entryDx=0;entryDy=0;" parent="2vDhTpK1nkInd5D4ulHT-1" source="2vDhTpK1nkInd5D4ulHT-7" target="2vDhTpK1nkInd5D4ulHT-12" edge="1">
          <mxGeometry relative="1" as="geometry">
            <Array as="points">
              <mxPoint x="310" y="447"/>
              <mxPoint x="310" y="382"/>
            </Array>
          </mxGeometry>
        </mxCell>
        <mxCell id="2vDhTpK1nkInd5D4ulHT-28" value="&lt;font style=&quot;font-size: 18px&quot;&gt;3. insert new entries&lt;/font&gt;" style="text;html=1;resizable=0;points=[];autosize=1;align=left;verticalAlign=top;spacingTop=-4;" parent="2vDhTpK1nkInd5D4ulHT-1" vertex="1">
          <mxGeometry x="170" y="463" width="180" height="20" as="geometry"/>
        </mxCell>
        <mxCell id="2vDhTpK1nkInd5D4ulHT-29" style="edgeStyle=orthogonalEdgeStyle;rounded=0;orthogonalLoop=1;jettySize=auto;html=1;exitX=1;exitY=0.5;exitDx=0;exitDy=0;entryX=0.25;entryY=0;entryDx=0;entryDy=0;" parent="2vDhTpK1nkInd5D4ulHT-1" source="2vDhTpK1nkInd5D4ulHT-5" target="2vDhTpK1nkInd5D4ulHT-10" edge="1">
          <mxGeometry relative="1" as="geometry"/>
        </mxCell>
        <mxCell id="2vDhTpK1nkInd5D4ulHT-30" value="&lt;font style=&quot;font-size: 18px&quot;&gt;4. update entries&lt;/font&gt;" style="text;html=1;resizable=0;points=[];autosize=1;align=left;verticalAlign=top;spacingTop=-4;" parent="2vDhTpK1nkInd5D4ulHT-1" vertex="1">
          <mxGeometry x="250" y="270" width="150" height="20" as="geometry"/>
        </mxCell>
        <mxCell id="2vDhTpK1nkInd5D4ulHT-31" value="&lt;font style=&quot;font-size: 18px&quot;&gt;5. Reconstruct&lt;/font&gt;" style="text;html=1;resizable=0;points=[];autosize=1;align=left;verticalAlign=top;spacingTop=-4;" parent="2vDhTpK1nkInd5D4ulHT-1" vertex="1">
          <mxGeometry x="465" y="356" width="130" height="20" as="geometry"/>
        </mxCell>
        <mxCell id="2vDhTpK1nkInd5D4ulHT-32" style="edgeStyle=orthogonalEdgeStyle;rounded=0;orthogonalLoop=1;jettySize=auto;html=1;exitX=1;exitY=0.5;exitDx=0;exitDy=0;entryX=0.006;entryY=0.269;entryDx=0;entryDy=0;entryPerimeter=0;" parent="2vDhTpK1nkInd5D4ulHT-1" source="2vDhTpK1nkInd5D4ulHT-12" target="2vDhTpK1nkInd5D4ulHT-16" edge="1">
          <mxGeometry relative="1" as="geometry"/>
        </mxCell>
        <mxCell id="2vDhTpK1nkInd5D4ulHT-33" value="Amazon S3" style="text;html=1;resizable=0;points=[];autosize=1;align=left;verticalAlign=top;spacingTop=-4;" parent="2vDhTpK1nkInd5D4ulHT-1" vertex="1">
          <mxGeometry x="113" y="63" width="80" height="20" as="geometry"/>
        </mxCell>
        <mxCell id="2vDhTpK1nkInd5D4ulHT-35" value="&lt;font style=&quot;font-size: 18px&quot;&gt;6. Clear tables&lt;/font&gt;" style="text;html=1;resizable=0;points=[];autosize=1;align=left;verticalAlign=top;spacingTop=-4;" parent="2vDhTpK1nkInd5D4ulHT-1" vertex="1">
          <mxGeometry x="-26" y="398" width="130" height="20" as="geometry"/>
        </mxCell>
      </root>
    </mxGraphModel>
  </diagram>
  <diagram id="bFC8Lj3BU25OLgl9qsR6" name="Page-6">
    <mxGraphModel dx="3764" dy="2457" grid="1" gridSize="10" guides="1" tooltips="1" connect="1" arrows="1" fold="1" page="1" pageScale="1" pageWidth="827" pageHeight="1169" math="0" shadow="0">
      <root>
        <mxCell id="NsLXYoZTtUMDjH7ZNLwZ-0"/>
        <mxCell id="NsLXYoZTtUMDjH7ZNLwZ-1" parent="NsLXYoZTtUMDjH7ZNLwZ-0"/>
        <mxCell id="NsLXYoZTtUMDjH7ZNLwZ-2" value="KOJIN(SMILE)" style="swimlane;fontStyle=0;childLayout=stackLayout;horizontal=1;startSize=26;fillColor=none;horizontalStack=0;resizeParent=1;resizeParentMax=0;resizeLast=0;collapsible=1;marginBottom=0;" parent="NsLXYoZTtUMDjH7ZNLwZ-1" vertex="1">
          <mxGeometry x="260" y="192" width="210" height="234" as="geometry"/>
        </mxCell>
        <mxCell id="NsLXYoZTtUMDjH7ZNLwZ-4" value="KOJIN_ID(個人ID)" style="text;strokeColor=none;fillColor=none;align=left;verticalAlign=top;spacingLeft=4;spacingRight=4;overflow=hidden;rotatable=0;points=[[0,0.5],[1,0.5]];portConstraint=eastwest;" parent="NsLXYoZTtUMDjH7ZNLwZ-2" vertex="1">
          <mxGeometry y="26" width="210" height="26" as="geometry"/>
        </mxCell>
        <mxCell id="NsLXYoZTtUMDjH7ZNLwZ-3" value="KOKO_CD" style="text;strokeColor=none;fillColor=none;align=left;verticalAlign=top;spacingLeft=4;spacingRight=4;overflow=hidden;rotatable=0;points=[[0,0.5],[1,0.5]];portConstraint=eastwest;" parent="NsLXYoZTtUMDjH7ZNLwZ-2" vertex="1">
          <mxGeometry y="52" width="210" height="26" as="geometry"/>
        </mxCell>
        <mxCell id="NsLXYoZTtUMDjH7ZNLwZ-5" value="SEIBETSU_CD(性別)" style="text;strokeColor=none;fillColor=none;align=left;verticalAlign=top;spacingLeft=4;spacingRight=4;overflow=hidden;rotatable=0;points=[[0,0.5],[1,0.5]];portConstraint=eastwest;" parent="NsLXYoZTtUMDjH7ZNLwZ-2" vertex="1">
          <mxGeometry y="78" width="210" height="26" as="geometry"/>
        </mxCell>
        <mxCell id="NsLXYoZTtUMDjH7ZNLwZ-13" value="SOTSUNEN(卒年)" style="text;strokeColor=none;fillColor=none;align=left;verticalAlign=top;spacingLeft=4;spacingRight=4;overflow=hidden;rotatable=0;points=[[0,0.5],[1,0.5]];portConstraint=eastwest;" parent="NsLXYoZTtUMDjH7ZNLwZ-2" vertex="1">
          <mxGeometry y="104" width="210" height="26" as="geometry"/>
        </mxCell>
        <mxCell id="NsLXYoZTtUMDjH7ZNLwZ-14" value="ZOKUSEI_CD(絞り込み用?)" style="text;strokeColor=none;fillColor=none;align=left;verticalAlign=top;spacingLeft=4;spacingRight=4;overflow=hidden;rotatable=0;points=[[0,0.5],[1,0.5]];portConstraint=eastwest;" parent="NsLXYoZTtUMDjH7ZNLwZ-2" vertex="1">
          <mxGeometry y="130" width="210" height="26" as="geometry"/>
        </mxCell>
        <mxCell id="NsLXYoZTtUMDjH7ZNLwZ-58" value="SHIMEI_SEI || SHIMEI_MEI" style="text;strokeColor=none;fillColor=none;align=left;verticalAlign=top;spacingLeft=4;spacingRight=4;overflow=hidden;rotatable=0;points=[[0,0.5],[1,0.5]];portConstraint=eastwest;" parent="NsLXYoZTtUMDjH7ZNLwZ-2" vertex="1">
          <mxGeometry y="156" width="210" height="26" as="geometry"/>
        </mxCell>
        <mxCell id="NsLXYoZTtUMDjH7ZNLwZ-59" value="SHIMEI_SEI || SHIMEI_MEI" style="text;strokeColor=none;fillColor=none;align=left;verticalAlign=top;spacingLeft=4;spacingRight=4;overflow=hidden;rotatable=0;points=[[0,0.5],[1,0.5]];portConstraint=eastwest;" parent="NsLXYoZTtUMDjH7ZNLwZ-2" vertex="1">
          <mxGeometry y="182" width="210" height="26" as="geometry"/>
        </mxCell>
        <mxCell id="NsLXYoZTtUMDjH7ZNLwZ-15" value="..." style="text;strokeColor=none;fillColor=none;align=left;verticalAlign=top;spacingLeft=4;spacingRight=4;overflow=hidden;rotatable=0;points=[[0,0.5],[1,0.5]];portConstraint=eastwest;" parent="NsLXYoZTtUMDjH7ZNLwZ-2" vertex="1">
          <mxGeometry y="208" width="210" height="26" as="geometry"/>
        </mxCell>
        <mxCell id="NsLXYoZTtUMDjH7ZNLwZ-6" value="KOKO_MST(SMILE)" style="swimlane;fontStyle=0;childLayout=stackLayout;horizontal=1;startSize=26;fillColor=none;horizontalStack=0;resizeParent=1;resizeParentMax=0;resizeLast=0;collapsible=1;marginBottom=0;" parent="NsLXYoZTtUMDjH7ZNLwZ-1" vertex="1">
          <mxGeometry x="570" y="413" width="180" height="156" as="geometry"/>
        </mxCell>
        <mxCell id="NsLXYoZTtUMDjH7ZNLwZ-7" value="KOKO_CD" style="text;strokeColor=none;fillColor=none;align=left;verticalAlign=top;spacingLeft=4;spacingRight=4;overflow=hidden;rotatable=0;points=[[0,0.5],[1,0.5]];portConstraint=eastwest;" parent="NsLXYoZTtUMDjH7ZNLwZ-6" vertex="1">
          <mxGeometry y="26" width="180" height="26" as="geometry"/>
        </mxCell>
        <mxCell id="NsLXYoZTtUMDjH7ZNLwZ-8" value="KOKO_MEI(高校名)" style="text;strokeColor=none;fillColor=none;align=left;verticalAlign=top;spacingLeft=4;spacingRight=4;overflow=hidden;rotatable=0;points=[[0,0.5],[1,0.5]];portConstraint=eastwest;" parent="NsLXYoZTtUMDjH7ZNLwZ-6" vertex="1">
          <mxGeometry y="52" width="180" height="26" as="geometry"/>
        </mxCell>
        <mxCell id="NsLXYoZTtUMDjH7ZNLwZ-9" value="DAITAN_TYPE(高校タイプ?)" style="text;strokeColor=none;fillColor=none;align=left;verticalAlign=top;spacingLeft=4;spacingRight=4;overflow=hidden;rotatable=0;points=[[0,0.5],[1,0.5]];portConstraint=eastwest;" parent="NsLXYoZTtUMDjH7ZNLwZ-6" vertex="1">
          <mxGeometry y="78" width="180" height="26" as="geometry"/>
        </mxCell>
        <mxCell id="NsLXYoZTtUMDjH7ZNLwZ-11" value="SENKAKU_TYPE(高校タイプ?)" style="text;strokeColor=none;fillColor=none;align=left;verticalAlign=top;spacingLeft=4;spacingRight=4;overflow=hidden;rotatable=0;points=[[0,0.5],[1,0.5]];portConstraint=eastwest;" parent="NsLXYoZTtUMDjH7ZNLwZ-6" vertex="1">
          <mxGeometry y="104" width="180" height="26" as="geometry"/>
        </mxCell>
        <mxCell id="NsLXYoZTtUMDjH7ZNLwZ-44" value="..." style="text;strokeColor=none;fillColor=none;align=left;verticalAlign=top;spacingLeft=4;spacingRight=4;overflow=hidden;rotatable=0;points=[[0,0.5],[1,0.5]];portConstraint=eastwest;" parent="NsLXYoZTtUMDjH7ZNLwZ-6" vertex="1">
          <mxGeometry y="130" width="180" height="26" as="geometry"/>
        </mxCell>
        <mxCell id="NsLXYoZTtUMDjH7ZNLwZ-10" style="edgeStyle=orthogonalEdgeStyle;rounded=0;orthogonalLoop=1;jettySize=auto;html=1;exitX=0;exitY=0.5;exitDx=0;exitDy=0;entryX=1;entryY=0.5;entryDx=0;entryDy=0;" parent="NsLXYoZTtUMDjH7ZNLwZ-1" source="NsLXYoZTtUMDjH7ZNLwZ-7" target="NsLXYoZTtUMDjH7ZNLwZ-3" edge="1">
          <mxGeometry relative="1" as="geometry"/>
        </mxCell>
        <mxCell id="NsLXYoZTtUMDjH7ZNLwZ-17" value="KOJIN_JUSHO(SMILE)" style="swimlane;fontStyle=0;childLayout=stackLayout;horizontal=1;startSize=26;fillColor=none;horizontalStack=0;resizeParent=1;resizeParentMax=0;resizeLast=0;collapsible=1;marginBottom=0;" parent="NsLXYoZTtUMDjH7ZNLwZ-1" vertex="1">
          <mxGeometry x="-40" y="335" width="140" height="104" as="geometry"/>
        </mxCell>
        <mxCell id="NsLXYoZTtUMDjH7ZNLwZ-18" value="KOJIN_ID" style="text;strokeColor=none;fillColor=none;align=left;verticalAlign=top;spacingLeft=4;spacingRight=4;overflow=hidden;rotatable=0;points=[[0,0.5],[1,0.5]];portConstraint=eastwest;" parent="NsLXYoZTtUMDjH7ZNLwZ-17" vertex="1">
          <mxGeometry y="26" width="140" height="26" as="geometry"/>
        </mxCell>
        <mxCell id="NsLXYoZTtUMDjH7ZNLwZ-19" value="TODOFUKEN_CD" style="text;strokeColor=none;fillColor=none;align=left;verticalAlign=top;spacingLeft=4;spacingRight=4;overflow=hidden;rotatable=0;points=[[0,0.5],[1,0.5]];portConstraint=eastwest;" parent="NsLXYoZTtUMDjH7ZNLwZ-17" vertex="1">
          <mxGeometry y="52" width="140" height="26" as="geometry"/>
        </mxCell>
        <mxCell id="NsLXYoZTtUMDjH7ZNLwZ-20" value="..." style="text;strokeColor=none;fillColor=none;align=left;verticalAlign=top;spacingLeft=4;spacingRight=4;overflow=hidden;rotatable=0;points=[[0,0.5],[1,0.5]];portConstraint=eastwest;" parent="NsLXYoZTtUMDjH7ZNLwZ-17" vertex="1">
          <mxGeometry y="78" width="140" height="26" as="geometry"/>
        </mxCell>
        <mxCell id="NsLXYoZTtUMDjH7ZNLwZ-22" style="edgeStyle=orthogonalEdgeStyle;rounded=0;orthogonalLoop=1;jettySize=auto;html=1;exitX=1;exitY=0.5;exitDx=0;exitDy=0;entryX=0;entryY=0.5;entryDx=0;entryDy=0;" parent="NsLXYoZTtUMDjH7ZNLwZ-1" source="NsLXYoZTtUMDjH7ZNLwZ-18" target="NsLXYoZTtUMDjH7ZNLwZ-4" edge="1">
          <mxGeometry relative="1" as="geometry"/>
        </mxCell>
        <mxCell id="NsLXYoZTtUMDjH7ZNLwZ-23" value="TODOFUKEN_MST(SMILE)" style="swimlane;fontStyle=0;childLayout=stackLayout;horizontal=1;startSize=26;fillColor=none;horizontalStack=0;resizeParent=1;resizeParentMax=0;resizeLast=0;collapsible=1;marginBottom=0;" parent="NsLXYoZTtUMDjH7ZNLwZ-1" vertex="1">
          <mxGeometry x="-45" y="482" width="350" height="130" as="geometry"/>
        </mxCell>
        <mxCell id="NsLXYoZTtUMDjH7ZNLwZ-24" value="TODOFUKEN_CD" style="text;strokeColor=none;fillColor=none;align=left;verticalAlign=top;spacingLeft=4;spacingRight=4;overflow=hidden;rotatable=0;points=[[0,0.5],[1,0.5]];portConstraint=eastwest;" parent="NsLXYoZTtUMDjH7ZNLwZ-23" vertex="1">
          <mxGeometry y="26" width="350" height="26" as="geometry"/>
        </mxCell>
        <mxCell id="NsLXYoZTtUMDjH7ZNLwZ-25" value="TODOFUKEN_MEI(エリア名(都道府県))" style="text;strokeColor=none;fillColor=none;align=left;verticalAlign=top;spacingLeft=4;spacingRight=4;overflow=hidden;rotatable=0;points=[[0,0.5],[1,0.5]];portConstraint=eastwest;" parent="NsLXYoZTtUMDjH7ZNLwZ-23" vertex="1">
          <mxGeometry y="52" width="350" height="26" as="geometry"/>
        </mxCell>
        <mxCell id="NsLXYoZTtUMDjH7ZNLwZ-26" value="CHIKI_CD" style="text;strokeColor=none;fillColor=none;align=left;verticalAlign=top;spacingLeft=4;spacingRight=4;overflow=hidden;rotatable=0;points=[[0,0.5],[1,0.5]];portConstraint=eastwest;" parent="NsLXYoZTtUMDjH7ZNLwZ-23" vertex="1">
          <mxGeometry y="78" width="350" height="26" as="geometry"/>
        </mxCell>
        <mxCell id="NsLXYoZTtUMDjH7ZNLwZ-45" value="..." style="text;strokeColor=none;fillColor=none;align=left;verticalAlign=top;spacingLeft=4;spacingRight=4;overflow=hidden;rotatable=0;points=[[0,0.5],[1,0.5]];portConstraint=eastwest;" parent="NsLXYoZTtUMDjH7ZNLwZ-23" vertex="1">
          <mxGeometry y="104" width="350" height="26" as="geometry"/>
        </mxCell>
        <mxCell id="NsLXYoZTtUMDjH7ZNLwZ-27" style="edgeStyle=orthogonalEdgeStyle;rounded=0;orthogonalLoop=1;jettySize=auto;html=1;exitX=0;exitY=0.5;exitDx=0;exitDy=0;entryX=0;entryY=0.5;entryDx=0;entryDy=0;" parent="NsLXYoZTtUMDjH7ZNLwZ-1" source="NsLXYoZTtUMDjH7ZNLwZ-24" target="NsLXYoZTtUMDjH7ZNLwZ-19" edge="1">
          <mxGeometry relative="1" as="geometry"/>
        </mxCell>
        <mxCell id="NsLXYoZTtUMDjH7ZNLwZ-28" value="CHIKI_MST(SMILE)" style="swimlane;fontStyle=0;childLayout=stackLayout;horizontal=1;startSize=26;fillColor=none;horizontalStack=0;resizeParent=1;resizeParentMax=0;resizeLast=0;collapsible=1;marginBottom=0;" parent="NsLXYoZTtUMDjH7ZNLwZ-1" vertex="1">
          <mxGeometry x="-45" y="664" width="140" height="104" as="geometry"/>
        </mxCell>
        <mxCell id="NsLXYoZTtUMDjH7ZNLwZ-29" value="CHIKI_CD" style="text;strokeColor=none;fillColor=none;align=left;verticalAlign=top;spacingLeft=4;spacingRight=4;overflow=hidden;rotatable=0;points=[[0,0.5],[1,0.5]];portConstraint=eastwest;" parent="NsLXYoZTtUMDjH7ZNLwZ-28" vertex="1">
          <mxGeometry y="26" width="140" height="26" as="geometry"/>
        </mxCell>
        <mxCell id="NsLXYoZTtUMDjH7ZNLwZ-30" value="CHIKI_MEI" style="text;strokeColor=none;fillColor=none;align=left;verticalAlign=top;spacingLeft=4;spacingRight=4;overflow=hidden;rotatable=0;points=[[0,0.5],[1,0.5]];portConstraint=eastwest;" parent="NsLXYoZTtUMDjH7ZNLwZ-28" vertex="1">
          <mxGeometry y="52" width="140" height="26" as="geometry"/>
        </mxCell>
        <mxCell id="NsLXYoZTtUMDjH7ZNLwZ-46" value="..." style="text;strokeColor=none;fillColor=none;align=left;verticalAlign=top;spacingLeft=4;spacingRight=4;overflow=hidden;rotatable=0;points=[[0,0.5],[1,0.5]];portConstraint=eastwest;" parent="NsLXYoZTtUMDjH7ZNLwZ-28" vertex="1">
          <mxGeometry y="78" width="140" height="26" as="geometry"/>
        </mxCell>
        <mxCell id="NsLXYoZTtUMDjH7ZNLwZ-32" style="edgeStyle=orthogonalEdgeStyle;rounded=0;orthogonalLoop=1;jettySize=auto;html=1;exitX=0;exitY=0.5;exitDx=0;exitDy=0;entryX=0;entryY=0.5;entryDx=0;entryDy=0;" parent="NsLXYoZTtUMDjH7ZNLwZ-1" source="NsLXYoZTtUMDjH7ZNLwZ-29" target="NsLXYoZTtUMDjH7ZNLwZ-26" edge="1">
          <mxGeometry relative="1" as="geometry"/>
        </mxCell>
        <mxCell id="NsLXYoZTtUMDjH7ZNLwZ-33" value="KOKO_HENSACHI_RANK(RIMSYS)" style="swimlane;fontStyle=0;childLayout=stackLayout;horizontal=1;startSize=26;fillColor=none;horizontalStack=0;resizeParent=1;resizeParentMax=0;resizeLast=0;collapsible=1;marginBottom=0;" parent="NsLXYoZTtUMDjH7ZNLwZ-1" vertex="1">
          <mxGeometry x="520" y="599" width="520" height="104" as="geometry"/>
        </mxCell>
        <mxCell id="NsLXYoZTtUMDjH7ZNLwZ-34" value="KOKO_CD" style="text;strokeColor=none;fillColor=none;align=left;verticalAlign=top;spacingLeft=4;spacingRight=4;overflow=hidden;rotatable=0;points=[[0,0.5],[1,0.5]];portConstraint=eastwest;" parent="NsLXYoZTtUMDjH7ZNLwZ-33" vertex="1">
          <mxGeometry y="26" width="520" height="26" as="geometry"/>
        </mxCell>
        <mxCell id="NsLXYoZTtUMDjH7ZNLwZ-35" value="KOKO_HENSACHI_CD（偏差値）" style="text;strokeColor=none;fillColor=none;align=left;verticalAlign=top;spacingLeft=4;spacingRight=4;overflow=hidden;rotatable=0;points=[[0,0.5],[1,0.5]];portConstraint=eastwest;" parent="NsLXYoZTtUMDjH7ZNLwZ-33" vertex="1">
          <mxGeometry y="52" width="520" height="26" as="geometry"/>
        </mxCell>
        <mxCell id="NsLXYoZTtUMDjH7ZNLwZ-36" value="..." style="text;strokeColor=none;fillColor=none;align=left;verticalAlign=top;spacingLeft=4;spacingRight=4;overflow=hidden;rotatable=0;points=[[0,0.5],[1,0.5]];portConstraint=eastwest;" parent="NsLXYoZTtUMDjH7ZNLwZ-33" vertex="1">
          <mxGeometry y="78" width="520" height="26" as="geometry"/>
        </mxCell>
        <mxCell id="NsLXYoZTtUMDjH7ZNLwZ-37" value="KOKO_HENSACHI_CODE_MST(RIMSYS)" style="swimlane;fontStyle=0;childLayout=stackLayout;horizontal=1;startSize=26;fillColor=none;horizontalStack=0;resizeParent=1;resizeParentMax=0;resizeLast=0;collapsible=1;marginBottom=0;" parent="NsLXYoZTtUMDjH7ZNLwZ-1" vertex="1">
          <mxGeometry x="520" y="742" width="240" height="104" as="geometry"/>
        </mxCell>
        <mxCell id="NsLXYoZTtUMDjH7ZNLwZ-38" value="KOKO_HENSACHI_CD" style="text;strokeColor=none;fillColor=none;align=left;verticalAlign=top;spacingLeft=4;spacingRight=4;overflow=hidden;rotatable=0;points=[[0,0.5],[1,0.5]];portConstraint=eastwest;" parent="NsLXYoZTtUMDjH7ZNLwZ-37" vertex="1">
          <mxGeometry y="26" width="240" height="26" as="geometry"/>
        </mxCell>
        <mxCell id="NsLXYoZTtUMDjH7ZNLwZ-39" value="KOKO_HENSACHI_MEI" style="text;strokeColor=none;fillColor=none;align=left;verticalAlign=top;spacingLeft=4;spacingRight=4;overflow=hidden;rotatable=0;points=[[0,0.5],[1,0.5]];portConstraint=eastwest;" parent="NsLXYoZTtUMDjH7ZNLwZ-37" vertex="1">
          <mxGeometry y="52" width="240" height="26" as="geometry"/>
        </mxCell>
        <mxCell id="NsLXYoZTtUMDjH7ZNLwZ-40" value="..." style="text;strokeColor=none;fillColor=none;align=left;verticalAlign=top;spacingLeft=4;spacingRight=4;overflow=hidden;rotatable=0;points=[[0,0.5],[1,0.5]];portConstraint=eastwest;" parent="NsLXYoZTtUMDjH7ZNLwZ-37" vertex="1">
          <mxGeometry y="78" width="240" height="26" as="geometry"/>
        </mxCell>
        <mxCell id="NsLXYoZTtUMDjH7ZNLwZ-42" style="edgeStyle=orthogonalEdgeStyle;rounded=0;orthogonalLoop=1;jettySize=auto;html=1;exitX=1;exitY=0.5;exitDx=0;exitDy=0;entryX=1;entryY=0.5;entryDx=0;entryDy=0;" parent="NsLXYoZTtUMDjH7ZNLwZ-1" source="NsLXYoZTtUMDjH7ZNLwZ-34" target="NsLXYoZTtUMDjH7ZNLwZ-7" edge="1">
          <mxGeometry relative="1" as="geometry"/>
        </mxCell>
        <mxCell id="NsLXYoZTtUMDjH7ZNLwZ-43" style="edgeStyle=orthogonalEdgeStyle;rounded=0;orthogonalLoop=1;jettySize=auto;html=1;exitX=1;exitY=0.5;exitDx=0;exitDy=0;entryX=1;entryY=0.5;entryDx=0;entryDy=0;" parent="NsLXYoZTtUMDjH7ZNLwZ-1" source="NsLXYoZTtUMDjH7ZNLwZ-38" target="NsLXYoZTtUMDjH7ZNLwZ-35" edge="1">
          <mxGeometry relative="1" as="geometry"/>
        </mxCell>
        <mxCell id="NsLXYoZTtUMDjH7ZNLwZ-47" value="SHIRYO_SEIKYU_RIREKI(RIMSYS)" style="swimlane;fontStyle=0;childLayout=stackLayout;horizontal=1;startSize=26;fillColor=none;horizontalStack=0;resizeParent=1;resizeParentMax=0;resizeLast=0;collapsible=1;marginBottom=0;" parent="NsLXYoZTtUMDjH7ZNLwZ-1" vertex="1">
          <mxGeometry x="-40" y="-146" width="230" height="260" as="geometry"/>
        </mxCell>
        <mxCell id="NsLXYoZTtUMDjH7ZNLwZ-48" value="SHIRYO_SEIKYU_RIREKI_ID" style="text;strokeColor=none;fillColor=none;align=left;verticalAlign=top;spacingLeft=4;spacingRight=4;overflow=hidden;rotatable=0;points=[[0,0.5],[1,0.5]];portConstraint=eastwest;" parent="NsLXYoZTtUMDjH7ZNLwZ-47" vertex="1">
          <mxGeometry y="26" width="230" height="26" as="geometry"/>
        </mxCell>
        <mxCell id="NsLXYoZTtUMDjH7ZNLwZ-51" value="CLIENT_CD" style="text;strokeColor=none;fillColor=none;align=left;verticalAlign=top;spacingLeft=4;spacingRight=4;overflow=hidden;rotatable=0;points=[[0,0.5],[1,0.5]];portConstraint=eastwest;" parent="NsLXYoZTtUMDjH7ZNLwZ-47" vertex="1">
          <mxGeometry y="52" width="230" height="26" as="geometry"/>
        </mxCell>
        <mxCell id="NsLXYoZTtUMDjH7ZNLwZ-50" value="KOJIN_ID" style="text;strokeColor=none;fillColor=none;align=left;verticalAlign=top;spacingLeft=4;spacingRight=4;overflow=hidden;rotatable=0;points=[[0,0.5],[1,0.5]];portConstraint=eastwest;" parent="NsLXYoZTtUMDjH7ZNLwZ-47" vertex="1">
          <mxGeometry y="78" width="230" height="26" as="geometry"/>
        </mxCell>
        <mxCell id="NsLXYoZTtUMDjH7ZNLwZ-49" value="SHIRYO_SEIKYU_ID" style="text;strokeColor=none;fillColor=none;align=left;verticalAlign=top;spacingLeft=4;spacingRight=4;overflow=hidden;rotatable=0;points=[[0,0.5],[1,0.5]];portConstraint=eastwest;" parent="NsLXYoZTtUMDjH7ZNLwZ-47" vertex="1">
          <mxGeometry y="104" width="230" height="26" as="geometry"/>
        </mxCell>
        <mxCell id="NsLXYoZTtUMDjH7ZNLwZ-52" value="SHIKOU_GAKUBU_CD(希望？)" style="text;strokeColor=none;fillColor=none;align=left;verticalAlign=top;spacingLeft=4;spacingRight=4;overflow=hidden;rotatable=0;points=[[0,0.5],[1,0.5]];portConstraint=eastwest;" parent="NsLXYoZTtUMDjH7ZNLwZ-47" vertex="1">
          <mxGeometry y="130" width="230" height="26" as="geometry"/>
        </mxCell>
        <mxCell id="ngVqm2jK2bZw7VQzEvIM-0" value="SHIKOU_GAKUBU_MEI(希望？)" style="text;strokeColor=none;fillColor=none;align=left;verticalAlign=top;spacingLeft=4;spacingRight=4;overflow=hidden;rotatable=0;points=[[0,0.5],[1,0.5]];portConstraint=eastwest;" parent="NsLXYoZTtUMDjH7ZNLwZ-47" vertex="1">
          <mxGeometry y="156" width="230" height="26" as="geometry"/>
        </mxCell>
        <mxCell id="ngVqm2jK2bZw7VQzEvIM-1" value="SHIKOU_GAKKA_CD(希望？)" style="text;strokeColor=none;fillColor=none;align=left;verticalAlign=top;spacingLeft=4;spacingRight=4;overflow=hidden;rotatable=0;points=[[0,0.5],[1,0.5]];portConstraint=eastwest;" parent="NsLXYoZTtUMDjH7ZNLwZ-47" vertex="1">
          <mxGeometry y="182" width="230" height="26" as="geometry"/>
        </mxCell>
        <mxCell id="ngVqm2jK2bZw7VQzEvIM-10" value="SHIKOU_GAKKA_MEI(希望？)" style="text;strokeColor=none;fillColor=none;align=left;verticalAlign=top;spacingLeft=4;spacingRight=4;overflow=hidden;rotatable=0;points=[[0,0.5],[1,0.5]];portConstraint=eastwest;" parent="NsLXYoZTtUMDjH7ZNLwZ-47" vertex="1">
          <mxGeometry y="208" width="230" height="26" as="geometry"/>
        </mxCell>
        <mxCell id="ngVqm2jK2bZw7VQzEvIM-11" value="..." style="text;strokeColor=none;fillColor=none;align=left;verticalAlign=top;spacingLeft=4;spacingRight=4;overflow=hidden;rotatable=0;points=[[0,0.5],[1,0.5]];portConstraint=eastwest;" parent="NsLXYoZTtUMDjH7ZNLwZ-47" vertex="1">
          <mxGeometry y="234" width="230" height="26" as="geometry"/>
        </mxCell>
        <mxCell id="NsLXYoZTtUMDjH7ZNLwZ-53" value="SHIRYOSEIKYU(SMILE)" style="swimlane;fontStyle=0;childLayout=stackLayout;horizontal=1;startSize=26;fillColor=none;horizontalStack=0;resizeParent=1;resizeParentMax=0;resizeLast=0;collapsible=1;marginBottom=0;" parent="NsLXYoZTtUMDjH7ZNLwZ-1" vertex="1">
          <mxGeometry x="-40" y="144" width="190" height="104" as="geometry"/>
        </mxCell>
        <mxCell id="NsLXYoZTtUMDjH7ZNLwZ-54" value="SHIRYOSEIKYU_ID" style="text;strokeColor=none;fillColor=none;align=left;verticalAlign=top;spacingLeft=4;spacingRight=4;overflow=hidden;rotatable=0;points=[[0,0.5],[1,0.5]];portConstraint=eastwest;" parent="NsLXYoZTtUMDjH7ZNLwZ-53" vertex="1">
          <mxGeometry y="26" width="190" height="26" as="geometry"/>
        </mxCell>
        <mxCell id="NsLXYoZTtUMDjH7ZNLwZ-55" value="KOJIN_ID" style="text;strokeColor=none;fillColor=none;align=left;verticalAlign=top;spacingLeft=4;spacingRight=4;overflow=hidden;rotatable=0;points=[[0,0.5],[1,0.5]];portConstraint=eastwest;" parent="NsLXYoZTtUMDjH7ZNLwZ-53" vertex="1">
          <mxGeometry y="52" width="190" height="26" as="geometry"/>
        </mxCell>
        <mxCell id="NsLXYoZTtUMDjH7ZNLwZ-56" value="..." style="text;strokeColor=none;fillColor=none;align=left;verticalAlign=top;spacingLeft=4;spacingRight=4;overflow=hidden;rotatable=0;points=[[0,0.5],[1,0.5]];portConstraint=eastwest;" parent="NsLXYoZTtUMDjH7ZNLwZ-53" vertex="1">
          <mxGeometry y="78" width="190" height="26" as="geometry"/>
        </mxCell>
        <mxCell id="NsLXYoZTtUMDjH7ZNLwZ-60" style="edgeStyle=orthogonalEdgeStyle;rounded=0;orthogonalLoop=1;jettySize=auto;html=1;exitX=1;exitY=0.5;exitDx=0;exitDy=0;entryX=0;entryY=0.5;entryDx=0;entryDy=0;" parent="NsLXYoZTtUMDjH7ZNLwZ-1" source="NsLXYoZTtUMDjH7ZNLwZ-55" target="NsLXYoZTtUMDjH7ZNLwZ-4" edge="1">
          <mxGeometry relative="1" as="geometry"/>
        </mxCell>
        <mxCell id="NsLXYoZTtUMDjH7ZNLwZ-61" style="edgeStyle=orthogonalEdgeStyle;rounded=0;orthogonalLoop=1;jettySize=auto;html=1;exitX=0;exitY=0.5;exitDx=0;exitDy=0;entryX=0;entryY=0.5;entryDx=0;entryDy=0;" parent="NsLXYoZTtUMDjH7ZNLwZ-1" source="NsLXYoZTtUMDjH7ZNLwZ-54" target="NsLXYoZTtUMDjH7ZNLwZ-49" edge="1">
          <mxGeometry relative="1" as="geometry"/>
        </mxCell>
        <mxCell id="NsLXYoZTtUMDjH7ZNLwZ-62" value="KIBO_GAKUBUGAKKA(RIMSYS)" style="swimlane;fontStyle=0;childLayout=stackLayout;horizontal=1;startSize=26;fillColor=none;horizontalStack=0;resizeParent=1;resizeParentMax=0;resizeLast=0;collapsible=1;marginBottom=0;" parent="NsLXYoZTtUMDjH7ZNLwZ-1" vertex="1">
          <mxGeometry x="335" y="-29" width="210" height="156" as="geometry"/>
        </mxCell>
        <mxCell id="NsLXYoZTtUMDjH7ZNLwZ-63" value="CONTACT_RIREKI_ID" style="text;strokeColor=none;fillColor=none;align=left;verticalAlign=top;spacingLeft=4;spacingRight=4;overflow=hidden;rotatable=0;points=[[0,0.5],[1,0.5]];portConstraint=eastwest;" parent="NsLXYoZTtUMDjH7ZNLwZ-62" vertex="1">
          <mxGeometry y="26" width="210" height="26" as="geometry"/>
        </mxCell>
        <mxCell id="NsLXYoZTtUMDjH7ZNLwZ-64" value="CLIENT_CD" style="text;strokeColor=none;fillColor=none;align=left;verticalAlign=top;spacingLeft=4;spacingRight=4;overflow=hidden;rotatable=0;points=[[0,0.5],[1,0.5]];portConstraint=eastwest;" parent="NsLXYoZTtUMDjH7ZNLwZ-62" vertex="1">
          <mxGeometry y="52" width="210" height="26" as="geometry"/>
        </mxCell>
        <mxCell id="NsLXYoZTtUMDjH7ZNLwZ-65" value="KOJIN_ID" style="text;strokeColor=none;fillColor=none;align=left;verticalAlign=top;spacingLeft=4;spacingRight=4;overflow=hidden;rotatable=0;points=[[0,0.5],[1,0.5]];portConstraint=eastwest;" parent="NsLXYoZTtUMDjH7ZNLwZ-62" vertex="1">
          <mxGeometry y="78" width="210" height="26" as="geometry"/>
        </mxCell>
        <mxCell id="NsLXYoZTtUMDjH7ZNLwZ-68" value="ORG_CD" style="text;strokeColor=none;fillColor=none;align=left;verticalAlign=top;spacingLeft=4;spacingRight=4;overflow=hidden;rotatable=0;points=[[0,0.5],[1,0.5]];portConstraint=eastwest;" parent="NsLXYoZTtUMDjH7ZNLwZ-62" vertex="1">
          <mxGeometry y="104" width="210" height="26" as="geometry"/>
        </mxCell>
        <mxCell id="NsLXYoZTtUMDjH7ZNLwZ-67" value="..." style="text;strokeColor=none;fillColor=none;align=left;verticalAlign=top;spacingLeft=4;spacingRight=4;overflow=hidden;rotatable=0;points=[[0,0.5],[1,0.5]];portConstraint=eastwest;" parent="NsLXYoZTtUMDjH7ZNLwZ-62" vertex="1">
          <mxGeometry y="130" width="210" height="26" as="geometry"/>
        </mxCell>
        <mxCell id="NsLXYoZTtUMDjH7ZNLwZ-69" value="EDUCATIONAL_ORG(RIMSYS)" style="swimlane;fontStyle=0;childLayout=stackLayout;horizontal=1;startSize=26;fillColor=none;horizontalStack=0;resizeParent=1;resizeParentMax=0;resizeLast=0;collapsible=1;marginBottom=0;" parent="NsLXYoZTtUMDjH7ZNLwZ-1" vertex="1">
          <mxGeometry x="570" y="153" width="200" height="182" as="geometry"/>
        </mxCell>
        <mxCell id="NsLXYoZTtUMDjH7ZNLwZ-70" value="ORG_CD" style="text;strokeColor=none;fillColor=none;align=left;verticalAlign=top;spacingLeft=4;spacingRight=4;overflow=hidden;rotatable=0;points=[[0,0.5],[1,0.5]];portConstraint=eastwest;" parent="NsLXYoZTtUMDjH7ZNLwZ-69" vertex="1">
          <mxGeometry y="26" width="200" height="26" as="geometry"/>
        </mxCell>
        <mxCell id="NsLXYoZTtUMDjH7ZNLwZ-71" value="ORG_NM" style="text;strokeColor=none;fillColor=none;align=left;verticalAlign=top;spacingLeft=4;spacingRight=4;overflow=hidden;rotatable=0;points=[[0,0.5],[1,0.5]];portConstraint=eastwest;" parent="NsLXYoZTtUMDjH7ZNLwZ-69" vertex="1">
          <mxGeometry y="52" width="200" height="26" as="geometry"/>
        </mxCell>
        <mxCell id="NsLXYoZTtUMDjH7ZNLwZ-72" value="GAKKO_CD" style="text;strokeColor=none;fillColor=none;align=left;verticalAlign=top;spacingLeft=4;spacingRight=4;overflow=hidden;rotatable=0;points=[[0,0.5],[1,0.5]];portConstraint=eastwest;" parent="NsLXYoZTtUMDjH7ZNLwZ-69" vertex="1">
          <mxGeometry y="78" width="200" height="26" as="geometry"/>
        </mxCell>
        <mxCell id="NsLXYoZTtUMDjH7ZNLwZ-73" value="GAKUBU_CD" style="text;strokeColor=none;fillColor=none;align=left;verticalAlign=top;spacingLeft=4;spacingRight=4;overflow=hidden;rotatable=0;points=[[0,0.5],[1,0.5]];portConstraint=eastwest;" parent="NsLXYoZTtUMDjH7ZNLwZ-69" vertex="1">
          <mxGeometry y="104" width="200" height="26" as="geometry"/>
        </mxCell>
        <mxCell id="NsLXYoZTtUMDjH7ZNLwZ-74" value="GAKKA_CD" style="text;strokeColor=none;fillColor=none;align=left;verticalAlign=top;spacingLeft=4;spacingRight=4;overflow=hidden;rotatable=0;points=[[0,0.5],[1,0.5]];portConstraint=eastwest;" parent="NsLXYoZTtUMDjH7ZNLwZ-69" vertex="1">
          <mxGeometry y="130" width="200" height="26" as="geometry"/>
        </mxCell>
        <mxCell id="NsLXYoZTtUMDjH7ZNLwZ-75" value="..." style="text;strokeColor=none;fillColor=none;align=left;verticalAlign=top;spacingLeft=4;spacingRight=4;overflow=hidden;rotatable=0;points=[[0,0.5],[1,0.5]];portConstraint=eastwest;" parent="NsLXYoZTtUMDjH7ZNLwZ-69" vertex="1">
          <mxGeometry y="156" width="200" height="26" as="geometry"/>
        </mxCell>
        <mxCell id="NsLXYoZTtUMDjH7ZNLwZ-77" value="KENGAKU_YOYAKU(SHINRO)" style="swimlane;fontStyle=0;childLayout=stackLayout;horizontal=1;startSize=26;fillColor=none;horizontalStack=0;resizeParent=1;resizeParentMax=0;resizeLast=0;collapsible=1;marginBottom=0;" parent="NsLXYoZTtUMDjH7ZNLwZ-1" vertex="1">
          <mxGeometry x="625" y="-250" width="250" height="104" as="geometry"/>
        </mxCell>
        <mxCell id="NsLXYoZTtUMDjH7ZNLwZ-78" value="YOYAKU_NO" style="text;strokeColor=none;fillColor=none;align=left;verticalAlign=top;spacingLeft=4;spacingRight=4;overflow=hidden;rotatable=0;points=[[0,0.5],[1,0.5]];portConstraint=eastwest;" parent="NsLXYoZTtUMDjH7ZNLwZ-77" vertex="1">
          <mxGeometry y="26" width="250" height="26" as="geometry"/>
        </mxCell>
        <mxCell id="NsLXYoZTtUMDjH7ZNLwZ-80" value="MEMBER_ID" style="text;strokeColor=none;fillColor=none;align=left;verticalAlign=top;spacingLeft=4;spacingRight=4;overflow=hidden;rotatable=0;points=[[0,0.5],[1,0.5]];portConstraint=eastwest;" parent="NsLXYoZTtUMDjH7ZNLwZ-77" vertex="1">
          <mxGeometry y="52" width="250" height="26" as="geometry"/>
        </mxCell>
        <mxCell id="NsLXYoZTtUMDjH7ZNLwZ-79" value="..." style="text;strokeColor=none;fillColor=none;align=left;verticalAlign=top;spacingLeft=4;spacingRight=4;overflow=hidden;rotatable=0;points=[[0,0.5],[1,0.5]];portConstraint=eastwest;" parent="NsLXYoZTtUMDjH7ZNLwZ-77" vertex="1">
          <mxGeometry y="78" width="250" height="26" as="geometry"/>
        </mxCell>
        <mxCell id="NsLXYoZTtUMDjH7ZNLwZ-81" value="EVENT_YOYAKU_RIREKI(RIMSYS)" style="swimlane;fontStyle=0;childLayout=stackLayout;horizontal=1;startSize=26;fillColor=none;horizontalStack=0;resizeParent=1;resizeParentMax=0;resizeLast=0;collapsible=1;marginBottom=0;" parent="NsLXYoZTtUMDjH7ZNLwZ-1" vertex="1">
          <mxGeometry x="280" y="-354" width="230" height="286" as="geometry"/>
        </mxCell>
        <mxCell id="NsLXYoZTtUMDjH7ZNLwZ-82" value="EVENT_YOYAKU_RIREKI_ID" style="text;strokeColor=none;fillColor=none;align=left;verticalAlign=top;spacingLeft=4;spacingRight=4;overflow=hidden;rotatable=0;points=[[0,0.5],[1,0.5]];portConstraint=eastwest;" parent="NsLXYoZTtUMDjH7ZNLwZ-81" vertex="1">
          <mxGeometry y="26" width="230" height="26" as="geometry"/>
        </mxCell>
        <mxCell id="NsLXYoZTtUMDjH7ZNLwZ-83" value="CLIENT_CD" style="text;strokeColor=none;fillColor=none;align=left;verticalAlign=top;spacingLeft=4;spacingRight=4;overflow=hidden;rotatable=0;points=[[0,0.5],[1,0.5]];portConstraint=eastwest;" parent="NsLXYoZTtUMDjH7ZNLwZ-81" vertex="1">
          <mxGeometry y="52" width="230" height="26" as="geometry"/>
        </mxCell>
        <mxCell id="NsLXYoZTtUMDjH7ZNLwZ-84" value="KOJIN_ID" style="text;strokeColor=none;fillColor=none;align=left;verticalAlign=top;spacingLeft=4;spacingRight=4;overflow=hidden;rotatable=0;points=[[0,0.5],[1,0.5]];portConstraint=eastwest;" parent="NsLXYoZTtUMDjH7ZNLwZ-81" vertex="1">
          <mxGeometry y="78" width="230" height="26" as="geometry"/>
        </mxCell>
        <mxCell id="dF5DPAZWTMF8y1XQBSr--3" value="EVENT_PROGRAM_ID" style="text;strokeColor=none;fillColor=none;align=left;verticalAlign=top;spacingLeft=4;spacingRight=4;overflow=hidden;rotatable=0;points=[[0,0.5],[1,0.5]];portConstraint=eastwest;" parent="NsLXYoZTtUMDjH7ZNLwZ-81" vertex="1">
          <mxGeometry y="104" width="230" height="26" as="geometry"/>
        </mxCell>
        <mxCell id="NsLXYoZTtUMDjH7ZNLwZ-85" value="MOSHIKOMI_DATE" style="text;strokeColor=none;fillColor=none;align=left;verticalAlign=top;spacingLeft=4;spacingRight=4;overflow=hidden;rotatable=0;points=[[0,0.5],[1,0.5]];portConstraint=eastwest;" parent="NsLXYoZTtUMDjH7ZNLwZ-81" vertex="1">
          <mxGeometry y="130" width="230" height="26" as="geometry"/>
        </mxCell>
        <mxCell id="NsLXYoZTtUMDjH7ZNLwZ-86" value="CANCEL_DATE" style="text;strokeColor=none;fillColor=none;align=left;verticalAlign=top;spacingLeft=4;spacingRight=4;overflow=hidden;rotatable=0;points=[[0,0.5],[1,0.5]];portConstraint=eastwest;" parent="NsLXYoZTtUMDjH7ZNLwZ-81" vertex="1">
          <mxGeometry y="156" width="230" height="26" as="geometry"/>
        </mxCell>
        <mxCell id="NsLXYoZTtUMDjH7ZNLwZ-87" value="TORIKOMI_DATE" style="text;strokeColor=none;fillColor=none;align=left;verticalAlign=top;spacingLeft=4;spacingRight=4;overflow=hidden;rotatable=0;points=[[0,0.5],[1,0.5]];portConstraint=eastwest;" parent="NsLXYoZTtUMDjH7ZNLwZ-81" vertex="1">
          <mxGeometry y="182" width="230" height="26" as="geometry"/>
        </mxCell>
        <mxCell id="NsLXYoZTtUMDjH7ZNLwZ-88" value="CANCEL_TORIKOMI_DATE" style="text;strokeColor=none;fillColor=none;align=left;verticalAlign=top;spacingLeft=4;spacingRight=4;overflow=hidden;rotatable=0;points=[[0,0.5],[1,0.5]];portConstraint=eastwest;" parent="NsLXYoZTtUMDjH7ZNLwZ-81" vertex="1">
          <mxGeometry y="208" width="230" height="26" as="geometry"/>
        </mxCell>
        <mxCell id="NsLXYoZTtUMDjH7ZNLwZ-89" value="TORIKOMI_SHUBETSU" style="text;strokeColor=none;fillColor=none;align=left;verticalAlign=top;spacingLeft=4;spacingRight=4;overflow=hidden;rotatable=0;points=[[0,0.5],[1,0.5]];portConstraint=eastwest;" parent="NsLXYoZTtUMDjH7ZNLwZ-81" vertex="1">
          <mxGeometry y="234" width="230" height="26" as="geometry"/>
        </mxCell>
        <mxCell id="NsLXYoZTtUMDjH7ZNLwZ-90" value="..." style="text;strokeColor=none;fillColor=none;align=left;verticalAlign=top;spacingLeft=4;spacingRight=4;overflow=hidden;rotatable=0;points=[[0,0.5],[1,0.5]];portConstraint=eastwest;" parent="NsLXYoZTtUMDjH7ZNLwZ-81" vertex="1">
          <mxGeometry y="260" width="230" height="26" as="geometry"/>
        </mxCell>
        <mxCell id="NsLXYoZTtUMDjH7ZNLwZ-95" value="GAKKO(RIMSYS)" style="swimlane;fontStyle=0;childLayout=stackLayout;horizontal=1;startSize=26;fillColor=none;horizontalStack=0;resizeParent=1;resizeParentMax=0;resizeLast=0;collapsible=1;marginBottom=0;" parent="NsLXYoZTtUMDjH7ZNLwZ-1" vertex="1">
          <mxGeometry x="900" y="-53" width="190" height="130" as="geometry"/>
        </mxCell>
        <mxCell id="NsLXYoZTtUMDjH7ZNLwZ-96" value="GAKKO_CD" style="text;strokeColor=none;fillColor=none;align=left;verticalAlign=top;spacingLeft=4;spacingRight=4;overflow=hidden;rotatable=0;points=[[0,0.5],[1,0.5]];portConstraint=eastwest;" parent="NsLXYoZTtUMDjH7ZNLwZ-95" vertex="1">
          <mxGeometry y="26" width="190" height="26" as="geometry"/>
        </mxCell>
        <mxCell id="NsLXYoZTtUMDjH7ZNLwZ-97" value="KOSHU_CD" style="text;strokeColor=none;fillColor=none;align=left;verticalAlign=top;spacingLeft=4;spacingRight=4;overflow=hidden;rotatable=0;points=[[0,0.5],[1,0.5]];portConstraint=eastwest;" parent="NsLXYoZTtUMDjH7ZNLwZ-95" vertex="1">
          <mxGeometry y="52" width="190" height="26" as="geometry"/>
        </mxCell>
        <mxCell id="NsLXYoZTtUMDjH7ZNLwZ-98" value="FIRST_GAKKO_CD" style="text;strokeColor=none;fillColor=none;align=left;verticalAlign=top;spacingLeft=4;spacingRight=4;overflow=hidden;rotatable=0;points=[[0,0.5],[1,0.5]];portConstraint=eastwest;" parent="NsLXYoZTtUMDjH7ZNLwZ-95" vertex="1">
          <mxGeometry y="78" width="190" height="26" as="geometry"/>
        </mxCell>
        <mxCell id="NsLXYoZTtUMDjH7ZNLwZ-99" value="..." style="text;strokeColor=none;fillColor=none;align=left;verticalAlign=top;spacingLeft=4;spacingRight=4;overflow=hidden;rotatable=0;points=[[0,0.5],[1,0.5]];portConstraint=eastwest;" parent="NsLXYoZTtUMDjH7ZNLwZ-95" vertex="1">
          <mxGeometry y="104" width="190" height="26" as="geometry"/>
        </mxCell>
        <mxCell id="NsLXYoZTtUMDjH7ZNLwZ-101" value="GAKUBU_MASTER(RIMSYS)" style="swimlane;fontStyle=0;childLayout=stackLayout;horizontal=1;startSize=26;fillColor=none;horizontalStack=0;resizeParent=1;resizeParentMax=0;resizeLast=0;collapsible=1;marginBottom=0;" parent="NsLXYoZTtUMDjH7ZNLwZ-1" vertex="1">
          <mxGeometry x="930" y="106" width="190" height="130" as="geometry"/>
        </mxCell>
        <mxCell id="NsLXYoZTtUMDjH7ZNLwZ-102" value="CLIENT_CD" style="text;strokeColor=none;fillColor=none;align=left;verticalAlign=top;spacingLeft=4;spacingRight=4;overflow=hidden;rotatable=0;points=[[0,0.5],[1,0.5]];portConstraint=eastwest;" parent="NsLXYoZTtUMDjH7ZNLwZ-101" vertex="1">
          <mxGeometry y="26" width="190" height="26" as="geometry"/>
        </mxCell>
        <mxCell id="NsLXYoZTtUMDjH7ZNLwZ-103" value="GAKUBU_CD" style="text;strokeColor=none;fillColor=none;align=left;verticalAlign=top;spacingLeft=4;spacingRight=4;overflow=hidden;rotatable=0;points=[[0,0.5],[1,0.5]];portConstraint=eastwest;" parent="NsLXYoZTtUMDjH7ZNLwZ-101" vertex="1">
          <mxGeometry y="52" width="190" height="26" as="geometry"/>
        </mxCell>
        <mxCell id="NsLXYoZTtUMDjH7ZNLwZ-104" value="GAKUBU_MEI(希望？)" style="text;strokeColor=none;fillColor=none;align=left;verticalAlign=top;spacingLeft=4;spacingRight=4;overflow=hidden;rotatable=0;points=[[0,0.5],[1,0.5]];portConstraint=eastwest;" parent="NsLXYoZTtUMDjH7ZNLwZ-101" vertex="1">
          <mxGeometry y="78" width="190" height="26" as="geometry"/>
        </mxCell>
        <mxCell id="NsLXYoZTtUMDjH7ZNLwZ-107" value="..." style="text;strokeColor=none;fillColor=none;align=left;verticalAlign=top;spacingLeft=4;spacingRight=4;overflow=hidden;rotatable=0;points=[[0,0.5],[1,0.5]];portConstraint=eastwest;" parent="NsLXYoZTtUMDjH7ZNLwZ-101" vertex="1">
          <mxGeometry y="104" width="190" height="26" as="geometry"/>
        </mxCell>
        <mxCell id="ngVqm2jK2bZw7VQzEvIM-14" value="GAKKA_MASTER(RIMSYS)" style="swimlane;fontStyle=0;childLayout=stackLayout;horizontal=1;startSize=26;fillColor=none;horizontalStack=0;resizeParent=1;resizeParentMax=0;resizeLast=0;collapsible=1;marginBottom=0;" parent="NsLXYoZTtUMDjH7ZNLwZ-1" vertex="1">
          <mxGeometry x="910" y="283" width="200" height="156" as="geometry"/>
        </mxCell>
        <mxCell id="ngVqm2jK2bZw7VQzEvIM-15" value="CLIENT_CD" style="text;strokeColor=none;fillColor=none;align=left;verticalAlign=top;spacingLeft=4;spacingRight=4;overflow=hidden;rotatable=0;points=[[0,0.5],[1,0.5]];portConstraint=eastwest;" parent="ngVqm2jK2bZw7VQzEvIM-14" vertex="1">
          <mxGeometry y="26" width="200" height="26" as="geometry"/>
        </mxCell>
        <mxCell id="ngVqm2jK2bZw7VQzEvIM-16" value="GAKUBU_CD" style="text;strokeColor=none;fillColor=none;align=left;verticalAlign=top;spacingLeft=4;spacingRight=4;overflow=hidden;rotatable=0;points=[[0,0.5],[1,0.5]];portConstraint=eastwest;" parent="ngVqm2jK2bZw7VQzEvIM-14" vertex="1">
          <mxGeometry y="52" width="200" height="26" as="geometry"/>
        </mxCell>
        <mxCell id="ngVqm2jK2bZw7VQzEvIM-17" value="GAKKA_CD" style="text;strokeColor=none;fillColor=none;align=left;verticalAlign=top;spacingLeft=4;spacingRight=4;overflow=hidden;rotatable=0;points=[[0,0.5],[1,0.5]];portConstraint=eastwest;" parent="ngVqm2jK2bZw7VQzEvIM-14" vertex="1">
          <mxGeometry y="78" width="200" height="26" as="geometry"/>
        </mxCell>
        <mxCell id="ngVqm2jK2bZw7VQzEvIM-23" value="GAKKA_MEI(希望？)" style="text;strokeColor=none;fillColor=none;align=left;verticalAlign=top;spacingLeft=4;spacingRight=4;overflow=hidden;rotatable=0;points=[[0,0.5],[1,0.5]];portConstraint=eastwest;" parent="ngVqm2jK2bZw7VQzEvIM-14" vertex="1">
          <mxGeometry y="104" width="200" height="26" as="geometry"/>
        </mxCell>
        <mxCell id="ngVqm2jK2bZw7VQzEvIM-24" value="..." style="text;strokeColor=none;fillColor=none;align=left;verticalAlign=top;spacingLeft=4;spacingRight=4;overflow=hidden;rotatable=0;points=[[0,0.5],[1,0.5]];portConstraint=eastwest;" parent="ngVqm2jK2bZw7VQzEvIM-14" vertex="1">
          <mxGeometry y="130" width="200" height="26" as="geometry"/>
        </mxCell>
        <mxCell id="ngVqm2jK2bZw7VQzEvIM-25" style="edgeStyle=orthogonalEdgeStyle;rounded=0;orthogonalLoop=1;jettySize=auto;html=1;exitX=0;exitY=0.5;exitDx=0;exitDy=0;entryX=1;entryY=0.5;entryDx=0;entryDy=0;" parent="NsLXYoZTtUMDjH7ZNLwZ-1" source="NsLXYoZTtUMDjH7ZNLwZ-84" target="NsLXYoZTtUMDjH7ZNLwZ-50" edge="1">
          <mxGeometry relative="1" as="geometry"/>
        </mxCell>
        <mxCell id="ngVqm2jK2bZw7VQzEvIM-27" style="edgeStyle=orthogonalEdgeStyle;rounded=0;orthogonalLoop=1;jettySize=auto;html=1;exitX=0;exitY=0.5;exitDx=0;exitDy=0;entryX=1;entryY=0.5;entryDx=0;entryDy=0;" parent="NsLXYoZTtUMDjH7ZNLwZ-1" source="NsLXYoZTtUMDjH7ZNLwZ-65" target="NsLXYoZTtUMDjH7ZNLwZ-50" edge="1">
          <mxGeometry relative="1" as="geometry"/>
        </mxCell>
        <mxCell id="ngVqm2jK2bZw7VQzEvIM-29" style="edgeStyle=orthogonalEdgeStyle;rounded=0;orthogonalLoop=1;jettySize=auto;html=1;exitX=1;exitY=0.5;exitDx=0;exitDy=0;entryX=1;entryY=0.5;entryDx=0;entryDy=0;" parent="NsLXYoZTtUMDjH7ZNLwZ-1" source="NsLXYoZTtUMDjH7ZNLwZ-70" target="NsLXYoZTtUMDjH7ZNLwZ-68" edge="1">
          <mxGeometry relative="1" as="geometry"/>
        </mxCell>
        <mxCell id="ngVqm2jK2bZw7VQzEvIM-30" style="edgeStyle=orthogonalEdgeStyle;rounded=0;orthogonalLoop=1;jettySize=auto;html=1;exitX=0;exitY=0.5;exitDx=0;exitDy=0;entryX=1;entryY=0.5;entryDx=0;entryDy=0;" parent="NsLXYoZTtUMDjH7ZNLwZ-1" source="NsLXYoZTtUMDjH7ZNLwZ-96" target="NsLXYoZTtUMDjH7ZNLwZ-72" edge="1">
          <mxGeometry relative="1" as="geometry"/>
        </mxCell>
        <mxCell id="ngVqm2jK2bZw7VQzEvIM-31" style="edgeStyle=orthogonalEdgeStyle;rounded=0;orthogonalLoop=1;jettySize=auto;html=1;exitX=0;exitY=0.5;exitDx=0;exitDy=0;entryX=1;entryY=0.5;entryDx=0;entryDy=0;" parent="NsLXYoZTtUMDjH7ZNLwZ-1" source="NsLXYoZTtUMDjH7ZNLwZ-103" target="NsLXYoZTtUMDjH7ZNLwZ-73" edge="1">
          <mxGeometry relative="1" as="geometry"/>
        </mxCell>
        <mxCell id="ngVqm2jK2bZw7VQzEvIM-32" style="edgeStyle=orthogonalEdgeStyle;rounded=0;orthogonalLoop=1;jettySize=auto;html=1;exitX=0;exitY=0.5;exitDx=0;exitDy=0;entryX=1;entryY=0.5;entryDx=0;entryDy=0;" parent="NsLXYoZTtUMDjH7ZNLwZ-1" source="ngVqm2jK2bZw7VQzEvIM-17" target="NsLXYoZTtUMDjH7ZNLwZ-74" edge="1">
          <mxGeometry relative="1" as="geometry"/>
        </mxCell>
        <mxCell id="ngVqm2jK2bZw7VQzEvIM-33" value="TODOFUKEN_MSTとCHIKI_MSTは1対１？" style="text;html=1;resizable=0;points=[];autosize=1;align=left;verticalAlign=top;spacingTop=-4;" parent="NsLXYoZTtUMDjH7ZNLwZ-1" vertex="1">
          <mxGeometry x="-60" y="631" width="250" height="20" as="geometry"/>
        </mxCell>
        <mxCell id="ngVqm2jK2bZw7VQzEvIM-35" value="TODOFUKEN_AREA(RIMSYS)" style="swimlane;fontStyle=0;childLayout=stackLayout;horizontal=1;startSize=26;fillColor=none;horizontalStack=0;resizeParent=1;resizeParentMax=0;resizeLast=0;collapsible=1;marginBottom=0;" parent="NsLXYoZTtUMDjH7ZNLwZ-1" vertex="1">
          <mxGeometry x="15" y="860" width="225" height="104" as="geometry"/>
        </mxCell>
        <mxCell id="ngVqm2jK2bZw7VQzEvIM-36" value="Item 1" style="text;strokeColor=none;fillColor=none;align=left;verticalAlign=top;spacingLeft=4;spacingRight=4;overflow=hidden;rotatable=0;points=[[0,0.5],[1,0.5]];portConstraint=eastwest;" parent="ngVqm2jK2bZw7VQzEvIM-35" vertex="1">
          <mxGeometry y="26" width="225" height="26" as="geometry"/>
        </mxCell>
        <mxCell id="ngVqm2jK2bZw7VQzEvIM-37" value="Item 2" style="text;strokeColor=none;fillColor=none;align=left;verticalAlign=top;spacingLeft=4;spacingRight=4;overflow=hidden;rotatable=0;points=[[0,0.5],[1,0.5]];portConstraint=eastwest;" parent="ngVqm2jK2bZw7VQzEvIM-35" vertex="1">
          <mxGeometry y="52" width="225" height="26" as="geometry"/>
        </mxCell>
        <mxCell id="ngVqm2jK2bZw7VQzEvIM-38" value="Item 3" style="text;strokeColor=none;fillColor=none;align=left;verticalAlign=top;spacingLeft=4;spacingRight=4;overflow=hidden;rotatable=0;points=[[0,0.5],[1,0.5]];portConstraint=eastwest;" parent="ngVqm2jK2bZw7VQzEvIM-35" vertex="1">
          <mxGeometry y="78" width="225" height="26" as="geometry"/>
        </mxCell>
        <mxCell id="ngVqm2jK2bZw7VQzEvIM-40" value="TODOFUKEN_MASTER(RIMSYS)" style="swimlane;fontStyle=0;childLayout=stackLayout;horizontal=1;startSize=26;fillColor=none;horizontalStack=0;resizeParent=1;resizeParentMax=0;resizeLast=0;collapsible=1;marginBottom=0;" parent="NsLXYoZTtUMDjH7ZNLwZ-1" vertex="1">
          <mxGeometry x="15" y="1000" width="225" height="104" as="geometry"/>
        </mxCell>
        <mxCell id="ngVqm2jK2bZw7VQzEvIM-41" value="Item 1" style="text;strokeColor=none;fillColor=none;align=left;verticalAlign=top;spacingLeft=4;spacingRight=4;overflow=hidden;rotatable=0;points=[[0,0.5],[1,0.5]];portConstraint=eastwest;" parent="ngVqm2jK2bZw7VQzEvIM-40" vertex="1">
          <mxGeometry y="26" width="225" height="26" as="geometry"/>
        </mxCell>
        <mxCell id="ngVqm2jK2bZw7VQzEvIM-42" value="Item 2" style="text;strokeColor=none;fillColor=none;align=left;verticalAlign=top;spacingLeft=4;spacingRight=4;overflow=hidden;rotatable=0;points=[[0,0.5],[1,0.5]];portConstraint=eastwest;" parent="ngVqm2jK2bZw7VQzEvIM-40" vertex="1">
          <mxGeometry y="52" width="225" height="26" as="geometry"/>
        </mxCell>
        <mxCell id="ngVqm2jK2bZw7VQzEvIM-43" value="Item 3" style="text;strokeColor=none;fillColor=none;align=left;verticalAlign=top;spacingLeft=4;spacingRight=4;overflow=hidden;rotatable=0;points=[[0,0.5],[1,0.5]];portConstraint=eastwest;" parent="ngVqm2jK2bZw7VQzEvIM-40" vertex="1">
          <mxGeometry y="78" width="225" height="26" as="geometry"/>
        </mxCell>
        <mxCell id="dF5DPAZWTMF8y1XQBSr--1" value="要らない？" style="text;html=1;resizable=0;points=[];autosize=1;align=left;verticalAlign=top;spacingTop=-4;" parent="NsLXYoZTtUMDjH7ZNLwZ-1" vertex="1">
          <mxGeometry x="789" y="744" width="80" height="20" as="geometry"/>
        </mxCell>
        <mxCell id="dF5DPAZWTMF8y1XQBSr--4" style="edgeStyle=orthogonalEdgeStyle;rounded=0;orthogonalLoop=1;jettySize=auto;html=1;exitX=0;exitY=0.5;exitDx=0;exitDy=0;" parent="NsLXYoZTtUMDjH7ZNLwZ-1" source="NsLXYoZTtUMDjH7ZNLwZ-78" target="dF5DPAZWTMF8y1XQBSr--3" edge="1">
          <mxGeometry relative="1" as="geometry"/>
        </mxCell>
      </root>
    </mxGraphModel>
  </diagram>
  <diagram id="XDBIoDmLoa2dWBFJ8Xeq" name="Page-7">
    <mxGraphModel dx="1762" dy="773" grid="1" gridSize="10" guides="1" tooltips="1" connect="1" arrows="1" fold="1" page="1" pageScale="1" pageWidth="827" pageHeight="1169" math="0" shadow="0">
      <root>
        <mxCell id="t_0wqPRVrVJgQPp1W1C--0"/>
        <mxCell id="t_0wqPRVrVJgQPp1W1C--1" parent="t_0wqPRVrVJgQPp1W1C--0"/>
        <mxCell id="t_0wqPRVrVJgQPp1W1C--5" style="edgeStyle=orthogonalEdgeStyle;rounded=0;orthogonalLoop=1;jettySize=auto;html=1;exitX=1;exitY=0.5;exitDx=0;exitDy=0;entryX=0;entryY=0.5;entryDx=0;entryDy=0;" edge="1" parent="t_0wqPRVrVJgQPp1W1C--1" source="t_0wqPRVrVJgQPp1W1C--2" target="t_0wqPRVrVJgQPp1W1C--4">
          <mxGeometry relative="1" as="geometry"/>
        </mxCell>
        <mxCell id="t_0wqPRVrVJgQPp1W1C--2" value="個人情報&lt;br&gt;＋属性情報（高校・希望学校学部学科）" style="rounded=0;whiteSpace=wrap;html=1;" vertex="1" parent="t_0wqPRVrVJgQPp1W1C--1">
          <mxGeometry x="30" y="320" width="210" height="120" as="geometry"/>
        </mxCell>
        <mxCell id="t_0wqPRVrVJgQPp1W1C--3" value="学校/CL情報&lt;br&gt;＋キャンパスなど" style="rounded=0;whiteSpace=wrap;html=1;" vertex="1" parent="t_0wqPRVrVJgQPp1W1C--1">
          <mxGeometry x="530" y="320" width="210" height="120" as="geometry"/>
        </mxCell>
        <mxCell id="t_0wqPRVrVJgQPp1W1C--6" style="edgeStyle=orthogonalEdgeStyle;rounded=0;orthogonalLoop=1;jettySize=auto;html=1;exitX=1;exitY=0.5;exitDx=0;exitDy=0;entryX=0;entryY=0.5;entryDx=0;entryDy=0;" edge="1" parent="t_0wqPRVrVJgQPp1W1C--1" source="t_0wqPRVrVJgQPp1W1C--4" target="t_0wqPRVrVJgQPp1W1C--3">
          <mxGeometry relative="1" as="geometry"/>
        </mxCell>
        <mxCell id="t_0wqPRVrVJgQPp1W1C--4" value="アクション情報&lt;br&gt;資料請求&lt;br&gt;OC予約" style="rounded=0;whiteSpace=wrap;html=1;" vertex="1" parent="t_0wqPRVrVJgQPp1W1C--1">
          <mxGeometry x="320" y="320" width="210" height="120" as="geometry"/>
        </mxCell>
        <mxCell id="t_0wqPRVrVJgQPp1W1C--7" value="1:n" style="text;html=1;resizable=0;points=[];autosize=1;align=left;verticalAlign=top;spacingTop=-4;" vertex="1" parent="t_0wqPRVrVJgQPp1W1C--1">
          <mxGeometry x="248" y="361" width="30" height="20" as="geometry"/>
        </mxCell>
        <mxCell id="t_0wqPRVrVJgQPp1W1C--8" value="n:n" style="text;html=1;resizable=0;points=[];autosize=1;align=left;verticalAlign=top;spacingTop=-4;" vertex="1" parent="t_0wqPRVrVJgQPp1W1C--1">
          <mxGeometry x="550" y="360" width="30" height="20" as="geometry"/>
        </mxCell>
        <mxCell id="t_0wqPRVrVJgQPp1W1C--9" value="個人情報" style="rounded=0;whiteSpace=wrap;html=1;" vertex="1" parent="t_0wqPRVrVJgQPp1W1C--1">
          <mxGeometry x="30" y="580" width="197" height="110" as="geometry"/>
        </mxCell>
        <mxCell id="t_0wqPRVrVJgQPp1W1C--10" value="個人の各種属性情報" style="rounded=0;whiteSpace=wrap;html=1;" vertex="1" parent="t_0wqPRVrVJgQPp1W1C--1">
          <mxGeometry x="30" y="720" width="197" height="110" as="geometry"/>
        </mxCell>
        <mxCell id="t_0wqPRVrVJgQPp1W1C--11" value="アクション情報&lt;br&gt;資料請求&lt;br&gt;OC予約" style="rounded=0;whiteSpace=wrap;html=1;" vertex="1" parent="t_0wqPRVrVJgQPp1W1C--1">
          <mxGeometry x="300" y="630" width="200" height="110" as="geometry"/>
        </mxCell>
        <mxCell id="t_0wqPRVrVJgQPp1W1C--12" value="学校情報" style="rounded=0;whiteSpace=wrap;html=1;" vertex="1" parent="t_0wqPRVrVJgQPp1W1C--1">
          <mxGeometry x="590" y="570" width="197" height="110" as="geometry"/>
        </mxCell>
        <mxCell id="t_0wqPRVrVJgQPp1W1C--13" value="属性情報&lt;br&gt;学部学科&lt;br&gt;キャンパス情報" style="rounded=0;whiteSpace=wrap;html=1;" vertex="1" parent="t_0wqPRVrVJgQPp1W1C--1">
          <mxGeometry x="590" y="720" width="197" height="110" as="geometry"/>
        </mxCell>
      </root>
    </mxGraphModel>
  </diagram>
  <diagram id="XqbM4uzNH90M8-D9ZzDg" name="方針">
    <mxGraphModel dx="1666" dy="771" grid="1" gridSize="10" guides="1" tooltips="1" connect="1" arrows="1" fold="1" page="1" pageScale="1" pageWidth="827" pageHeight="1169" math="0" shadow="0">
      <root>
        <mxCell id="p5NwnzadrlIFkBkBY0Vz-0"/>
        <mxCell id="p5NwnzadrlIFkBkBY0Vz-1" parent="p5NwnzadrlIFkBkBY0Vz-0"/>
        <mxCell id="p5NwnzadrlIFkBkBY0Vz-5" style="edgeStyle=orthogonalEdgeStyle;rounded=0;orthogonalLoop=1;jettySize=auto;html=1;exitX=0.5;exitY=1;exitDx=0;exitDy=0;" parent="p5NwnzadrlIFkBkBY0Vz-1" source="p5NwnzadrlIFkBkBY0Vz-2" target="p5NwnzadrlIFkBkBY0Vz-3" edge="1">
          <mxGeometry relative="1" as="geometry"/>
        </mxCell>
        <mxCell id="p5NwnzadrlIFkBkBY0Vz-2" value="振り返りシートのデータ定義確認" style="rounded=0;whiteSpace=wrap;html=1;" parent="p5NwnzadrlIFkBkBY0Vz-1" vertex="1">
          <mxGeometry x="290" y="80" width="120" height="60" as="geometry"/>
        </mxCell>
        <mxCell id="p5NwnzadrlIFkBkBY0Vz-6" style="edgeStyle=orthogonalEdgeStyle;rounded=0;orthogonalLoop=1;jettySize=auto;html=1;exitX=0.5;exitY=1;exitDx=0;exitDy=0;entryX=0.5;entryY=0;entryDx=0;entryDy=0;" parent="p5NwnzadrlIFkBkBY0Vz-1" source="p5NwnzadrlIFkBkBY0Vz-3" target="p5NwnzadrlIFkBkBY0Vz-4" edge="1">
          <mxGeometry relative="1" as="geometry"/>
        </mxCell>
        <mxCell id="p5NwnzadrlIFkBkBY0Vz-3" value="ドメイン分類&lt;br&gt;データ整理" style="rounded=0;whiteSpace=wrap;html=1;" parent="p5NwnzadrlIFkBkBY0Vz-1" vertex="1">
          <mxGeometry x="290" y="180" width="120" height="60" as="geometry"/>
        </mxCell>
        <mxCell id="p5NwnzadrlIFkBkBY0Vz-8" style="edgeStyle=orthogonalEdgeStyle;rounded=0;orthogonalLoop=1;jettySize=auto;html=1;exitX=0.5;exitY=1;exitDx=0;exitDy=0;entryX=0.5;entryY=0;entryDx=0;entryDy=0;" parent="p5NwnzadrlIFkBkBY0Vz-1" source="p5NwnzadrlIFkBkBY0Vz-4" target="p5NwnzadrlIFkBkBY0Vz-7" edge="1">
          <mxGeometry relative="1" as="geometry"/>
        </mxCell>
        <mxCell id="p5NwnzadrlIFkBkBY0Vz-4" value="ドメインごとに主テーブルと従属テーブルをDWHにつくる&lt;br&gt;なるべく正規化する&lt;br&gt;主テーブルごとにドメインをつなぐリレーションを保持し、それ以外はなるべく疎結合になるように設計&lt;br&gt;&lt;br&gt;ラベリング" style="rounded=0;whiteSpace=wrap;html=1;" parent="p5NwnzadrlIFkBkBY0Vz-1" vertex="1">
          <mxGeometry x="187.5" y="280" width="325" height="100" as="geometry"/>
        </mxCell>
        <mxCell id="p5NwnzadrlIFkBkBY0Vz-9" style="edgeStyle=orthogonalEdgeStyle;rounded=0;orthogonalLoop=1;jettySize=auto;html=1;exitX=0.5;exitY=1;exitDx=0;exitDy=0;entryX=1;entryY=0.5;entryDx=0;entryDy=0;" parent="p5NwnzadrlIFkBkBY0Vz-1" source="p5NwnzadrlIFkBkBY0Vz-7" target="p5NwnzadrlIFkBkBY0Vz-2" edge="1">
          <mxGeometry relative="1" as="geometry">
            <Array as="points">
              <mxPoint x="350" y="560"/>
              <mxPoint x="610" y="560"/>
              <mxPoint x="610" y="110"/>
            </Array>
          </mxGeometry>
        </mxCell>
        <mxCell id="p5NwnzadrlIFkBkBY0Vz-7" value="分析要件ごとに違いはあるが、&lt;br&gt;&lt;br&gt;スタースキーマ構造を参考に&lt;br&gt;ファクトテーブルとディメンションテーブルを作成&lt;br&gt;&lt;br&gt;使いやすさを重視して、非正規化するところは非正規化" style="rounded=0;whiteSpace=wrap;html=1;" parent="p5NwnzadrlIFkBkBY0Vz-1" vertex="1">
          <mxGeometry x="235" y="400" width="230" height="140" as="geometry"/>
        </mxCell>
        <mxCell id="p5NwnzadrlIFkBkBY0Vz-10" value="欲しいデータが集計できるかチェック" style="text;html=1;resizable=0;points=[];autosize=1;align=left;verticalAlign=top;spacingTop=-4;" parent="p5NwnzadrlIFkBkBY0Vz-1" vertex="1">
          <mxGeometry x="590" y="310" width="220" height="20" as="geometry"/>
        </mxCell>
      </root>
    </mxGraphModel>
  </diagram>
  <diagram id="b_tvls-UM2SBTInPU4xW" name="Page-9">
    <mxGraphModel dx="2493" dy="771" grid="1" gridSize="10" guides="1" tooltips="1" connect="1" arrows="1" fold="1" page="1" pageScale="1" pageWidth="827" pageHeight="1169" math="0" shadow="0">
      <root>
        <mxCell id="-1cMQiYwUsijJZH4Y-XY-0"/>
        <mxCell id="-1cMQiYwUsijJZH4Y-XY-1" parent="-1cMQiYwUsijJZH4Y-XY-0"/>
        <mxCell id="_zQf8Pzejq9RmqRgenLj-131" value="" style="rounded=0;whiteSpace=wrap;html=1;fillColor=#FFFFFF;" parent="-1cMQiYwUsijJZH4Y-XY-1" vertex="1">
          <mxGeometry x="1240" y="370" width="600" height="360" as="geometry"/>
        </mxCell>
        <mxCell id="_zQf8Pzejq9RmqRgenLj-130" value="" style="rounded=0;whiteSpace=wrap;html=1;" parent="-1cMQiYwUsijJZH4Y-XY-1" vertex="1">
          <mxGeometry x="-420" y="402" width="880" height="478" as="geometry"/>
        </mxCell>
        <mxCell id="_zQf8Pzejq9RmqRgenLj-41" value="" style="rounded=0;whiteSpace=wrap;html=1;fillColor=#FFFFFF;" parent="-1cMQiYwUsijJZH4Y-XY-1" vertex="1">
          <mxGeometry x="471" y="780" width="979" height="650" as="geometry"/>
        </mxCell>
        <mxCell id="-1cMQiYwUsijJZH4Y-XY-61" value="" style="rounded=0;whiteSpace=wrap;html=1;" parent="-1cMQiYwUsijJZH4Y-XY-1" vertex="1">
          <mxGeometry x="515" y="246" width="675" height="384" as="geometry"/>
        </mxCell>
        <mxCell id="-1cMQiYwUsijJZH4Y-XY-32" value="" style="rounded=0;whiteSpace=wrap;html=1;" parent="-1cMQiYwUsijJZH4Y-XY-1" vertex="1">
          <mxGeometry x="8" y="59" width="810" height="151" as="geometry"/>
        </mxCell>
        <mxCell id="-1cMQiYwUsijJZH4Y-XY-4" value="GAKKO" style="swimlane;fontStyle=0;childLayout=stackLayout;horizontal=1;startSize=26;fillColor=none;horizontalStack=0;resizeParent=1;resizeParentMax=0;resizeLast=0;collapsible=1;marginBottom=0;" parent="-1cMQiYwUsijJZH4Y-XY-1" vertex="1">
          <mxGeometry x="100" y="429" width="140" height="78" as="geometry"/>
        </mxCell>
        <mxCell id="-1cMQiYwUsijJZH4Y-XY-5" value="GAKKO_CD" style="text;strokeColor=none;fillColor=none;align=left;verticalAlign=top;spacingLeft=4;spacingRight=4;overflow=hidden;rotatable=0;points=[[0,0.5],[1,0.5]];portConstraint=eastwest;" parent="-1cMQiYwUsijJZH4Y-XY-4" vertex="1">
          <mxGeometry y="26" width="140" height="26" as="geometry"/>
        </mxCell>
        <mxCell id="-1cMQiYwUsijJZH4Y-XY-6" value="GAKKOU_NAME" style="text;strokeColor=none;fillColor=none;align=left;verticalAlign=top;spacingLeft=4;spacingRight=4;overflow=hidden;rotatable=0;points=[[0,0.5],[1,0.5]];portConstraint=eastwest;" parent="-1cMQiYwUsijJZH4Y-XY-4" vertex="1">
          <mxGeometry y="52" width="140" height="26" as="geometry"/>
        </mxCell>
        <mxCell id="-1cMQiYwUsijJZH4Y-XY-8" value="TODOFUKEN_MST" style="swimlane;fontStyle=0;childLayout=stackLayout;horizontal=1;startSize=26;fillColor=none;horizontalStack=0;resizeParent=1;resizeParentMax=0;resizeLast=0;collapsible=1;marginBottom=0;" parent="-1cMQiYwUsijJZH4Y-XY-1" vertex="1">
          <mxGeometry x="330" y="95.5" width="140" height="104" as="geometry"/>
        </mxCell>
        <mxCell id="-1cMQiYwUsijJZH4Y-XY-9" value="TODOFUKEN_CD" style="text;strokeColor=none;fillColor=none;align=left;verticalAlign=top;spacingLeft=4;spacingRight=4;overflow=hidden;rotatable=0;points=[[0,0.5],[1,0.5]];portConstraint=eastwest;" parent="-1cMQiYwUsijJZH4Y-XY-8" vertex="1">
          <mxGeometry y="26" width="140" height="26" as="geometry"/>
        </mxCell>
        <mxCell id="-1cMQiYwUsijJZH4Y-XY-10" value="TODOFUKEN_MEI" style="text;strokeColor=none;fillColor=none;align=left;verticalAlign=top;spacingLeft=4;spacingRight=4;overflow=hidden;rotatable=0;points=[[0,0.5],[1,0.5]];portConstraint=eastwest;" parent="-1cMQiYwUsijJZH4Y-XY-8" vertex="1">
          <mxGeometry y="52" width="140" height="26" as="geometry"/>
        </mxCell>
        <mxCell id="JcsBoOnUp4-l6LON_Cxh-48" value="CHIKI_CD" style="text;strokeColor=none;fillColor=none;align=left;verticalAlign=top;spacingLeft=4;spacingRight=4;overflow=hidden;rotatable=0;points=[[0,0.5],[1,0.5]];portConstraint=eastwest;" parent="-1cMQiYwUsijJZH4Y-XY-8" vertex="1">
          <mxGeometry y="78" width="140" height="26" as="geometry"/>
        </mxCell>
        <mxCell id="-1cMQiYwUsijJZH4Y-XY-18" value="CAMPUS" style="swimlane;fontStyle=0;childLayout=stackLayout;horizontal=1;startSize=26;fillColor=none;horizontalStack=0;resizeParent=1;resizeParentMax=0;resizeLast=0;collapsible=1;marginBottom=0;" parent="-1cMQiYwUsijJZH4Y-XY-1" vertex="1">
          <mxGeometry x="60" y="641" width="140" height="130" as="geometry"/>
        </mxCell>
        <mxCell id="-1cMQiYwUsijJZH4Y-XY-19" value="CAMPUS_CD" style="text;strokeColor=none;fillColor=none;align=left;verticalAlign=top;spacingLeft=4;spacingRight=4;overflow=hidden;rotatable=0;points=[[0,0.5],[1,0.5]];portConstraint=eastwest;" parent="-1cMQiYwUsijJZH4Y-XY-18" vertex="1">
          <mxGeometry y="26" width="140" height="26" as="geometry"/>
        </mxCell>
        <mxCell id="-1cMQiYwUsijJZH4Y-XY-21" value="TODOFUKEN_CD" style="text;strokeColor=none;fillColor=none;align=left;verticalAlign=top;spacingLeft=4;spacingRight=4;overflow=hidden;rotatable=0;points=[[0,0.5],[1,0.5]];portConstraint=eastwest;" parent="-1cMQiYwUsijJZH4Y-XY-18" vertex="1">
          <mxGeometry y="52" width="140" height="26" as="geometry"/>
        </mxCell>
        <mxCell id="-1cMQiYwUsijJZH4Y-XY-28" value="CAMPUS_NM" style="text;strokeColor=none;fillColor=none;align=left;verticalAlign=top;spacingLeft=4;spacingRight=4;overflow=hidden;rotatable=0;points=[[0,0.5],[1,0.5]];portConstraint=eastwest;" parent="-1cMQiYwUsijJZH4Y-XY-18" vertex="1">
          <mxGeometry y="78" width="140" height="26" as="geometry"/>
        </mxCell>
        <mxCell id="_zQf8Pzejq9RmqRgenLj-133" value="IS_MAIN" style="text;strokeColor=none;fillColor=none;align=left;verticalAlign=top;spacingLeft=4;spacingRight=4;overflow=hidden;rotatable=0;points=[[0,0.5],[1,0.5]];portConstraint=eastwest;" parent="-1cMQiYwUsijJZH4Y-XY-18" vertex="1">
          <mxGeometry y="104" width="140" height="26" as="geometry"/>
        </mxCell>
        <mxCell id="-1cMQiYwUsijJZH4Y-XY-29" style="edgeStyle=orthogonalEdgeStyle;rounded=0;orthogonalLoop=1;jettySize=auto;html=1;exitX=1;exitY=0.5;exitDx=0;exitDy=0;entryX=0;entryY=0.5;entryDx=0;entryDy=0;" parent="-1cMQiYwUsijJZH4Y-XY-1" source="-1cMQiYwUsijJZH4Y-XY-21" target="-1cMQiYwUsijJZH4Y-XY-9" edge="1">
          <mxGeometry relative="1" as="geometry"/>
        </mxCell>
        <mxCell id="-1cMQiYwUsijJZH4Y-XY-38" value="KOJIN" style="swimlane;fontStyle=0;childLayout=stackLayout;horizontal=1;startSize=26;fillColor=none;horizontalStack=0;resizeParent=1;resizeParentMax=0;resizeLast=0;collapsible=1;marginBottom=0;" parent="-1cMQiYwUsijJZH4Y-XY-1" vertex="1">
          <mxGeometry x="571" y="360" width="140" height="156" as="geometry"/>
        </mxCell>
        <mxCell id="-1cMQiYwUsijJZH4Y-XY-45" value="KOJIN_ID" style="text;strokeColor=none;fillColor=none;align=left;verticalAlign=top;spacingLeft=4;spacingRight=4;overflow=hidden;rotatable=0;points=[[0,0.5],[1,0.5]];portConstraint=eastwest;" parent="-1cMQiYwUsijJZH4Y-XY-38" vertex="1">
          <mxGeometry y="26" width="140" height="26" as="geometry"/>
        </mxCell>
        <mxCell id="-1cMQiYwUsijJZH4Y-XY-40" value="SOTSUNEN" style="text;strokeColor=none;fillColor=none;align=left;verticalAlign=top;spacingLeft=4;spacingRight=4;overflow=hidden;rotatable=0;points=[[0,0.5],[1,0.5]];portConstraint=eastwest;" parent="-1cMQiYwUsijJZH4Y-XY-38" vertex="1">
          <mxGeometry y="52" width="140" height="26" as="geometry"/>
        </mxCell>
        <mxCell id="-1cMQiYwUsijJZH4Y-XY-41" value="SEX" style="text;strokeColor=none;fillColor=none;align=left;verticalAlign=top;spacingLeft=4;spacingRight=4;overflow=hidden;rotatable=0;points=[[0,0.5],[1,0.5]];portConstraint=eastwest;" parent="-1cMQiYwUsijJZH4Y-XY-38" vertex="1">
          <mxGeometry y="78" width="140" height="26" as="geometry"/>
        </mxCell>
        <mxCell id="-1cMQiYwUsijJZH4Y-XY-42" value="TODOFUKEN_CD" style="text;strokeColor=none;fillColor=none;align=left;verticalAlign=top;spacingLeft=4;spacingRight=4;overflow=hidden;rotatable=0;points=[[0,0.5],[1,0.5]];portConstraint=eastwest;" parent="-1cMQiYwUsijJZH4Y-XY-38" vertex="1">
          <mxGeometry y="104" width="140" height="26" as="geometry"/>
        </mxCell>
        <mxCell id="-1cMQiYwUsijJZH4Y-XY-57" value="KOKO_CD" style="text;strokeColor=none;fillColor=none;align=left;verticalAlign=top;spacingLeft=4;spacingRight=4;overflow=hidden;rotatable=0;points=[[0,0.5],[1,0.5]];portConstraint=eastwest;" parent="-1cMQiYwUsijJZH4Y-XY-38" vertex="1">
          <mxGeometry y="130" width="140" height="26" as="geometry"/>
        </mxCell>
        <mxCell id="-1cMQiYwUsijJZH4Y-XY-46" value="KOKO" style="swimlane;fontStyle=0;childLayout=stackLayout;horizontal=1;startSize=26;fillColor=none;horizontalStack=0;resizeParent=1;resizeParentMax=0;resizeLast=0;collapsible=1;marginBottom=0;" parent="-1cMQiYwUsijJZH4Y-XY-1" vertex="1">
          <mxGeometry x="1010" y="256" width="140" height="234" as="geometry"/>
        </mxCell>
        <mxCell id="-1cMQiYwUsijJZH4Y-XY-47" value="KOKO_CD" style="text;strokeColor=none;fillColor=none;align=left;verticalAlign=top;spacingLeft=4;spacingRight=4;overflow=hidden;rotatable=0;points=[[0,0.5],[1,0.5]];portConstraint=eastwest;" parent="-1cMQiYwUsijJZH4Y-XY-46" vertex="1">
          <mxGeometry y="26" width="140" height="26" as="geometry"/>
        </mxCell>
        <mxCell id="-1cMQiYwUsijJZH4Y-XY-48" value="KOKO_MEI" style="text;strokeColor=none;fillColor=none;align=left;verticalAlign=top;spacingLeft=4;spacingRight=4;overflow=hidden;rotatable=0;points=[[0,0.5],[1,0.5]];portConstraint=eastwest;" parent="-1cMQiYwUsijJZH4Y-XY-46" vertex="1">
          <mxGeometry y="52" width="140" height="26" as="geometry"/>
        </mxCell>
        <mxCell id="-1cMQiYwUsijJZH4Y-XY-49" value="DAITAN_TYPE" style="text;strokeColor=none;fillColor=none;align=left;verticalAlign=top;spacingLeft=4;spacingRight=4;overflow=hidden;rotatable=0;points=[[0,0.5],[1,0.5]];portConstraint=eastwest;" parent="-1cMQiYwUsijJZH4Y-XY-46" vertex="1">
          <mxGeometry y="78" width="140" height="26" as="geometry"/>
        </mxCell>
        <mxCell id="-1cMQiYwUsijJZH4Y-XY-50" value="SENKAKU_TYPE" style="text;strokeColor=none;fillColor=none;align=left;verticalAlign=top;spacingLeft=4;spacingRight=4;overflow=hidden;rotatable=0;points=[[0,0.5],[1,0.5]];portConstraint=eastwest;" parent="-1cMQiYwUsijJZH4Y-XY-46" vertex="1">
          <mxGeometry y="104" width="140" height="26" as="geometry"/>
        </mxCell>
        <mxCell id="JcsBoOnUp4-l6LON_Cxh-49" value="KOKO_MEI_KANA" style="text;strokeColor=none;fillColor=none;align=left;verticalAlign=top;spacingLeft=4;spacingRight=4;overflow=hidden;rotatable=0;points=[[0,0.5],[1,0.5]];portConstraint=eastwest;" parent="-1cMQiYwUsijJZH4Y-XY-46" vertex="1">
          <mxGeometry y="130" width="140" height="26" as="geometry"/>
        </mxCell>
        <mxCell id="-1cMQiYwUsijJZH4Y-XY-51" value="TODOFUKEN_CD" style="text;strokeColor=none;fillColor=none;align=left;verticalAlign=top;spacingLeft=4;spacingRight=4;overflow=hidden;rotatable=0;points=[[0,0.5],[1,0.5]];portConstraint=eastwest;" parent="-1cMQiYwUsijJZH4Y-XY-46" vertex="1">
          <mxGeometry y="156" width="140" height="26" as="geometry"/>
        </mxCell>
        <mxCell id="-1cMQiYwUsijJZH4Y-XY-59" value="HENSACHI_MAX" style="text;strokeColor=none;fillColor=none;align=left;verticalAlign=top;spacingLeft=4;spacingRight=4;overflow=hidden;rotatable=0;points=[[0,0.5],[1,0.5]];portConstraint=eastwest;" parent="-1cMQiYwUsijJZH4Y-XY-46" vertex="1">
          <mxGeometry y="182" width="140" height="26" as="geometry"/>
        </mxCell>
        <mxCell id="JcsBoOnUp4-l6LON_Cxh-50" value="HENSACHI_MIN" style="text;strokeColor=none;fillColor=none;align=left;verticalAlign=top;spacingLeft=4;spacingRight=4;overflow=hidden;rotatable=0;points=[[0,0.5],[1,0.5]];portConstraint=eastwest;" parent="-1cMQiYwUsijJZH4Y-XY-46" vertex="1">
          <mxGeometry y="208" width="140" height="26" as="geometry"/>
        </mxCell>
        <mxCell id="-1cMQiYwUsijJZH4Y-XY-62" style="edgeStyle=orthogonalEdgeStyle;rounded=0;orthogonalLoop=1;jettySize=auto;html=1;exitX=0;exitY=0.5;exitDx=0;exitDy=0;entryX=1;entryY=0.5;entryDx=0;entryDy=0;" parent="-1cMQiYwUsijJZH4Y-XY-1" source="-1cMQiYwUsijJZH4Y-XY-42" target="-1cMQiYwUsijJZH4Y-XY-9" edge="1">
          <mxGeometry relative="1" as="geometry">
            <Array as="points">
              <mxPoint x="550" y="477"/>
              <mxPoint x="550" y="546"/>
              <mxPoint x="490" y="546"/>
              <mxPoint x="490" y="135"/>
            </Array>
          </mxGeometry>
        </mxCell>
        <mxCell id="_zQf8Pzejq9RmqRgenLj-0" value="SHIRYOSEIKYU" style="swimlane;fontStyle=0;childLayout=stackLayout;horizontal=1;startSize=26;fillColor=none;horizontalStack=0;resizeParent=1;resizeParentMax=0;resizeLast=0;collapsible=1;marginBottom=0;" parent="-1cMQiYwUsijJZH4Y-XY-1" vertex="1">
          <mxGeometry x="771" y="797" width="360" height="338" as="geometry"/>
        </mxCell>
        <mxCell id="_zQf8Pzejq9RmqRgenLj-1" value="SHIRYOSEIKYU_ID" style="text;strokeColor=none;fillColor=none;align=left;verticalAlign=top;spacingLeft=4;spacingRight=4;overflow=hidden;rotatable=0;points=[[0,0.5],[1,0.5]];portConstraint=eastwest;" parent="_zQf8Pzejq9RmqRgenLj-0" vertex="1">
          <mxGeometry y="26" width="360" height="26" as="geometry"/>
        </mxCell>
        <mxCell id="_zQf8Pzejq9RmqRgenLj-2" value="SHOHIN_CD" style="text;strokeColor=none;fillColor=none;align=left;verticalAlign=top;spacingLeft=4;spacingRight=4;overflow=hidden;rotatable=0;points=[[0,0.5],[1,0.5]];portConstraint=eastwest;" parent="_zQf8Pzejq9RmqRgenLj-0" vertex="1">
          <mxGeometry y="52" width="360" height="26" as="geometry"/>
        </mxCell>
        <mxCell id="_zQf8Pzejq9RmqRgenLj-3" value="NOHINBI_CD" style="text;strokeColor=none;fillColor=none;align=left;verticalAlign=top;spacingLeft=4;spacingRight=4;overflow=hidden;rotatable=0;points=[[0,0.5],[1,0.5]];portConstraint=eastwest;" parent="_zQf8Pzejq9RmqRgenLj-0" vertex="1">
          <mxGeometry y="78" width="360" height="26" as="geometry"/>
        </mxCell>
        <mxCell id="_zQf8Pzejq9RmqRgenLj-47" value="KOJIN_ID" style="text;strokeColor=none;fillColor=none;align=left;verticalAlign=top;spacingLeft=4;spacingRight=4;overflow=hidden;rotatable=0;points=[[0,0.5],[1,0.5]];portConstraint=eastwest;" parent="_zQf8Pzejq9RmqRgenLj-0" vertex="1">
          <mxGeometry y="104" width="360" height="26" as="geometry"/>
        </mxCell>
        <mxCell id="_zQf8Pzejq9RmqRgenLj-8" value="UKETSUKE_BAITAI(UKETSUKE_BAITAI_CDからラベリング)" style="text;strokeColor=none;fillColor=none;align=left;verticalAlign=top;spacingLeft=4;spacingRight=4;overflow=hidden;rotatable=0;points=[[0,0.5],[1,0.5]];portConstraint=eastwest;" parent="_zQf8Pzejq9RmqRgenLj-0" vertex="1">
          <mxGeometry y="130" width="360" height="26" as="geometry"/>
        </mxCell>
        <mxCell id="_zQf8Pzejq9RmqRgenLj-49" value="UKETSUKE_DAYTIME" style="text;strokeColor=none;fillColor=none;align=left;verticalAlign=top;spacingLeft=4;spacingRight=4;overflow=hidden;rotatable=0;points=[[0,0.5],[1,0.5]];portConstraint=eastwest;" parent="_zQf8Pzejq9RmqRgenLj-0" vertex="1">
          <mxGeometry y="156" width="360" height="26" as="geometry"/>
        </mxCell>
        <mxCell id="JcsBoOnUp4-l6LON_Cxh-0" value="KOKO_CD" style="text;strokeColor=none;fillColor=none;align=left;verticalAlign=top;spacingLeft=4;spacingRight=4;overflow=hidden;rotatable=0;points=[[0,0.5],[1,0.5]];portConstraint=eastwest;" parent="_zQf8Pzejq9RmqRgenLj-0" vertex="1">
          <mxGeometry y="182" width="360" height="26" as="geometry"/>
        </mxCell>
        <mxCell id="JcsBoOnUp4-l6LON_Cxh-1" value="CREATE_DATE" style="text;strokeColor=none;fillColor=none;align=left;verticalAlign=top;spacingLeft=4;spacingRight=4;overflow=hidden;rotatable=0;points=[[0,0.5],[1,0.5]];portConstraint=eastwest;" parent="_zQf8Pzejq9RmqRgenLj-0" vertex="1">
          <mxGeometry y="208" width="360" height="26" as="geometry"/>
        </mxCell>
        <mxCell id="JcsBoOnUp4-l6LON_Cxh-2" value="UPDATE_DATE" style="text;strokeColor=none;fillColor=none;align=left;verticalAlign=top;spacingLeft=4;spacingRight=4;overflow=hidden;rotatable=0;points=[[0,0.5],[1,0.5]];portConstraint=eastwest;" parent="_zQf8Pzejq9RmqRgenLj-0" vertex="1">
          <mxGeometry y="234" width="360" height="26" as="geometry"/>
        </mxCell>
        <mxCell id="JcsBoOnUp4-l6LON_Cxh-3" value="SHIRYOSEIKYU_BY&#xa;" style="text;strokeColor=none;fillColor=none;align=left;verticalAlign=top;spacingLeft=4;spacingRight=4;overflow=hidden;rotatable=0;points=[[0,0.5],[1,0.5]];portConstraint=eastwest;" parent="_zQf8Pzejq9RmqRgenLj-0" vertex="1">
          <mxGeometry y="260" width="360" height="26" as="geometry"/>
        </mxCell>
        <mxCell id="JcsBoOnUp4-l6LON_Cxh-4" value="DEVICE" style="text;strokeColor=none;fillColor=none;align=left;verticalAlign=top;spacingLeft=4;spacingRight=4;overflow=hidden;rotatable=0;points=[[0,0.5],[1,0.5]];portConstraint=eastwest;" parent="_zQf8Pzejq9RmqRgenLj-0" vertex="1">
          <mxGeometry y="286" width="360" height="26" as="geometry"/>
        </mxCell>
        <mxCell id="JcsBoOnUp4-l6LON_Cxh-5" value="SHINSA_STATUS_CD" style="text;strokeColor=none;fillColor=none;align=left;verticalAlign=top;spacingLeft=4;spacingRight=4;overflow=hidden;rotatable=0;points=[[0,0.5],[1,0.5]];portConstraint=eastwest;" parent="_zQf8Pzejq9RmqRgenLj-0" vertex="1">
          <mxGeometry y="312" width="360" height="26" as="geometry"/>
        </mxCell>
        <mxCell id="_zQf8Pzejq9RmqRgenLj-4" value="SHIRYOSEIKYU_DETAIL" style="swimlane;fontStyle=0;childLayout=stackLayout;horizontal=1;startSize=26;fillColor=none;horizontalStack=0;resizeParent=1;resizeParentMax=0;resizeLast=0;collapsible=1;marginBottom=0;" parent="-1cMQiYwUsijJZH4Y-XY-1" vertex="1">
          <mxGeometry x="531" y="862" width="180" height="182" as="geometry"/>
        </mxCell>
        <mxCell id="_zQf8Pzejq9RmqRgenLj-5" value="SHIRYOSEIKYU_ID" style="text;strokeColor=none;fillColor=none;align=left;verticalAlign=top;spacingLeft=4;spacingRight=4;overflow=hidden;rotatable=0;points=[[0,0.5],[1,0.5]];portConstraint=eastwest;" parent="_zQf8Pzejq9RmqRgenLj-4" vertex="1">
          <mxGeometry y="26" width="180" height="26" as="geometry"/>
        </mxCell>
        <mxCell id="_zQf8Pzejq9RmqRgenLj-6" value="SHOHIN_CD" style="text;strokeColor=none;fillColor=none;align=left;verticalAlign=top;spacingLeft=4;spacingRight=4;overflow=hidden;rotatable=0;points=[[0,0.5],[1,0.5]];portConstraint=eastwest;" parent="_zQf8Pzejq9RmqRgenLj-4" vertex="1">
          <mxGeometry y="52" width="180" height="26" as="geometry"/>
        </mxCell>
        <mxCell id="_zQf8Pzejq9RmqRgenLj-7" value="NOHINBI_CD" style="text;strokeColor=none;fillColor=none;align=left;verticalAlign=top;spacingLeft=4;spacingRight=4;overflow=hidden;rotatable=0;points=[[0,0.5],[1,0.5]];portConstraint=eastwest;" parent="_zQf8Pzejq9RmqRgenLj-4" vertex="1">
          <mxGeometry y="78" width="180" height="26" as="geometry"/>
        </mxCell>
        <mxCell id="_zQf8Pzejq9RmqRgenLj-11" value="ACCESS_CD" style="text;strokeColor=none;fillColor=none;align=left;verticalAlign=top;spacingLeft=4;spacingRight=4;overflow=hidden;rotatable=0;points=[[0,0.5],[1,0.5]];portConstraint=eastwest;" parent="_zQf8Pzejq9RmqRgenLj-4" vertex="1">
          <mxGeometry y="104" width="180" height="26" as="geometry"/>
        </mxCell>
        <mxCell id="JcsBoOnUp4-l6LON_Cxh-21" value="CREATE_DATE" style="text;strokeColor=none;fillColor=none;align=left;verticalAlign=top;spacingLeft=4;spacingRight=4;overflow=hidden;rotatable=0;points=[[0,0.5],[1,0.5]];portConstraint=eastwest;" parent="_zQf8Pzejq9RmqRgenLj-4" vertex="1">
          <mxGeometry y="130" width="180" height="26" as="geometry"/>
        </mxCell>
        <mxCell id="JcsBoOnUp4-l6LON_Cxh-22" value="UPDATE_DATE" style="text;strokeColor=none;fillColor=none;align=left;verticalAlign=top;spacingLeft=4;spacingRight=4;overflow=hidden;rotatable=0;points=[[0,0.5],[1,0.5]];portConstraint=eastwest;" parent="_zQf8Pzejq9RmqRgenLj-4" vertex="1">
          <mxGeometry y="156" width="180" height="26" as="geometry"/>
        </mxCell>
        <mxCell id="_zQf8Pzejq9RmqRgenLj-14" style="edgeStyle=orthogonalEdgeStyle;rounded=0;orthogonalLoop=1;jettySize=auto;html=1;exitX=1;exitY=0.5;exitDx=0;exitDy=0;entryX=0;entryY=0.5;entryDx=0;entryDy=0;" parent="-1cMQiYwUsijJZH4Y-XY-1" source="_zQf8Pzejq9RmqRgenLj-6" target="_zQf8Pzejq9RmqRgenLj-2" edge="1">
          <mxGeometry relative="1" as="geometry"/>
        </mxCell>
        <mxCell id="_zQf8Pzejq9RmqRgenLj-15" style="edgeStyle=orthogonalEdgeStyle;rounded=0;orthogonalLoop=1;jettySize=auto;html=1;exitX=1;exitY=0.5;exitDx=0;exitDy=0;entryX=0;entryY=0.5;entryDx=0;entryDy=0;" parent="-1cMQiYwUsijJZH4Y-XY-1" source="_zQf8Pzejq9RmqRgenLj-7" target="_zQf8Pzejq9RmqRgenLj-3" edge="1">
          <mxGeometry relative="1" as="geometry"/>
        </mxCell>
        <mxCell id="_zQf8Pzejq9RmqRgenLj-16" style="edgeStyle=orthogonalEdgeStyle;rounded=0;orthogonalLoop=1;jettySize=auto;html=1;exitX=1;exitY=0.5;exitDx=0;exitDy=0;entryX=0;entryY=0.5;entryDx=0;entryDy=0;" parent="-1cMQiYwUsijJZH4Y-XY-1" source="_zQf8Pzejq9RmqRgenLj-5" target="_zQf8Pzejq9RmqRgenLj-1" edge="1">
          <mxGeometry relative="1" as="geometry"/>
        </mxCell>
        <mxCell id="_zQf8Pzejq9RmqRgenLj-17" value="SHIRYO_MST" style="swimlane;fontStyle=0;childLayout=stackLayout;horizontal=1;startSize=26;fillColor=none;horizontalStack=0;resizeParent=1;resizeParentMax=0;resizeLast=0;collapsible=1;marginBottom=0;" parent="-1cMQiYwUsijJZH4Y-XY-1" vertex="1">
          <mxGeometry x="530" y="1179" width="180" height="182" as="geometry"/>
        </mxCell>
        <mxCell id="_zQf8Pzejq9RmqRgenLj-22" value="GAKKO_CD" style="text;strokeColor=none;fillColor=none;align=left;verticalAlign=top;spacingLeft=4;spacingRight=4;overflow=hidden;rotatable=0;points=[[0,0.5],[1,0.5]];portConstraint=eastwest;" parent="_zQf8Pzejq9RmqRgenLj-17" vertex="1">
          <mxGeometry y="26" width="180" height="26" as="geometry"/>
        </mxCell>
        <mxCell id="_zQf8Pzejq9RmqRgenLj-18" value="SHOHIN_CD" style="text;strokeColor=none;fillColor=none;align=left;verticalAlign=top;spacingLeft=4;spacingRight=4;overflow=hidden;rotatable=0;points=[[0,0.5],[1,0.5]];portConstraint=eastwest;" parent="_zQf8Pzejq9RmqRgenLj-17" vertex="1">
          <mxGeometry y="52" width="180" height="26" as="geometry"/>
        </mxCell>
        <mxCell id="_zQf8Pzejq9RmqRgenLj-20" value="NOHINBI_CD" style="text;strokeColor=none;fillColor=none;align=left;verticalAlign=top;spacingLeft=4;spacingRight=4;overflow=hidden;rotatable=0;points=[[0,0.5],[1,0.5]];portConstraint=eastwest;" parent="_zQf8Pzejq9RmqRgenLj-17" vertex="1">
          <mxGeometry y="78" width="180" height="26" as="geometry"/>
        </mxCell>
        <mxCell id="_zQf8Pzejq9RmqRgenLj-21" value="ACCESS_CD" style="text;strokeColor=none;fillColor=none;align=left;verticalAlign=top;spacingLeft=4;spacingRight=4;overflow=hidden;rotatable=0;points=[[0,0.5],[1,0.5]];portConstraint=eastwest;" parent="_zQf8Pzejq9RmqRgenLj-17" vertex="1">
          <mxGeometry y="104" width="180" height="26" as="geometry"/>
        </mxCell>
        <mxCell id="JcsBoOnUp4-l6LON_Cxh-12" value="CREATE_DATE" style="text;strokeColor=none;fillColor=none;align=left;verticalAlign=top;spacingLeft=4;spacingRight=4;overflow=hidden;rotatable=0;points=[[0,0.5],[1,0.5]];portConstraint=eastwest;" parent="_zQf8Pzejq9RmqRgenLj-17" vertex="1">
          <mxGeometry y="130" width="180" height="26" as="geometry"/>
        </mxCell>
        <mxCell id="JcsBoOnUp4-l6LON_Cxh-19" value="UPDATE_DATE" style="text;strokeColor=none;fillColor=none;align=left;verticalAlign=top;spacingLeft=4;spacingRight=4;overflow=hidden;rotatable=0;points=[[0,0.5],[1,0.5]];portConstraint=eastwest;" parent="_zQf8Pzejq9RmqRgenLj-17" vertex="1">
          <mxGeometry y="156" width="180" height="26" as="geometry"/>
        </mxCell>
        <mxCell id="_zQf8Pzejq9RmqRgenLj-23" style="edgeStyle=orthogonalEdgeStyle;rounded=0;orthogonalLoop=1;jettySize=auto;html=1;exitX=0;exitY=0.5;exitDx=0;exitDy=0;entryX=0;entryY=0.5;entryDx=0;entryDy=0;" parent="-1cMQiYwUsijJZH4Y-XY-1" source="_zQf8Pzejq9RmqRgenLj-18" target="_zQf8Pzejq9RmqRgenLj-6" edge="1">
          <mxGeometry relative="1" as="geometry"/>
        </mxCell>
        <mxCell id="_zQf8Pzejq9RmqRgenLj-24" style="edgeStyle=orthogonalEdgeStyle;rounded=0;orthogonalLoop=1;jettySize=auto;html=1;exitX=0;exitY=0.5;exitDx=0;exitDy=0;entryX=0;entryY=0.5;entryDx=0;entryDy=0;" parent="-1cMQiYwUsijJZH4Y-XY-1" source="_zQf8Pzejq9RmqRgenLj-20" target="_zQf8Pzejq9RmqRgenLj-7" edge="1">
          <mxGeometry relative="1" as="geometry"/>
        </mxCell>
        <mxCell id="_zQf8Pzejq9RmqRgenLj-25" style="edgeStyle=orthogonalEdgeStyle;rounded=0;orthogonalLoop=1;jettySize=auto;html=1;exitX=0;exitY=0.5;exitDx=0;exitDy=0;entryX=0;entryY=0.5;entryDx=0;entryDy=0;" parent="-1cMQiYwUsijJZH4Y-XY-1" source="_zQf8Pzejq9RmqRgenLj-21" target="_zQf8Pzejq9RmqRgenLj-11" edge="1">
          <mxGeometry relative="1" as="geometry"/>
        </mxCell>
        <mxCell id="_zQf8Pzejq9RmqRgenLj-28" value="MEDIA_MST" style="swimlane;fontStyle=0;childLayout=stackLayout;horizontal=1;startSize=26;fillColor=none;horizontalStack=0;resizeParent=1;resizeParentMax=0;resizeLast=0;collapsible=1;marginBottom=0;" parent="-1cMQiYwUsijJZH4Y-XY-1" vertex="1">
          <mxGeometry x="1260" y="802" width="180" height="234" as="geometry"/>
        </mxCell>
        <mxCell id="_zQf8Pzejq9RmqRgenLj-29" value="SHOHIN_CD" style="text;strokeColor=none;fillColor=none;align=left;verticalAlign=top;spacingLeft=4;spacingRight=4;overflow=hidden;rotatable=0;points=[[0,0.5],[1,0.5]];portConstraint=eastwest;" parent="_zQf8Pzejq9RmqRgenLj-28" vertex="1">
          <mxGeometry y="26" width="180" height="26" as="geometry"/>
        </mxCell>
        <mxCell id="_zQf8Pzejq9RmqRgenLj-30" value="NOHINBI_CD" style="text;strokeColor=none;fillColor=none;align=left;verticalAlign=top;spacingLeft=4;spacingRight=4;overflow=hidden;rotatable=0;points=[[0,0.5],[1,0.5]];portConstraint=eastwest;" parent="_zQf8Pzejq9RmqRgenLj-28" vertex="1">
          <mxGeometry y="52" width="180" height="26" as="geometry"/>
        </mxCell>
        <mxCell id="_zQf8Pzejq9RmqRgenLj-32" value="MEDIA_MEI" style="text;strokeColor=none;fillColor=none;align=left;verticalAlign=top;spacingLeft=4;spacingRight=4;overflow=hidden;rotatable=0;points=[[0,0.5],[1,0.5]];portConstraint=eastwest;" parent="_zQf8Pzejq9RmqRgenLj-28" vertex="1">
          <mxGeometry y="78" width="180" height="26" as="geometry"/>
        </mxCell>
        <mxCell id="_zQf8Pzejq9RmqRgenLj-33" value="TAISHO_SOTSUNEN" style="text;strokeColor=none;fillColor=none;align=left;verticalAlign=top;spacingLeft=4;spacingRight=4;overflow=hidden;rotatable=0;points=[[0,0.5],[1,0.5]];portConstraint=eastwest;" parent="_zQf8Pzejq9RmqRgenLj-28" vertex="1">
          <mxGeometry y="104" width="180" height="26" as="geometry"/>
        </mxCell>
        <mxCell id="JcsBoOnUp4-l6LON_Cxh-8" value="YUKO_YMD" style="text;strokeColor=none;fillColor=none;align=left;verticalAlign=top;spacingLeft=4;spacingRight=4;overflow=hidden;rotatable=0;points=[[0,0.5],[1,0.5]];portConstraint=eastwest;" parent="_zQf8Pzejq9RmqRgenLj-28" vertex="1">
          <mxGeometry y="130" width="180" height="26" as="geometry"/>
        </mxCell>
        <mxCell id="JcsBoOnUp4-l6LON_Cxh-9" value="HANNO_KAISHI_YMD" style="text;strokeColor=none;fillColor=none;align=left;verticalAlign=top;spacingLeft=4;spacingRight=4;overflow=hidden;rotatable=0;points=[[0,0.5],[1,0.5]];portConstraint=eastwest;" parent="_zQf8Pzejq9RmqRgenLj-28" vertex="1">
          <mxGeometry y="156" width="180" height="26" as="geometry"/>
        </mxCell>
        <mxCell id="JcsBoOnUp4-l6LON_Cxh-10" value="CREATE_DATE" style="text;strokeColor=none;fillColor=none;align=left;verticalAlign=top;spacingLeft=4;spacingRight=4;overflow=hidden;rotatable=0;points=[[0,0.5],[1,0.5]];portConstraint=eastwest;" parent="_zQf8Pzejq9RmqRgenLj-28" vertex="1">
          <mxGeometry y="182" width="180" height="26" as="geometry"/>
        </mxCell>
        <mxCell id="JcsBoOnUp4-l6LON_Cxh-11" value="UPDATE_DATE" style="text;strokeColor=none;fillColor=none;align=left;verticalAlign=top;spacingLeft=4;spacingRight=4;overflow=hidden;rotatable=0;points=[[0,0.5],[1,0.5]];portConstraint=eastwest;" parent="_zQf8Pzejq9RmqRgenLj-28" vertex="1">
          <mxGeometry y="208" width="180" height="26" as="geometry"/>
        </mxCell>
        <mxCell id="_zQf8Pzejq9RmqRgenLj-50" value="EVENT_YOYAKU_RIREKI" style="swimlane;fontStyle=0;childLayout=stackLayout;horizontal=1;startSize=26;fillColor=none;horizontalStack=0;resizeParent=1;resizeParentMax=0;resizeLast=0;collapsible=1;marginBottom=0;" parent="-1cMQiYwUsijJZH4Y-XY-1" vertex="1">
          <mxGeometry x="1340" y="434" width="270" height="286" as="geometry"/>
        </mxCell>
        <mxCell id="_zQf8Pzejq9RmqRgenLj-51" value="EVENT_YOYAKU_RIREKI_ID" style="text;strokeColor=none;fillColor=none;align=left;verticalAlign=top;spacingLeft=4;spacingRight=4;overflow=hidden;rotatable=0;points=[[0,0.5],[1,0.5]];portConstraint=eastwest;" parent="_zQf8Pzejq9RmqRgenLj-50" vertex="1">
          <mxGeometry y="26" width="270" height="26" as="geometry"/>
        </mxCell>
        <mxCell id="_zQf8Pzejq9RmqRgenLj-52" value="RIMSYS_KOJIN_ID" style="text;strokeColor=none;fillColor=none;align=left;verticalAlign=top;spacingLeft=4;spacingRight=4;overflow=hidden;rotatable=0;points=[[0,0.5],[1,0.5]];portConstraint=eastwest;" parent="_zQf8Pzejq9RmqRgenLj-50" vertex="1">
          <mxGeometry y="52" width="270" height="26" as="geometry"/>
        </mxCell>
        <mxCell id="_zQf8Pzejq9RmqRgenLj-53" value="CLIENT_CD" style="text;strokeColor=none;fillColor=none;align=left;verticalAlign=top;spacingLeft=4;spacingRight=4;overflow=hidden;rotatable=0;points=[[0,0.5],[1,0.5]];portConstraint=eastwest;" parent="_zQf8Pzejq9RmqRgenLj-50" vertex="1">
          <mxGeometry y="78" width="270" height="26" as="geometry"/>
        </mxCell>
        <mxCell id="_zQf8Pzejq9RmqRgenLj-65" value="GAKKO_CD" style="text;strokeColor=none;fillColor=none;align=left;verticalAlign=top;spacingLeft=4;spacingRight=4;overflow=hidden;rotatable=0;points=[[0,0.5],[1,0.5]];portConstraint=eastwest;" parent="_zQf8Pzejq9RmqRgenLj-50" vertex="1">
          <mxGeometry y="104" width="270" height="26" as="geometry"/>
        </mxCell>
        <mxCell id="JcsBoOnUp4-l6LON_Cxh-45" value="EVENT_PROGRAM_ID" style="text;strokeColor=none;fillColor=none;align=left;verticalAlign=top;spacingLeft=4;spacingRight=4;overflow=hidden;rotatable=0;points=[[0,0.5],[1,0.5]];portConstraint=eastwest;" parent="_zQf8Pzejq9RmqRgenLj-50" vertex="1">
          <mxGeometry y="130" width="270" height="26" as="geometry"/>
        </mxCell>
        <mxCell id="_zQf8Pzejq9RmqRgenLj-54" value="MOSHIKOMI_DATE" style="text;strokeColor=none;fillColor=none;align=left;verticalAlign=top;spacingLeft=4;spacingRight=4;overflow=hidden;rotatable=0;points=[[0,0.5],[1,0.5]];portConstraint=eastwest;" parent="_zQf8Pzejq9RmqRgenLj-50" vertex="1">
          <mxGeometry y="156" width="270" height="26" as="geometry"/>
        </mxCell>
        <mxCell id="_zQf8Pzejq9RmqRgenLj-57" value="CANCEL_DATE" style="text;strokeColor=none;fillColor=none;align=left;verticalAlign=top;spacingLeft=4;spacingRight=4;overflow=hidden;rotatable=0;points=[[0,0.5],[1,0.5]];portConstraint=eastwest;" parent="_zQf8Pzejq9RmqRgenLj-50" vertex="1">
          <mxGeometry y="182" width="270" height="26" as="geometry"/>
        </mxCell>
        <mxCell id="_zQf8Pzejq9RmqRgenLj-58" value="YOYAKU_BY" style="text;strokeColor=none;fillColor=none;align=left;verticalAlign=top;spacingLeft=4;spacingRight=4;overflow=hidden;rotatable=0;points=[[0,0.5],[1,0.5]];portConstraint=eastwest;" parent="_zQf8Pzejq9RmqRgenLj-50" vertex="1">
          <mxGeometry y="208" width="270" height="26" as="geometry"/>
        </mxCell>
        <mxCell id="JcsBoOnUp4-l6LON_Cxh-44" value="CREATE_DATE" style="text;strokeColor=none;fillColor=none;align=left;verticalAlign=top;spacingLeft=4;spacingRight=4;overflow=hidden;rotatable=0;points=[[0,0.5],[1,0.5]];portConstraint=eastwest;" parent="_zQf8Pzejq9RmqRgenLj-50" vertex="1">
          <mxGeometry y="234" width="270" height="26" as="geometry"/>
        </mxCell>
        <mxCell id="JcsBoOnUp4-l6LON_Cxh-46" value="UPDATE_DATE" style="text;strokeColor=none;fillColor=none;align=left;verticalAlign=top;spacingLeft=4;spacingRight=4;overflow=hidden;rotatable=0;points=[[0,0.5],[1,0.5]];portConstraint=eastwest;" parent="_zQf8Pzejq9RmqRgenLj-50" vertex="1">
          <mxGeometry y="260" width="270" height="26" as="geometry"/>
        </mxCell>
        <mxCell id="_zQf8Pzejq9RmqRgenLj-59" value="EVENT_PROGRAM" style="swimlane;fontStyle=0;childLayout=stackLayout;horizontal=1;startSize=26;fillColor=none;horizontalStack=0;resizeParent=1;resizeParentMax=0;resizeLast=0;collapsible=1;marginBottom=0;" parent="-1cMQiYwUsijJZH4Y-XY-1" vertex="1">
          <mxGeometry x="1650" y="525" width="150" height="104" as="geometry"/>
        </mxCell>
        <mxCell id="_zQf8Pzejq9RmqRgenLj-60" value="EVENT_PROGRAM_ID" style="text;strokeColor=none;fillColor=none;align=left;verticalAlign=top;spacingLeft=4;spacingRight=4;overflow=hidden;rotatable=0;points=[[0,0.5],[1,0.5]];portConstraint=eastwest;" parent="_zQf8Pzejq9RmqRgenLj-59" vertex="1">
          <mxGeometry y="26" width="150" height="26" as="geometry"/>
        </mxCell>
        <mxCell id="_zQf8Pzejq9RmqRgenLj-61" value="KAISAI_DATE" style="text;strokeColor=none;fillColor=none;align=left;verticalAlign=top;spacingLeft=4;spacingRight=4;overflow=hidden;rotatable=0;points=[[0,0.5],[1,0.5]];portConstraint=eastwest;" parent="_zQf8Pzejq9RmqRgenLj-59" vertex="1">
          <mxGeometry y="52" width="150" height="26" as="geometry"/>
        </mxCell>
        <mxCell id="_zQf8Pzejq9RmqRgenLj-62" value="EVENT_PROGRAM_MEI" style="text;strokeColor=none;fillColor=none;align=left;verticalAlign=top;spacingLeft=4;spacingRight=4;overflow=hidden;rotatable=0;points=[[0,0.5],[1,0.5]];portConstraint=eastwest;" parent="_zQf8Pzejq9RmqRgenLj-59" vertex="1">
          <mxGeometry y="78" width="150" height="26" as="geometry"/>
        </mxCell>
        <mxCell id="_zQf8Pzejq9RmqRgenLj-66" style="edgeStyle=orthogonalEdgeStyle;rounded=0;orthogonalLoop=1;jettySize=auto;html=1;exitX=0;exitY=0.5;exitDx=0;exitDy=0;entryX=1;entryY=0.5;entryDx=0;entryDy=0;" parent="-1cMQiYwUsijJZH4Y-XY-1" source="_zQf8Pzejq9RmqRgenLj-65" target="-1cMQiYwUsijJZH4Y-XY-5" edge="1">
          <mxGeometry relative="1" as="geometry">
            <Array as="points">
              <mxPoint x="1220" y="629"/>
              <mxPoint x="1220" y="650"/>
              <mxPoint x="270" y="650"/>
              <mxPoint x="270" y="468"/>
            </Array>
          </mxGeometry>
        </mxCell>
        <mxCell id="_zQf8Pzejq9RmqRgenLj-109" value="GAKKO_INVENTORY" style="swimlane;fontStyle=0;childLayout=stackLayout;horizontal=1;startSize=26;fillColor=none;horizontalStack=0;resizeParent=1;resizeParentMax=0;resizeLast=0;collapsible=1;marginBottom=0;" parent="-1cMQiYwUsijJZH4Y-XY-1" vertex="1">
          <mxGeometry x="-180" y="542" width="170" height="104" as="geometry"/>
        </mxCell>
        <mxCell id="_zQf8Pzejq9RmqRgenLj-110" value="GAKKO_CD" style="text;strokeColor=none;fillColor=none;align=left;verticalAlign=top;spacingLeft=4;spacingRight=4;overflow=hidden;rotatable=0;points=[[0,0.5],[1,0.5]];portConstraint=eastwest;" parent="_zQf8Pzejq9RmqRgenLj-109" vertex="1">
          <mxGeometry y="26" width="170" height="26" as="geometry"/>
        </mxCell>
        <mxCell id="_zQf8Pzejq9RmqRgenLj-111" value="GAKKO_MASTER_META_ID" style="text;strokeColor=none;fillColor=none;align=left;verticalAlign=top;spacingLeft=4;spacingRight=4;overflow=hidden;rotatable=0;points=[[0,0.5],[1,0.5]];portConstraint=eastwest;" parent="_zQf8Pzejq9RmqRgenLj-109" vertex="1">
          <mxGeometry y="52" width="170" height="26" as="geometry"/>
        </mxCell>
        <mxCell id="_zQf8Pzejq9RmqRgenLj-114" value="MASTER_ID" style="text;strokeColor=none;fillColor=none;align=left;verticalAlign=top;spacingLeft=4;spacingRight=4;overflow=hidden;rotatable=0;points=[[0,0.5],[1,0.5]];portConstraint=eastwest;" parent="_zQf8Pzejq9RmqRgenLj-109" vertex="1">
          <mxGeometry y="78" width="170" height="26" as="geometry"/>
        </mxCell>
        <mxCell id="_zQf8Pzejq9RmqRgenLj-115" style="edgeStyle=orthogonalEdgeStyle;rounded=0;orthogonalLoop=1;jettySize=auto;html=1;exitX=1;exitY=0.5;exitDx=0;exitDy=0;entryX=0;entryY=0.5;entryDx=0;entryDy=0;" parent="-1cMQiYwUsijJZH4Y-XY-1" source="_zQf8Pzejq9RmqRgenLj-110" target="-1cMQiYwUsijJZH4Y-XY-5" edge="1">
          <mxGeometry relative="1" as="geometry"/>
        </mxCell>
        <mxCell id="_zQf8Pzejq9RmqRgenLj-123" value="GAKKO_MASTER_META" style="swimlane;fontStyle=0;childLayout=stackLayout;horizontal=1;startSize=26;fillColor=none;horizontalStack=0;resizeParent=1;resizeParentMax=0;resizeLast=0;collapsible=1;marginBottom=0;" parent="-1cMQiYwUsijJZH4Y-XY-1" vertex="1">
          <mxGeometry x="-390" y="650" width="160" height="104" as="geometry"/>
        </mxCell>
        <mxCell id="_zQf8Pzejq9RmqRgenLj-124" value="ID" style="text;strokeColor=none;fillColor=none;align=left;verticalAlign=top;spacingLeft=4;spacingRight=4;overflow=hidden;rotatable=0;points=[[0,0.5],[1,0.5]];portConstraint=eastwest;" parent="_zQf8Pzejq9RmqRgenLj-123" vertex="1">
          <mxGeometry y="26" width="160" height="26" as="geometry"/>
        </mxCell>
        <mxCell id="_zQf8Pzejq9RmqRgenLj-125" value="MASTER_TABLE_NAME" style="text;strokeColor=none;fillColor=none;align=left;verticalAlign=top;spacingLeft=4;spacingRight=4;overflow=hidden;rotatable=0;points=[[0,0.5],[1,0.5]];portConstraint=eastwest;" parent="_zQf8Pzejq9RmqRgenLj-123" vertex="1">
          <mxGeometry y="52" width="160" height="26" as="geometry"/>
        </mxCell>
        <mxCell id="_zQf8Pzejq9RmqRgenLj-132" value="MASTER_NAME" style="text;strokeColor=none;fillColor=none;align=left;verticalAlign=top;spacingLeft=4;spacingRight=4;overflow=hidden;rotatable=0;points=[[0,0.5],[1,0.5]];portConstraint=eastwest;" parent="_zQf8Pzejq9RmqRgenLj-123" vertex="1">
          <mxGeometry y="78" width="160" height="26" as="geometry"/>
        </mxCell>
        <mxCell id="_zQf8Pzejq9RmqRgenLj-128" style="edgeStyle=orthogonalEdgeStyle;rounded=0;orthogonalLoop=1;jettySize=auto;html=1;exitX=0;exitY=0.5;exitDx=0;exitDy=0;entryX=1;entryY=0.5;entryDx=0;entryDy=0;" parent="-1cMQiYwUsijJZH4Y-XY-1" source="_zQf8Pzejq9RmqRgenLj-111" target="_zQf8Pzejq9RmqRgenLj-123" edge="1">
          <mxGeometry relative="1" as="geometry"/>
        </mxCell>
        <mxCell id="_zQf8Pzejq9RmqRgenLj-129" style="edgeStyle=orthogonalEdgeStyle;rounded=0;orthogonalLoop=1;jettySize=auto;html=1;exitX=1;exitY=0.5;exitDx=0;exitDy=0;entryX=0;entryY=0.5;entryDx=0;entryDy=0;" parent="-1cMQiYwUsijJZH4Y-XY-1" source="_zQf8Pzejq9RmqRgenLj-114" target="-1cMQiYwUsijJZH4Y-XY-19" edge="1">
          <mxGeometry relative="1" as="geometry"/>
        </mxCell>
        <mxCell id="JcsBoOnUp4-l6LON_Cxh-6" style="edgeStyle=orthogonalEdgeStyle;rounded=0;orthogonalLoop=1;jettySize=auto;html=1;exitX=0;exitY=0.5;exitDx=0;exitDy=0;entryX=1;entryY=0.5;entryDx=0;entryDy=0;" parent="-1cMQiYwUsijJZH4Y-XY-1" source="_zQf8Pzejq9RmqRgenLj-29" target="_zQf8Pzejq9RmqRgenLj-2" edge="1">
          <mxGeometry relative="1" as="geometry">
            <Array as="points">
              <mxPoint x="1210" y="841"/>
              <mxPoint x="1210" y="862"/>
            </Array>
          </mxGeometry>
        </mxCell>
        <mxCell id="JcsBoOnUp4-l6LON_Cxh-7" style="edgeStyle=orthogonalEdgeStyle;rounded=0;orthogonalLoop=1;jettySize=auto;html=1;exitX=0;exitY=0.5;exitDx=0;exitDy=0;entryX=1;entryY=0.5;entryDx=0;entryDy=0;" parent="-1cMQiYwUsijJZH4Y-XY-1" source="_zQf8Pzejq9RmqRgenLj-30" target="_zQf8Pzejq9RmqRgenLj-3" edge="1">
          <mxGeometry relative="1" as="geometry">
            <Array as="points">
              <mxPoint x="1210" y="867"/>
              <mxPoint x="1210" y="888"/>
            </Array>
          </mxGeometry>
        </mxCell>
        <mxCell id="JcsBoOnUp4-l6LON_Cxh-24" value="KOJIN_INVENTORY" style="swimlane;fontStyle=0;childLayout=stackLayout;horizontal=1;startSize=26;fillColor=none;horizontalStack=0;resizeParent=1;resizeParentMax=0;resizeLast=0;collapsible=1;marginBottom=0;" parent="-1cMQiYwUsijJZH4Y-XY-1" vertex="1">
          <mxGeometry x="760" y="266" width="191" height="104" as="geometry"/>
        </mxCell>
        <mxCell id="JcsBoOnUp4-l6LON_Cxh-25" value="KOJIN_ID" style="text;strokeColor=none;fillColor=none;align=left;verticalAlign=top;spacingLeft=4;spacingRight=4;overflow=hidden;rotatable=0;points=[[0,0.5],[1,0.5]];portConstraint=eastwest;" parent="JcsBoOnUp4-l6LON_Cxh-24" vertex="1">
          <mxGeometry y="26" width="191" height="26" as="geometry"/>
        </mxCell>
        <mxCell id="JcsBoOnUp4-l6LON_Cxh-26" value="KOJIN_MASTER_META_ID" style="text;strokeColor=none;fillColor=none;align=left;verticalAlign=top;spacingLeft=4;spacingRight=4;overflow=hidden;rotatable=0;points=[[0,0.5],[1,0.5]];portConstraint=eastwest;" parent="JcsBoOnUp4-l6LON_Cxh-24" vertex="1">
          <mxGeometry y="52" width="191" height="26" as="geometry"/>
        </mxCell>
        <mxCell id="JcsBoOnUp4-l6LON_Cxh-27" value="MASTER_ID&#xa;" style="text;strokeColor=none;fillColor=none;align=left;verticalAlign=top;spacingLeft=4;spacingRight=4;overflow=hidden;rotatable=0;points=[[0,0.5],[1,0.5]];portConstraint=eastwest;" parent="JcsBoOnUp4-l6LON_Cxh-24" vertex="1">
          <mxGeometry y="78" width="191" height="26" as="geometry"/>
        </mxCell>
        <mxCell id="JcsBoOnUp4-l6LON_Cxh-30" style="edgeStyle=orthogonalEdgeStyle;rounded=0;orthogonalLoop=1;jettySize=auto;html=1;exitX=1;exitY=0.5;exitDx=0;exitDy=0;entryX=0;entryY=0.5;entryDx=0;entryDy=0;" parent="-1cMQiYwUsijJZH4Y-XY-1" source="JcsBoOnUp4-l6LON_Cxh-27" target="-1cMQiYwUsijJZH4Y-XY-47" edge="1">
          <mxGeometry relative="1" as="geometry"/>
        </mxCell>
        <mxCell id="JcsBoOnUp4-l6LON_Cxh-31" style="edgeStyle=orthogonalEdgeStyle;rounded=0;orthogonalLoop=1;jettySize=auto;html=1;exitX=0;exitY=0.5;exitDx=0;exitDy=0;entryX=1;entryY=0.5;entryDx=0;entryDy=0;" parent="-1cMQiYwUsijJZH4Y-XY-1" source="JcsBoOnUp4-l6LON_Cxh-25" target="-1cMQiYwUsijJZH4Y-XY-45" edge="1">
          <mxGeometry relative="1" as="geometry"/>
        </mxCell>
        <mxCell id="JcsBoOnUp4-l6LON_Cxh-32" value="KOJIN_MASTER_META" style="swimlane;fontStyle=0;childLayout=stackLayout;horizontal=1;startSize=26;fillColor=none;horizontalStack=0;resizeParent=1;resizeParentMax=0;resizeLast=0;collapsible=1;marginBottom=0;" parent="-1cMQiYwUsijJZH4Y-XY-1" vertex="1">
          <mxGeometry x="780" y="486" width="160" height="104" as="geometry"/>
        </mxCell>
        <mxCell id="JcsBoOnUp4-l6LON_Cxh-33" value="ID" style="text;strokeColor=none;fillColor=none;align=left;verticalAlign=top;spacingLeft=4;spacingRight=4;overflow=hidden;rotatable=0;points=[[0,0.5],[1,0.5]];portConstraint=eastwest;" parent="JcsBoOnUp4-l6LON_Cxh-32" vertex="1">
          <mxGeometry y="26" width="160" height="26" as="geometry"/>
        </mxCell>
        <mxCell id="JcsBoOnUp4-l6LON_Cxh-34" value="MASTER_TABLE_NAME" style="text;strokeColor=none;fillColor=none;align=left;verticalAlign=top;spacingLeft=4;spacingRight=4;overflow=hidden;rotatable=0;points=[[0,0.5],[1,0.5]];portConstraint=eastwest;" parent="JcsBoOnUp4-l6LON_Cxh-32" vertex="1">
          <mxGeometry y="52" width="160" height="26" as="geometry"/>
        </mxCell>
        <mxCell id="JcsBoOnUp4-l6LON_Cxh-35" value="MASTER_NAME" style="text;strokeColor=none;fillColor=none;align=left;verticalAlign=top;spacingLeft=4;spacingRight=4;overflow=hidden;rotatable=0;points=[[0,0.5],[1,0.5]];portConstraint=eastwest;" parent="JcsBoOnUp4-l6LON_Cxh-32" vertex="1">
          <mxGeometry y="78" width="160" height="26" as="geometry"/>
        </mxCell>
        <mxCell id="JcsBoOnUp4-l6LON_Cxh-36" style="edgeStyle=orthogonalEdgeStyle;rounded=0;orthogonalLoop=1;jettySize=auto;html=1;exitX=0;exitY=0.5;exitDx=0;exitDy=0;entryX=0;entryY=0.5;entryDx=0;entryDy=0;" parent="-1cMQiYwUsijJZH4Y-XY-1" source="JcsBoOnUp4-l6LON_Cxh-33" target="JcsBoOnUp4-l6LON_Cxh-26" edge="1">
          <mxGeometry relative="1" as="geometry"/>
        </mxCell>
        <mxCell id="JcsBoOnUp4-l6LON_Cxh-37" value="KOJIN_ID_RELATION" style="swimlane;fontStyle=0;childLayout=stackLayout;horizontal=1;startSize=26;fillColor=none;horizontalStack=0;resizeParent=1;resizeParentMax=0;resizeLast=0;collapsible=1;marginBottom=0;" parent="-1cMQiYwUsijJZH4Y-XY-1" vertex="1">
          <mxGeometry x="1010" y="503" width="160" height="104" as="geometry"/>
        </mxCell>
        <mxCell id="JcsBoOnUp4-l6LON_Cxh-38" value="KOJIN_ID" style="text;strokeColor=none;fillColor=none;align=left;verticalAlign=top;spacingLeft=4;spacingRight=4;overflow=hidden;rotatable=0;points=[[0,0.5],[1,0.5]];portConstraint=eastwest;" parent="JcsBoOnUp4-l6LON_Cxh-37" vertex="1">
          <mxGeometry y="26" width="160" height="26" as="geometry"/>
        </mxCell>
        <mxCell id="JcsBoOnUp4-l6LON_Cxh-39" value="RIMSYS_KOJIN_ID" style="text;strokeColor=none;fillColor=none;align=left;verticalAlign=top;spacingLeft=4;spacingRight=4;overflow=hidden;rotatable=0;points=[[0,0.5],[1,0.5]];portConstraint=eastwest;" parent="JcsBoOnUp4-l6LON_Cxh-37" vertex="1">
          <mxGeometry y="52" width="160" height="26" as="geometry"/>
        </mxCell>
        <mxCell id="JcsBoOnUp4-l6LON_Cxh-40" value="CLIENT_CD" style="text;strokeColor=none;fillColor=none;align=left;verticalAlign=top;spacingLeft=4;spacingRight=4;overflow=hidden;rotatable=0;points=[[0,0.5],[1,0.5]];portConstraint=eastwest;" parent="JcsBoOnUp4-l6LON_Cxh-37" vertex="1">
          <mxGeometry y="78" width="160" height="26" as="geometry"/>
        </mxCell>
        <mxCell id="JcsBoOnUp4-l6LON_Cxh-41" style="edgeStyle=orthogonalEdgeStyle;rounded=0;orthogonalLoop=1;jettySize=auto;html=1;exitX=0;exitY=0.5;exitDx=0;exitDy=0;entryX=1;entryY=0.5;entryDx=0;entryDy=0;" parent="-1cMQiYwUsijJZH4Y-XY-1" source="JcsBoOnUp4-l6LON_Cxh-38" target="-1cMQiYwUsijJZH4Y-XY-45" edge="1">
          <mxGeometry relative="1" as="geometry">
            <Array as="points">
              <mxPoint x="970" y="542"/>
              <mxPoint x="970" y="399"/>
            </Array>
          </mxGeometry>
        </mxCell>
        <mxCell id="JcsBoOnUp4-l6LON_Cxh-42" style="edgeStyle=orthogonalEdgeStyle;rounded=0;orthogonalLoop=1;jettySize=auto;html=1;exitX=1;exitY=0.5;exitDx=0;exitDy=0;entryX=0;entryY=0.5;entryDx=0;entryDy=0;" parent="-1cMQiYwUsijJZH4Y-XY-1" source="JcsBoOnUp4-l6LON_Cxh-39" target="_zQf8Pzejq9RmqRgenLj-52" edge="1">
          <mxGeometry relative="1" as="geometry"/>
        </mxCell>
        <mxCell id="JcsBoOnUp4-l6LON_Cxh-43" style="edgeStyle=orthogonalEdgeStyle;rounded=0;orthogonalLoop=1;jettySize=auto;html=1;exitX=1;exitY=0.5;exitDx=0;exitDy=0;entryX=0;entryY=0.5;entryDx=0;entryDy=0;" parent="-1cMQiYwUsijJZH4Y-XY-1" source="JcsBoOnUp4-l6LON_Cxh-40" target="_zQf8Pzejq9RmqRgenLj-53" edge="1">
          <mxGeometry relative="1" as="geometry">
            <Array as="points">
              <mxPoint x="1270" y="594"/>
              <mxPoint x="1270" y="525"/>
            </Array>
          </mxGeometry>
        </mxCell>
        <mxCell id="JcsBoOnUp4-l6LON_Cxh-47" style="edgeStyle=orthogonalEdgeStyle;rounded=0;orthogonalLoop=1;jettySize=auto;html=1;exitX=1;exitY=0.5;exitDx=0;exitDy=0;entryX=0;entryY=0.5;entryDx=0;entryDy=0;" parent="-1cMQiYwUsijJZH4Y-XY-1" source="JcsBoOnUp4-l6LON_Cxh-45" target="_zQf8Pzejq9RmqRgenLj-60" edge="1">
          <mxGeometry relative="1" as="geometry"/>
        </mxCell>
        <mxCell id="JcsBoOnUp4-l6LON_Cxh-51" style="edgeStyle=orthogonalEdgeStyle;rounded=0;orthogonalLoop=1;jettySize=auto;html=1;exitX=0;exitY=0.5;exitDx=0;exitDy=0;entryX=1;entryY=0.5;entryDx=0;entryDy=0;" parent="-1cMQiYwUsijJZH4Y-XY-1" source="_zQf8Pzejq9RmqRgenLj-47" target="-1cMQiYwUsijJZH4Y-XY-45" edge="1">
          <mxGeometry relative="1" as="geometry">
            <Array as="points">
              <mxPoint x="730" y="914"/>
              <mxPoint x="730" y="430"/>
              <mxPoint x="720" y="430"/>
              <mxPoint x="720" y="399"/>
            </Array>
          </mxGeometry>
        </mxCell>
      </root>
    </mxGraphModel>
  </diagram>
  <diagram id="QYqNl5Glb94JKdt43VUl" name="Page-10">
    <mxGraphModel dx="2013" dy="542" grid="1" gridSize="10" guides="1" tooltips="1" connect="1" arrows="1" fold="1" page="1" pageScale="1" pageWidth="827" pageHeight="1169" math="0" shadow="0">
      <root>
        <mxCell id="L4tvk3GR2HH5vPK1Fd-W-0"/>
        <mxCell id="L4tvk3GR2HH5vPK1Fd-W-1" parent="L4tvk3GR2HH5vPK1Fd-W-0"/>
        <mxCell id="L4tvk3GR2HH5vPK1Fd-W-2" value="" style="rounded=0;whiteSpace=wrap;html=1;" vertex="1" parent="L4tvk3GR2HH5vPK1Fd-W-1">
          <mxGeometry x="90" y="190" width="120" height="60" as="geometry"/>
        </mxCell>
        <mxCell id="L4tvk3GR2HH5vPK1Fd-W-3" value="18卒" style="text;html=1;strokeColor=none;fillColor=none;align=center;verticalAlign=middle;whiteSpace=wrap;rounded=0;" vertex="1" parent="L4tvk3GR2HH5vPK1Fd-W-1">
          <mxGeometry x="130" y="150" width="40" height="20" as="geometry"/>
        </mxCell>
        <mxCell id="L4tvk3GR2HH5vPK1Fd-W-4" value="19卒" style="text;html=1;strokeColor=none;fillColor=none;align=center;verticalAlign=middle;whiteSpace=wrap;rounded=0;" vertex="1" parent="L4tvk3GR2HH5vPK1Fd-W-1">
          <mxGeometry x="310" y="150" width="40" height="20" as="geometry"/>
        </mxCell>
        <mxCell id="L4tvk3GR2HH5vPK1Fd-W-5" value="20卒" style="text;html=1;strokeColor=none;fillColor=none;align=center;verticalAlign=middle;whiteSpace=wrap;rounded=0;" vertex="1" parent="L4tvk3GR2HH5vPK1Fd-W-1">
          <mxGeometry x="470" y="150" width="40" height="20" as="geometry"/>
        </mxCell>
        <mxCell id="L4tvk3GR2HH5vPK1Fd-W-6" value="21卒" style="text;html=1;strokeColor=none;fillColor=none;align=center;verticalAlign=middle;whiteSpace=wrap;rounded=0;" vertex="1" parent="L4tvk3GR2HH5vPK1Fd-W-1">
          <mxGeometry x="640" y="150" width="40" height="20" as="geometry"/>
        </mxCell>
        <mxCell id="L4tvk3GR2HH5vPK1Fd-W-7" value="" style="rounded=0;whiteSpace=wrap;html=1;fillColor=#3399FF;" vertex="1" parent="L4tvk3GR2HH5vPK1Fd-W-1">
          <mxGeometry x="270" y="190" width="120" height="60" as="geometry"/>
        </mxCell>
        <mxCell id="L4tvk3GR2HH5vPK1Fd-W-8" value="" style="rounded=0;whiteSpace=wrap;html=1;" vertex="1" parent="L4tvk3GR2HH5vPK1Fd-W-1">
          <mxGeometry x="430" y="190" width="120" height="60" as="geometry"/>
        </mxCell>
        <mxCell id="L4tvk3GR2HH5vPK1Fd-W-9" value="" style="rounded=0;whiteSpace=wrap;html=1;" vertex="1" parent="L4tvk3GR2HH5vPK1Fd-W-1">
          <mxGeometry x="600" y="190" width="120" height="60" as="geometry"/>
        </mxCell>
        <mxCell id="L4tvk3GR2HH5vPK1Fd-W-10" value="" style="rounded=0;whiteSpace=wrap;html=1;fillColor=#3399FF;" vertex="1" parent="L4tvk3GR2HH5vPK1Fd-W-1">
          <mxGeometry x="90" y="290" width="120" height="60" as="geometry"/>
        </mxCell>
        <mxCell id="L4tvk3GR2HH5vPK1Fd-W-11" value="17卒" style="text;html=1;align=center;verticalAlign=middle;resizable=0;points=[];;autosize=1;" vertex="1" parent="L4tvk3GR2HH5vPK1Fd-W-1">
          <mxGeometry x="-60" y="150" width="40" height="20" as="geometry"/>
        </mxCell>
        <mxCell id="L4tvk3GR2HH5vPK1Fd-W-12" value="" style="rounded=0;whiteSpace=wrap;html=1;" vertex="1" parent="L4tvk3GR2HH5vPK1Fd-W-1">
          <mxGeometry x="-100" y="290" width="120" height="60" as="geometry"/>
        </mxCell>
        <mxCell id="L4tvk3GR2HH5vPK1Fd-W-13" value="" style="rounded=0;whiteSpace=wrap;html=1;" vertex="1" parent="L4tvk3GR2HH5vPK1Fd-W-1">
          <mxGeometry x="-100" y="190" width="120" height="60" as="geometry"/>
        </mxCell>
        <mxCell id="L4tvk3GR2HH5vPK1Fd-W-14" value="" style="rounded=0;whiteSpace=wrap;html=1;" vertex="1" parent="L4tvk3GR2HH5vPK1Fd-W-1">
          <mxGeometry x="270" y="290" width="120" height="60" as="geometry"/>
        </mxCell>
        <mxCell id="L4tvk3GR2HH5vPK1Fd-W-15" value="" style="rounded=0;whiteSpace=wrap;html=1;" vertex="1" parent="L4tvk3GR2HH5vPK1Fd-W-1">
          <mxGeometry x="430" y="290" width="120" height="60" as="geometry"/>
        </mxCell>
        <mxCell id="L4tvk3GR2HH5vPK1Fd-W-16" value="" style="rounded=0;whiteSpace=wrap;html=1;" vertex="1" parent="L4tvk3GR2HH5vPK1Fd-W-1">
          <mxGeometry x="600" y="290" width="120" height="60" as="geometry"/>
        </mxCell>
        <mxCell id="L4tvk3GR2HH5vPK1Fd-W-17" value="" style="rounded=0;whiteSpace=wrap;html=1;fillColor=#3399FF;" vertex="1" parent="L4tvk3GR2HH5vPK1Fd-W-1">
          <mxGeometry x="-100" y="390" width="120" height="60" as="geometry"/>
        </mxCell>
        <mxCell id="L4tvk3GR2HH5vPK1Fd-W-18" value="" style="rounded=0;whiteSpace=wrap;html=1;" vertex="1" parent="L4tvk3GR2HH5vPK1Fd-W-1">
          <mxGeometry x="90" y="390" width="120" height="60" as="geometry"/>
        </mxCell>
        <mxCell id="L4tvk3GR2HH5vPK1Fd-W-19" value="" style="rounded=0;whiteSpace=wrap;html=1;" vertex="1" parent="L4tvk3GR2HH5vPK1Fd-W-1">
          <mxGeometry x="270" y="390" width="120" height="60" as="geometry"/>
        </mxCell>
        <mxCell id="L4tvk3GR2HH5vPK1Fd-W-20" value="" style="rounded=0;whiteSpace=wrap;html=1;" vertex="1" parent="L4tvk3GR2HH5vPK1Fd-W-1">
          <mxGeometry x="430" y="390" width="120" height="60" as="geometry"/>
        </mxCell>
        <mxCell id="L4tvk3GR2HH5vPK1Fd-W-21" value="" style="rounded=0;whiteSpace=wrap;html=1;" vertex="1" parent="L4tvk3GR2HH5vPK1Fd-W-1">
          <mxGeometry x="600" y="390" width="120" height="60" as="geometry"/>
        </mxCell>
        <mxCell id="L4tvk3GR2HH5vPK1Fd-W-22" value="3年" style="text;html=1;align=center;verticalAlign=middle;resizable=0;points=[];;autosize=1;" vertex="1" parent="L4tvk3GR2HH5vPK1Fd-W-1">
          <mxGeometry x="-226" y="211" width="30" height="20" as="geometry"/>
        </mxCell>
        <mxCell id="L4tvk3GR2HH5vPK1Fd-W-23" value="2年" style="text;html=1;align=center;verticalAlign=middle;resizable=0;points=[];;autosize=1;" vertex="1" parent="L4tvk3GR2HH5vPK1Fd-W-1">
          <mxGeometry x="-226" y="310" width="30" height="20" as="geometry"/>
        </mxCell>
        <mxCell id="L4tvk3GR2HH5vPK1Fd-W-24" value="1年" style="text;html=1;align=center;verticalAlign=middle;resizable=0;points=[];;autosize=1;" vertex="1" parent="L4tvk3GR2HH5vPK1Fd-W-1">
          <mxGeometry x="-226" y="410" width="30" height="20" as="geometry"/>
        </mxCell>
        <mxCell id="L4tvk3GR2HH5vPK1Fd-W-25" value="" style="endArrow=none;dashed=1;html=1;" edge="1" parent="L4tvk3GR2HH5vPK1Fd-W-1">
          <mxGeometry width="50" height="50" relative="1" as="geometry">
            <mxPoint x="240" y="530" as="sourcePoint"/>
            <mxPoint x="240" y="90" as="targetPoint"/>
          </mxGeometry>
        </mxCell>
        <mxCell id="L4tvk3GR2HH5vPK1Fd-W-26" value="" style="endArrow=none;dashed=1;html=1;" edge="1" parent="L4tvk3GR2HH5vPK1Fd-W-1">
          <mxGeometry width="50" height="50" relative="1" as="geometry">
            <mxPoint x="413" y="530" as="sourcePoint"/>
            <mxPoint x="413" y="90" as="targetPoint"/>
          </mxGeometry>
        </mxCell>
        <mxCell id="L4tvk3GR2HH5vPK1Fd-W-27" value="KPIモニタリング" style="text;html=1;align=center;verticalAlign=middle;resizable=0;points=[];;autosize=1;" vertex="1" parent="L4tvk3GR2HH5vPK1Fd-W-1">
          <mxGeometry x="275" y="80" width="110" height="20" as="geometry"/>
        </mxCell>
        <mxCell id="L4tvk3GR2HH5vPK1Fd-W-28" value="" style="endArrow=none;dashed=1;html=1;strokeColor=#FF6666;" edge="1" parent="L4tvk3GR2HH5vPK1Fd-W-1">
          <mxGeometry width="50" height="50" relative="1" as="geometry">
            <mxPoint x="-140" y="540" as="sourcePoint"/>
            <mxPoint x="610" y="130" as="targetPoint"/>
          </mxGeometry>
        </mxCell>
        <mxCell id="L4tvk3GR2HH5vPK1Fd-W-29" value="" style="endArrow=none;dashed=1;html=1;strokeColor=#FF6666;" edge="1" parent="L4tvk3GR2HH5vPK1Fd-W-1">
          <mxGeometry width="50" height="50" relative="1" as="geometry">
            <mxPoint x="-210" y="450" as="sourcePoint"/>
            <mxPoint x="530" y="40" as="targetPoint"/>
          </mxGeometry>
        </mxCell>
        <mxCell id="L4tvk3GR2HH5vPK1Fd-W-30" value="KGI = CS卒年 資料請求数 X&amp;nbsp;出願CVR(サンプリング校から集計推定値)&amp;nbsp;" style="text;html=1;align=center;verticalAlign=middle;resizable=0;points=[];;autosize=1;" vertex="1" parent="L4tvk3GR2HH5vPK1Fd-W-1">
          <mxGeometry x="480" y="60" width="400" height="20" as="geometry"/>
        </mxCell>
        <mxCell id="L4tvk3GR2HH5vPK1Fd-W-31" value="年プレ卒年" style="text;html=1;align=center;verticalAlign=middle;resizable=0;points=[];;autosize=1;" vertex="1" parent="L4tvk3GR2HH5vPK1Fd-W-1">
          <mxGeometry x="290" y="110" width="80" height="20" as="geometry"/>
        </mxCell>
      </root>
    </mxGraphModel>
  </diagram>
</mxfile>
